<mxfile host="app.diagrams.net" agent="Mozilla/5.0 (Windows NT 10.0; Win64; x64) AppleWebKit/537.36 (KHTML, like Gecko) Chrome/141.0.0.0 Safari/537.36 Edg/141.0.0.0" version="28.2.8">
  <diagram name="Page-1" id="8l2k0h0RMPBRFwIBOpKs">
    <mxGraphModel dx="5490" dy="2920" grid="1" gridSize="10" guides="1" tooltips="1" connect="1" arrows="1" fold="1" page="1" pageScale="1" pageWidth="827" pageHeight="1169" math="0" shadow="0">
      <root>
        <mxCell id="0" />
        <mxCell id="1" parent="0" />
        <mxCell id="dhI3B1pzcQXHYzO1v27A-1" value="" style="group;fontSize=60;" vertex="1" connectable="0" parent="1">
          <mxGeometry x="270" y="60" width="11900" height="6810" as="geometry" />
        </mxCell>
        <mxCell id="dhI3B1pzcQXHYzO1v27A-2" value="" style="rounded=1;whiteSpace=wrap;html=1;fontSize=70;container=1;" vertex="1" parent="dhI3B1pzcQXHYzO1v27A-1">
          <mxGeometry x="-200" y="50.47" width="11080" height="6349.17" as="geometry" />
        </mxCell>
        <mxCell id="dhI3B1pzcQXHYzO1v27A-5" value="Attacking" style="rounded=1;whiteSpace=wrap;html=1;fontSize=70;fontStyle=1" vertex="1" parent="dhI3B1pzcQXHYzO1v27A-2">
          <mxGeometry x="832.933546446552" y="3567.8792335598037" width="444.25814950782814" height="257.46110340486956" as="geometry" />
        </mxCell>
        <mxCell id="dhI3B1pzcQXHYzO1v27A-619" value="" style="rounded=0;whiteSpace=wrap;html=1;fillColor=light-dark(#60A917,#234208);fontColor=#ffffff;strokeColor=#2D7600;gradientDirection=north;container=0;gradientColor=default;" vertex="1" parent="dhI3B1pzcQXHYzO1v27A-2">
          <mxGeometry x="10250" y="1690" width="330" height="3940" as="geometry" />
        </mxCell>
        <mxCell id="dhI3B1pzcQXHYzO1v27A-629" value="" style="endArrow=none;html=1;rounded=0;exitX=0;exitY=0.75;exitDx=0;exitDy=0;entryX=1;entryY=0.75;entryDx=0;entryDy=0;strokeWidth=20;strokeColor=light-dark(#000000,#000000);" edge="1" parent="dhI3B1pzcQXHYzO1v27A-2">
          <mxGeometry width="50" height="50" relative="1" as="geometry">
            <mxPoint x="10250" y="4919.529999999999" as="sourcePoint" />
            <mxPoint x="10580" y="4919.53" as="targetPoint" />
          </mxGeometry>
        </mxCell>
        <mxCell id="dhI3B1pzcQXHYzO1v27A-630" value="" style="endArrow=none;html=1;rounded=0;exitX=0;exitY=0.75;exitDx=0;exitDy=0;entryX=1;entryY=0.75;entryDx=0;entryDy=0;strokeWidth=20;strokeColor=light-dark(#000000,#000000);" edge="1" parent="dhI3B1pzcQXHYzO1v27A-2">
          <mxGeometry width="50" height="50" relative="1" as="geometry">
            <mxPoint x="10250" y="4209.530000000001" as="sourcePoint" />
            <mxPoint x="10580" y="4209.530000000001" as="targetPoint" />
          </mxGeometry>
        </mxCell>
        <mxCell id="dhI3B1pzcQXHYzO1v27A-633" value="" style="endArrow=none;html=1;rounded=0;exitX=0;exitY=0.75;exitDx=0;exitDy=0;entryX=1;entryY=0.75;entryDx=0;entryDy=0;strokeWidth=20;strokeColor=light-dark(#000000,#000000);" edge="1" parent="dhI3B1pzcQXHYzO1v27A-2">
          <mxGeometry width="50" height="50" relative="1" as="geometry">
            <mxPoint x="10250" y="3567.88" as="sourcePoint" />
            <mxPoint x="10580" y="3567.88" as="targetPoint" />
          </mxGeometry>
        </mxCell>
        <mxCell id="dhI3B1pzcQXHYzO1v27A-634" value="" style="endArrow=none;html=1;rounded=0;exitX=0;exitY=0.75;exitDx=0;exitDy=0;entryX=1;entryY=0.75;entryDx=0;entryDy=0;strokeWidth=20;strokeColor=light-dark(#000000,#000000);" edge="1" parent="dhI3B1pzcQXHYzO1v27A-2">
          <mxGeometry width="50" height="50" relative="1" as="geometry">
            <mxPoint x="10250" y="2869.53" as="sourcePoint" />
            <mxPoint x="10580" y="2869.53" as="targetPoint" />
          </mxGeometry>
        </mxCell>
        <mxCell id="dhI3B1pzcQXHYzO1v27A-635" value="" style="endArrow=none;html=1;rounded=0;exitX=0;exitY=0.75;exitDx=0;exitDy=0;entryX=1;entryY=0.75;entryDx=0;entryDy=0;strokeWidth=20;strokeColor=light-dark(#000000,#000000);" edge="1" parent="dhI3B1pzcQXHYzO1v27A-2">
          <mxGeometry width="50" height="50" relative="1" as="geometry">
            <mxPoint x="10250" y="2249.53" as="sourcePoint" />
            <mxPoint x="10580" y="2249.53" as="targetPoint" />
          </mxGeometry>
        </mxCell>
        <mxCell id="dhI3B1pzcQXHYzO1v27A-637" value="&lt;span style=&quot;font-family: Helvetica; font-size: 200px; font-style: normal; font-variant-ligatures: normal; font-variant-caps: normal; font-weight: 400; letter-spacing: normal; orphans: 2; text-align: center; text-indent: 0px; text-transform: none; widows: 2; word-spacing: 0px; -webkit-text-stroke-width: 0px; white-space: normal; text-decoration-thickness: initial; text-decoration-style: initial; text-decoration-color: initial; float: none; background-color: light-dark(rgb(27, 29, 30), rgb(0, 0, 0)); display: inline !important;&quot;&gt;&lt;font style=&quot;color: light-dark(rgb(255, 255, 255), rgb(255, 255, 255));&quot;&gt;0&lt;/font&gt;&lt;/span&gt;" style="text;whiteSpace=wrap;html=1;" vertex="1" parent="dhI3B1pzcQXHYzO1v27A-2">
          <mxGeometry x="10760" y="5499.53" width="140" height="260" as="geometry" />
        </mxCell>
        <mxCell id="dhI3B1pzcQXHYzO1v27A-671" value="&lt;span style=&quot;font-family: Helvetica; font-size: 200px; font-style: normal; font-variant-ligatures: normal; font-variant-caps: normal; font-weight: 400; letter-spacing: normal; orphans: 2; text-align: center; text-indent: 0px; text-transform: none; widows: 2; word-spacing: 0px; -webkit-text-stroke-width: 0px; white-space: normal; text-decoration-thickness: initial; text-decoration-style: initial; text-decoration-color: initial; float: none; background-color: light-dark(rgb(27, 29, 30), rgb(0, 0, 0)); display: inline !important;&quot;&gt;&lt;font style=&quot;color: light-dark(rgb(255, 255, 255), rgb(255, 255, 255));&quot;&gt;4&lt;/font&gt;&lt;/span&gt;" style="text;whiteSpace=wrap;html=1;" vertex="1" parent="dhI3B1pzcQXHYzO1v27A-2">
          <mxGeometry x="10750" y="4799.53" width="140" height="260" as="geometry" />
        </mxCell>
        <mxCell id="dhI3B1pzcQXHYzO1v27A-672" value="&lt;span style=&quot;font-family: Helvetica; font-size: 200px; font-style: normal; font-variant-ligatures: normal; font-variant-caps: normal; font-weight: 400; letter-spacing: normal; orphans: 2; text-align: center; text-indent: 0px; text-transform: none; widows: 2; word-spacing: 0px; -webkit-text-stroke-width: 0px; white-space: normal; text-decoration-thickness: initial; text-decoration-style: initial; text-decoration-color: initial; float: none; background-color: light-dark(rgb(27, 29, 30), rgb(0, 0, 0)); display: inline !important;&quot;&gt;&lt;font style=&quot;color: light-dark(rgb(255, 255, 255), rgb(255, 255, 255));&quot;&gt;8&lt;/font&gt;&lt;/span&gt;" style="text;whiteSpace=wrap;html=1;" vertex="1" parent="dhI3B1pzcQXHYzO1v27A-2">
          <mxGeometry x="10730" y="4099.53" width="140" height="260" as="geometry" />
        </mxCell>
        <mxCell id="dhI3B1pzcQXHYzO1v27A-673" value="&lt;span style=&quot;font-family: Helvetica; font-size: 200px; font-style: normal; font-variant-ligatures: normal; font-variant-caps: normal; font-weight: 400; letter-spacing: normal; orphans: 2; text-align: center; text-indent: 0px; text-transform: none; widows: 2; word-spacing: 0px; -webkit-text-stroke-width: 0px; white-space: normal; text-decoration-thickness: initial; text-decoration-style: initial; text-decoration-color: initial; float: none; background-color: light-dark(rgb(27, 29, 30), rgb(0, 0, 0)); display: inline !important;&quot;&gt;&lt;font style=&quot;color: light-dark(rgb(255, 255, 255), rgb(255, 255, 255));&quot;&gt;12&lt;/font&gt;&lt;/span&gt;" style="text;whiteSpace=wrap;html=1;" vertex="1" parent="dhI3B1pzcQXHYzO1v27A-2">
          <mxGeometry x="10680" y="3469.53" width="240" height="260" as="geometry" />
        </mxCell>
        <mxCell id="dhI3B1pzcQXHYzO1v27A-675" value="&lt;span style=&quot;font-family: Helvetica; font-size: 200px; font-style: normal; font-variant-ligatures: normal; font-variant-caps: normal; font-weight: 400; letter-spacing: normal; orphans: 2; text-align: center; text-indent: 0px; text-transform: none; widows: 2; word-spacing: 0px; -webkit-text-stroke-width: 0px; white-space: normal; text-decoration-thickness: initial; text-decoration-style: initial; text-decoration-color: initial; float: none; background-color: light-dark(rgb(27, 29, 30), rgb(0, 0, 0)); display: inline !important;&quot;&gt;&lt;font style=&quot;color: light-dark(rgb(255, 255, 255), rgb(255, 255, 255));&quot;&gt;20&lt;/font&gt;&lt;/span&gt;" style="text;whiteSpace=wrap;html=1;" vertex="1" parent="dhI3B1pzcQXHYzO1v27A-2">
          <mxGeometry x="10680" y="2139.53" width="230" height="260" as="geometry" />
        </mxCell>
        <mxCell id="dhI3B1pzcQXHYzO1v27A-677" value="&lt;span style=&quot;font-family: Helvetica; font-size: 200px; font-style: normal; font-variant-ligatures: normal; font-variant-caps: normal; font-weight: 400; letter-spacing: normal; orphans: 2; text-align: center; text-indent: 0px; text-transform: none; widows: 2; word-spacing: 0px; -webkit-text-stroke-width: 0px; white-space: normal; text-decoration-thickness: initial; text-decoration-style: initial; text-decoration-color: initial; float: none; background-color: light-dark(rgb(27, 29, 30), rgb(0, 0, 0)); display: inline !important;&quot;&gt;&lt;font style=&quot;color: light-dark(rgb(255, 255, 255), rgb(255, 255, 255));&quot;&gt;24&lt;/font&gt;&lt;/span&gt;" style="text;whiteSpace=wrap;html=1;" vertex="1" parent="dhI3B1pzcQXHYzO1v27A-2">
          <mxGeometry x="10670" y="1579.53" width="230" height="260" as="geometry" />
        </mxCell>
        <mxCell id="dhI3B1pzcQXHYzO1v27A-42" value="&lt;font style=&quot;font-size: 100px;&quot;&gt;Security Phase&lt;/font&gt;" style="rounded=1;whiteSpace=wrap;html=1;fontSize=40;fontStyle=1" vertex="1" parent="dhI3B1pzcQXHYzO1v27A-2">
          <mxGeometry x="5819.999649806127" y="834.335712815853" width="1030.8530933853401" height="224.19137485301874" as="geometry" />
        </mxCell>
        <mxCell id="dhI3B1pzcQXHYzO1v27A-45" value="&lt;b&gt;&lt;span style=&quot;line-height: 115%;&quot;&gt;&lt;font style=&quot;font-size: 80px;&quot;&gt;Prevention&lt;/font&gt;&lt;/span&gt;&lt;/b&gt;" style="rounded=1;whiteSpace=wrap;html=1;fontSize=40;" vertex="1" parent="dhI3B1pzcQXHYzO1v27A-2">
          <mxGeometry x="3159.9983374605563" y="1419.5302764153764" width="535.5081004599167" height="168.14773483313482" as="geometry" />
        </mxCell>
        <mxCell id="dhI3B1pzcQXHYzO1v27A-49" value="&lt;b&gt;&lt;span style=&quot;line-height: 115%;&quot;&gt;&lt;font&gt;Detection&lt;/font&gt;&lt;/span&gt;&lt;/b&gt;" style="rounded=1;whiteSpace=wrap;html=1;fontSize=80;" vertex="1" parent="dhI3B1pzcQXHYzO1v27A-2">
          <mxGeometry x="4430.001920325403" y="1415.5707958023613" width="548.2714403986499" height="163.95519257705675" as="geometry" />
        </mxCell>
        <mxCell id="dhI3B1pzcQXHYzO1v27A-62" value="&lt;b&gt;&lt;span style=&quot;line-height: 115%;&quot;&gt;Documentation / Compliance&lt;/span&gt;&lt;/b&gt;" style="rounded=1;whiteSpace=wrap;html=1;fontSize=80;" vertex="1" parent="dhI3B1pzcQXHYzO1v27A-2">
          <mxGeometry x="9205.121992575616" y="1384.62267228921" width="718.8051579342789" height="194.90308523489438" as="geometry" />
        </mxCell>
        <mxCell id="dhI3B1pzcQXHYzO1v27A-63" style="edgeStyle=orthogonalEdgeStyle;rounded=0;orthogonalLoop=1;jettySize=auto;html=1;exitX=0.5;exitY=1;exitDx=0;exitDy=0;entryX=0.549;entryY=0.008;entryDx=0;entryDy=0;entryPerimeter=0;fontSize=40;" edge="1" parent="dhI3B1pzcQXHYzO1v27A-2" source="dhI3B1pzcQXHYzO1v27A-42" target="dhI3B1pzcQXHYzO1v27A-45">
          <mxGeometry relative="1" as="geometry" />
        </mxCell>
        <mxCell id="dhI3B1pzcQXHYzO1v27A-37" style="edgeStyle=orthogonalEdgeStyle;rounded=0;orthogonalLoop=1;jettySize=auto;html=1;exitX=0.5;exitY=1;exitDx=0;exitDy=0;entryX=0.5;entryY=0;entryDx=0;entryDy=0;fontSize=40;" edge="1" parent="dhI3B1pzcQXHYzO1v27A-2" source="dhI3B1pzcQXHYzO1v27A-42" target="dhI3B1pzcQXHYzO1v27A-49">
          <mxGeometry relative="1" as="geometry" />
        </mxCell>
        <mxCell id="dhI3B1pzcQXHYzO1v27A-40" style="edgeStyle=orthogonalEdgeStyle;rounded=0;orthogonalLoop=1;jettySize=auto;html=1;exitX=0.5;exitY=1;exitDx=0;exitDy=0;entryX=0.5;entryY=0;entryDx=0;entryDy=0;fontSize=40;" edge="1" parent="dhI3B1pzcQXHYzO1v27A-2" source="dhI3B1pzcQXHYzO1v27A-42" target="dhI3B1pzcQXHYzO1v27A-62">
          <mxGeometry relative="1" as="geometry" />
        </mxCell>
        <mxCell id="dhI3B1pzcQXHYzO1v27A-357" value="&lt;span style=&quot;font-size: 200px;&quot;&gt;&lt;b&gt;Heatmap of LLM Roles Across Security Phases and Activities&lt;/b&gt;&lt;/span&gt;" style="text;html=1;align=center;verticalAlign=middle;resizable=0;points=[];autosize=1;strokeColor=none;fillColor=none;" vertex="1" parent="dhI3B1pzcQXHYzO1v27A-2">
          <mxGeometry x="3330.0044720556516" y="479.52981492651577" width="5850" height="250" as="geometry" />
        </mxCell>
        <mxCell id="dhI3B1pzcQXHYzO1v27A-686" value="&lt;span style=&quot;font-family: Helvetica; font-style: normal; font-variant-ligatures: normal; font-variant-caps: normal; font-weight: 700; letter-spacing: normal; orphans: 2; text-align: center; text-indent: 0px; text-transform: none; widows: 2; word-spacing: 0px; -webkit-text-stroke-width: 0px; white-space: normal; text-decoration-thickness: initial; text-decoration-style: initial; text-decoration-color: initial; float: none; display: inline !important;&quot;&gt;&lt;font style=&quot;font-size: 110px;&quot;&gt;Number of Papers&lt;/font&gt;&lt;/span&gt;" style="text;whiteSpace=wrap;html=1;labelBackgroundColor=none;fontColor=light-dark(#000000,#FFFFFF);" vertex="1" parent="dhI3B1pzcQXHYzO1v27A-2">
          <mxGeometry x="9940" y="5749.53" width="1040" height="160" as="geometry" />
        </mxCell>
        <mxCell id="dhI3B1pzcQXHYzO1v27A-6" style="edgeStyle=orthogonalEdgeStyle;rounded=0;orthogonalLoop=1;jettySize=auto;html=1;exitX=1;exitY=0.5;exitDx=0;exitDy=0;entryX=0;entryY=0.5;entryDx=0;entryDy=0;fontSize=40;" edge="1" parent="dhI3B1pzcQXHYzO1v27A-1" source="dhI3B1pzcQXHYzO1v27A-615" target="dhI3B1pzcQXHYzO1v27A-9">
          <mxGeometry relative="1" as="geometry" />
        </mxCell>
        <mxCell id="dhI3B1pzcQXHYzO1v27A-7" style="edgeStyle=orthogonalEdgeStyle;rounded=0;orthogonalLoop=1;jettySize=auto;html=1;exitX=1;exitY=0.5;exitDx=0;exitDy=0;entryX=0;entryY=0.5;entryDx=0;entryDy=0;fontSize=40;" edge="1" parent="dhI3B1pzcQXHYzO1v27A-1" source="dhI3B1pzcQXHYzO1v27A-615" target="dhI3B1pzcQXHYzO1v27A-10">
          <mxGeometry relative="1" as="geometry" />
        </mxCell>
        <mxCell id="dhI3B1pzcQXHYzO1v27A-8" style="edgeStyle=orthogonalEdgeStyle;rounded=0;orthogonalLoop=1;jettySize=auto;html=1;exitX=1;exitY=0.5;exitDx=0;exitDy=0;entryX=0;entryY=0.5;entryDx=0;entryDy=0;fontSize=40;" edge="1" parent="dhI3B1pzcQXHYzO1v27A-1" source="dhI3B1pzcQXHYzO1v27A-9" target="dhI3B1pzcQXHYzO1v27A-13">
          <mxGeometry relative="1" as="geometry" />
        </mxCell>
        <mxCell id="dhI3B1pzcQXHYzO1v27A-9" value="Defensive" style="rounded=1;whiteSpace=wrap;html=1;fontSize=70;fontStyle=1" vertex="1" parent="dhI3B1pzcQXHYzO1v27A-1">
          <mxGeometry x="720" y="2320.4415494978475" width="457.64" height="151.334418938307" as="geometry" />
        </mxCell>
        <mxCell id="dhI3B1pzcQXHYzO1v27A-10" value="NA" style="rounded=1;whiteSpace=wrap;html=1;fontSize=70;fontStyle=1" vertex="1" parent="dhI3B1pzcQXHYzO1v27A-1">
          <mxGeometry x="963.91458082785" y="5061.246818477362" width="254.3663477184605" height="151.33296134982137" as="geometry" />
        </mxCell>
        <mxCell id="dhI3B1pzcQXHYzO1v27A-11" value="LLM as Pre-processor" style="rounded=1;whiteSpace=wrap;html=1;fontSize=70;fontStyle=1" vertex="1" parent="dhI3B1pzcQXHYzO1v27A-1">
          <mxGeometry x="1709.78" y="2135.4772596843613" width="630.22" height="201.779225251076" as="geometry" />
        </mxCell>
        <mxCell id="dhI3B1pzcQXHYzO1v27A-12" style="edgeStyle=orthogonalEdgeStyle;rounded=0;orthogonalLoop=1;jettySize=auto;html=1;exitX=1;exitY=0.5;exitDx=0;exitDy=0;entryX=0;entryY=0.5;entryDx=0;entryDy=0;" edge="1" parent="dhI3B1pzcQXHYzO1v27A-1" source="dhI3B1pzcQXHYzO1v27A-13" target="dhI3B1pzcQXHYzO1v27A-86">
          <mxGeometry relative="1" as="geometry" />
        </mxCell>
        <mxCell id="dhI3B1pzcQXHYzO1v27A-13" value="LLM as Processor" style="rounded=1;whiteSpace=wrap;html=1;fontSize=70;fontStyle=1" vertex="1" parent="dhI3B1pzcQXHYzO1v27A-1">
          <mxGeometry x="1699.78" y="2471.7759684361545" width="650.22" height="201.779225251076" as="geometry" />
        </mxCell>
        <mxCell id="dhI3B1pzcQXHYzO1v27A-14" style="edgeStyle=orthogonalEdgeStyle;rounded=0;orthogonalLoop=1;jettySize=auto;html=1;exitX=1;exitY=0.5;exitDx=0;exitDy=0;entryX=0;entryY=0.5;entryDx=0;entryDy=0;fontSize=40;" edge="1" parent="dhI3B1pzcQXHYzO1v27A-1" source="dhI3B1pzcQXHYzO1v27A-16" target="dhI3B1pzcQXHYzO1v27A-20">
          <mxGeometry relative="1" as="geometry" />
        </mxCell>
        <mxCell id="dhI3B1pzcQXHYzO1v27A-15" style="edgeStyle=orthogonalEdgeStyle;rounded=0;orthogonalLoop=1;jettySize=auto;html=1;exitX=1;exitY=0.5;exitDx=0;exitDy=0;entryX=0;entryY=0.5;entryDx=0;entryDy=0;fontSize=40;" edge="1" parent="dhI3B1pzcQXHYzO1v27A-1" source="dhI3B1pzcQXHYzO1v27A-16" target="dhI3B1pzcQXHYzO1v27A-22">
          <mxGeometry relative="1" as="geometry" />
        </mxCell>
        <mxCell id="dhI3B1pzcQXHYzO1v27A-16" value="LLM as Post-processor" style="rounded=1;whiteSpace=wrap;html=1;fontSize=70;fontStyle=1" vertex="1" parent="dhI3B1pzcQXHYzO1v27A-1">
          <mxGeometry x="1218.28" y="2852.969870875179" width="467.1" height="274.83284074605444" as="geometry" />
        </mxCell>
        <mxCell id="dhI3B1pzcQXHYzO1v27A-17" style="edgeStyle=orthogonalEdgeStyle;rounded=0;orthogonalLoop=1;jettySize=auto;html=1;exitX=1;exitY=0.5;exitDx=0;exitDy=0;entryX=0;entryY=0.5;entryDx=0;entryDy=0;fontSize=40;" edge="1" parent="dhI3B1pzcQXHYzO1v27A-1" source="dhI3B1pzcQXHYzO1v27A-9" target="dhI3B1pzcQXHYzO1v27A-11">
          <mxGeometry relative="1" as="geometry">
            <mxPoint x="1552.9734913337588" y="2152.2910058641264" as="sourcePoint" />
          </mxGeometry>
        </mxCell>
        <mxCell id="dhI3B1pzcQXHYzO1v27A-18" style="edgeStyle=orthogonalEdgeStyle;rounded=0;orthogonalLoop=1;jettySize=auto;html=1;exitX=1;exitY=0.5;exitDx=0;exitDy=0;entryX=0;entryY=0.5;entryDx=0;entryDy=0;fontSize=40;" edge="1" parent="dhI3B1pzcQXHYzO1v27A-1" source="dhI3B1pzcQXHYzO1v27A-9" target="dhI3B1pzcQXHYzO1v27A-16">
          <mxGeometry relative="1" as="geometry">
            <mxPoint x="1552.9734913337588" y="2152.2910058641264" as="sourcePoint" />
          </mxGeometry>
        </mxCell>
        <mxCell id="dhI3B1pzcQXHYzO1v27A-19" style="edgeStyle=orthogonalEdgeStyle;rounded=0;orthogonalLoop=1;jettySize=auto;html=1;exitX=1;exitY=0.5;exitDx=0;exitDy=0;entryX=0;entryY=0.5;entryDx=0;entryDy=0;" edge="1" parent="dhI3B1pzcQXHYzO1v27A-1" source="dhI3B1pzcQXHYzO1v27A-20" target="dhI3B1pzcQXHYzO1v27A-90">
          <mxGeometry relative="1" as="geometry" />
        </mxCell>
        <mxCell id="dhI3B1pzcQXHYzO1v27A-20" value="Judge / Evaluator" style="rounded=1;whiteSpace=wrap;html=1;fontSize=70;fontStyle=1" vertex="1" parent="dhI3B1pzcQXHYzO1v27A-1">
          <mxGeometry x="1860.89" y="2808.064906743184" width="379.11" height="201.779225251076" as="geometry" />
        </mxCell>
        <mxCell id="dhI3B1pzcQXHYzO1v27A-21" style="edgeStyle=orthogonalEdgeStyle;rounded=0;orthogonalLoop=1;jettySize=auto;html=1;exitX=1;exitY=0.5;exitDx=0;exitDy=0;entryX=0;entryY=0.5;entryDx=0;entryDy=0;" edge="1" parent="dhI3B1pzcQXHYzO1v27A-1" source="dhI3B1pzcQXHYzO1v27A-22" target="dhI3B1pzcQXHYzO1v27A-94">
          <mxGeometry relative="1" as="geometry" />
        </mxCell>
        <mxCell id="dhI3B1pzcQXHYzO1v27A-22" value="Assistant / Explainer" style="rounded=1;whiteSpace=wrap;html=1;fontSize=70;fontStyle=1" vertex="1" parent="dhI3B1pzcQXHYzO1v27A-1">
          <mxGeometry x="1847.5" y="3144.3636154949777" width="412.5" height="201.779225251076" as="geometry" />
        </mxCell>
        <mxCell id="dhI3B1pzcQXHYzO1v27A-23" value="&lt;font style=&quot;font-size: 100px;&quot;&gt;&lt;b style=&quot;&quot;&gt;LLM Role&lt;/b&gt;&lt;/font&gt;" style="text;html=1;align=center;verticalAlign=middle;resizable=0;points=[];autosize=1;strokeColor=none;fillColor=none;fontSize=40;" vertex="1" parent="dhI3B1pzcQXHYzO1v27A-1">
          <mxGeometry x="1157.4201837267196" y="1864.7533449361467" width="470" height="130" as="geometry" />
        </mxCell>
        <mxCell id="dhI3B1pzcQXHYzO1v27A-24" style="edgeStyle=orthogonalEdgeStyle;rounded=0;orthogonalLoop=1;jettySize=auto;html=1;exitX=1;exitY=0.5;exitDx=0;exitDy=0;entryX=0;entryY=0.5;entryDx=0;entryDy=0;fontSize=40;" edge="1" parent="dhI3B1pzcQXHYzO1v27A-1" source="dhI3B1pzcQXHYzO1v27A-5" target="dhI3B1pzcQXHYzO1v27A-27">
          <mxGeometry relative="1" as="geometry" />
        </mxCell>
        <mxCell id="dhI3B1pzcQXHYzO1v27A-25" style="edgeStyle=orthogonalEdgeStyle;rounded=0;orthogonalLoop=1;jettySize=auto;html=1;exitX=1;exitY=0.5;exitDx=0;exitDy=0;entryX=0;entryY=0.5;entryDx=0;entryDy=0;" edge="1" parent="dhI3B1pzcQXHYzO1v27A-1" source="dhI3B1pzcQXHYzO1v27A-26" target="dhI3B1pzcQXHYzO1v27A-98">
          <mxGeometry relative="1" as="geometry" />
        </mxCell>
        <mxCell id="dhI3B1pzcQXHYzO1v27A-26" value="LLM as Pre-processor" style="rounded=1;whiteSpace=wrap;html=1;fontSize=70;fontStyle=1" vertex="1" parent="dhI3B1pzcQXHYzO1v27A-1">
          <mxGeometry x="1788.66" y="3446.5732424677185" width="492.54" height="269.947618364419" as="geometry" />
        </mxCell>
        <mxCell id="dhI3B1pzcQXHYzO1v27A-27" value="LLM as Processor" style="rounded=1;whiteSpace=wrap;html=1;fontSize=70;fontStyle=1" vertex="1" parent="dhI3B1pzcQXHYzO1v27A-1">
          <mxGeometry x="1800.23" y="3875.8084218077465" width="499.77" height="218.59416068866565" as="geometry" />
        </mxCell>
        <mxCell id="dhI3B1pzcQXHYzO1v27A-28" style="edgeStyle=orthogonalEdgeStyle;rounded=0;orthogonalLoop=1;jettySize=auto;html=1;exitX=1;exitY=0.5;exitDx=0;exitDy=0;entryX=0;entryY=0.5;entryDx=0;entryDy=0;fontSize=40;" edge="1" parent="dhI3B1pzcQXHYzO1v27A-1" source="dhI3B1pzcQXHYzO1v27A-30" target="dhI3B1pzcQXHYzO1v27A-34">
          <mxGeometry relative="1" as="geometry" />
        </mxCell>
        <mxCell id="dhI3B1pzcQXHYzO1v27A-29" style="edgeStyle=orthogonalEdgeStyle;rounded=0;orthogonalLoop=1;jettySize=auto;html=1;exitX=1;exitY=0.5;exitDx=0;exitDy=0;entryX=0;entryY=0.5;entryDx=0;entryDy=0;fontSize=40;" edge="1" parent="dhI3B1pzcQXHYzO1v27A-1" source="dhI3B1pzcQXHYzO1v27A-30" target="dhI3B1pzcQXHYzO1v27A-36">
          <mxGeometry relative="1" as="geometry" />
        </mxCell>
        <mxCell id="dhI3B1pzcQXHYzO1v27A-30" value="LLM as Post-processor" style="rounded=1;whiteSpace=wrap;html=1;fontSize=70;fontStyle=1" vertex="1" parent="dhI3B1pzcQXHYzO1v27A-1">
          <mxGeometry x="1210" y="4338.077474892396" width="517.1" height="269.0389670014347" as="geometry" />
        </mxCell>
        <mxCell id="dhI3B1pzcQXHYzO1v27A-31" style="edgeStyle=orthogonalEdgeStyle;rounded=0;orthogonalLoop=1;jettySize=auto;html=1;exitX=1;exitY=0.5;exitDx=0;exitDy=0;entryX=0;entryY=0.5;entryDx=0;entryDy=0;fontSize=40;" edge="1" parent="dhI3B1pzcQXHYzO1v27A-1" source="dhI3B1pzcQXHYzO1v27A-5" target="dhI3B1pzcQXHYzO1v27A-26">
          <mxGeometry relative="1" as="geometry">
            <mxPoint x="1579.7488963567544" y="4102.804729928493" as="sourcePoint" />
          </mxGeometry>
        </mxCell>
        <mxCell id="dhI3B1pzcQXHYzO1v27A-32" style="edgeStyle=orthogonalEdgeStyle;rounded=0;orthogonalLoop=1;jettySize=auto;html=1;exitX=1;exitY=0.5;exitDx=0;exitDy=0;entryX=0;entryY=0.5;entryDx=0;entryDy=0;fontSize=40;" edge="1" parent="dhI3B1pzcQXHYzO1v27A-1" source="dhI3B1pzcQXHYzO1v27A-5" target="dhI3B1pzcQXHYzO1v27A-30">
          <mxGeometry relative="1" as="geometry">
            <mxPoint x="1579.7488963567544" y="4102.804729928493" as="sourcePoint" />
          </mxGeometry>
        </mxCell>
        <mxCell id="dhI3B1pzcQXHYzO1v27A-33" style="edgeStyle=orthogonalEdgeStyle;rounded=0;orthogonalLoop=1;jettySize=auto;html=1;exitX=1;exitY=0.5;exitDx=0;exitDy=0;entryX=0;entryY=0.5;entryDx=0;entryDy=0;" edge="1" parent="dhI3B1pzcQXHYzO1v27A-1" source="dhI3B1pzcQXHYzO1v27A-34" target="dhI3B1pzcQXHYzO1v27A-106">
          <mxGeometry relative="1" as="geometry" />
        </mxCell>
        <mxCell id="dhI3B1pzcQXHYzO1v27A-34" value="Judge / Evaluator" style="rounded=1;whiteSpace=wrap;html=1;fontSize=70;fontStyle=1" vertex="1" parent="dhI3B1pzcQXHYzO1v27A-1">
          <mxGeometry x="1844.16" y="4153.249971305596" width="505.84" height="201.779225251076" as="geometry" />
        </mxCell>
        <mxCell id="dhI3B1pzcQXHYzO1v27A-35" style="edgeStyle=orthogonalEdgeStyle;rounded=0;orthogonalLoop=1;jettySize=auto;html=1;exitX=1;exitY=0.5;exitDx=0;exitDy=0;entryX=0;entryY=0.5;entryDx=0;entryDy=0;" edge="1" parent="dhI3B1pzcQXHYzO1v27A-1" source="dhI3B1pzcQXHYzO1v27A-36" target="dhI3B1pzcQXHYzO1v27A-110">
          <mxGeometry relative="1" as="geometry" />
        </mxCell>
        <mxCell id="dhI3B1pzcQXHYzO1v27A-36" value="Assistant / Explainer" style="rounded=1;whiteSpace=wrap;html=1;fontSize=70;fontStyle=1" vertex="1" parent="dhI3B1pzcQXHYzO1v27A-1">
          <mxGeometry x="1867.58" y="4489.548680057389" width="492.42" height="201.779225251076" as="geometry" />
        </mxCell>
        <mxCell id="dhI3B1pzcQXHYzO1v27A-77" value="Assets" style="childLayout=tableLayout;recursiveResize=0;strokeColor=#98bf21;fillColor=#A7C942;shadow=1;" vertex="1" parent="dhI3B1pzcQXHYzO1v27A-1">
          <mxGeometry x="2570.4388822076007" y="1731.9216687812893" width="1660.0751114257425" height="4371.841105661506" as="geometry" />
        </mxCell>
        <mxCell id="dhI3B1pzcQXHYzO1v27A-78" style="shape=tableRow;horizontal=0;startSize=0;swimlaneHead=0;swimlaneBody=0;top=0;left=0;bottom=0;right=0;dropTarget=0;collapsible=0;recursiveResize=0;expand=0;fontStyle=0;strokeColor=inherit;fillColor=#ffffff;" vertex="1" parent="dhI3B1pzcQXHYzO1v27A-77">
          <mxGeometry width="1660.0751114257425" height="285" as="geometry" />
        </mxCell>
        <mxCell id="dhI3B1pzcQXHYzO1v27A-79" value="&lt;font style=&quot;font-size: 70px;&quot;&gt;&lt;span style=&quot;color: rgb(255, 255, 255); text-wrap-mode: wrap;&quot;&gt;Secure&lt;/span&gt;&lt;br style=&quot;color: rgb(255, 255, 255); text-wrap-mode: wrap;&quot;&gt;&lt;span style=&quot;color: rgb(255, 255, 255); text-wrap-mode: wrap;&quot;&gt;Code Generation&lt;/span&gt;&lt;/font&gt;" style="connectable=0;recursiveResize=0;strokeColor=inherit;fillColor=light-dark(#A7C942,#FFFFFF);align=center;fontStyle=1;fontColor=#FFFFFF;html=1;" vertex="1" parent="dhI3B1pzcQXHYzO1v27A-78">
          <mxGeometry width="655" height="285" as="geometry">
            <mxRectangle width="655" height="285" as="alternateBounds" />
          </mxGeometry>
        </mxCell>
        <mxCell id="dhI3B1pzcQXHYzO1v27A-80" value="&lt;font style=&quot;font-size: 70px;&quot;&gt;&lt;span style=&quot;color: rgb(255, 255, 255); text-wrap-mode: wrap;&quot;&gt;Secure&lt;/span&gt;&lt;br style=&quot;color: rgb(255, 255, 255); text-wrap-mode: wrap;&quot;&gt;&lt;span style=&quot;color: rgb(255, 255, 255); text-wrap-mode: wrap;&quot;&gt;Requirements Elicitation&lt;/span&gt;&lt;/font&gt;" style="connectable=0;recursiveResize=0;strokeColor=inherit;fillColor=light-dark(#A7C942,#FFFFFF);align=center;fontStyle=1;fontColor=#FFFFFF;html=1;" vertex="1" parent="dhI3B1pzcQXHYzO1v27A-78">
          <mxGeometry x="655" width="522" height="285" as="geometry">
            <mxRectangle width="522" height="285" as="alternateBounds" />
          </mxGeometry>
        </mxCell>
        <mxCell id="dhI3B1pzcQXHYzO1v27A-81" value="&lt;span style=&quot;color: rgb(255, 255, 255); text-wrap-mode: wrap;&quot;&gt;&lt;font style=&quot;font-size: 70px;&quot;&gt;Vulnerability Detection&lt;/font&gt;&lt;/span&gt;" style="connectable=0;recursiveResize=0;strokeColor=inherit;fillColor=light-dark(#A7C942,#FFFFFF);align=center;fontStyle=1;fontColor=#FFFFFF;html=1;" vertex="1" parent="dhI3B1pzcQXHYzO1v27A-78">
          <mxGeometry x="1177" width="483" height="285" as="geometry">
            <mxRectangle width="483" height="285" as="alternateBounds" />
          </mxGeometry>
        </mxCell>
        <mxCell id="dhI3B1pzcQXHYzO1v27A-82" value="" style="shape=tableRow;horizontal=0;startSize=0;swimlaneHead=0;swimlaneBody=0;top=0;left=0;bottom=0;right=0;dropTarget=0;collapsible=0;recursiveResize=0;expand=0;fontStyle=0;strokeColor=inherit;fillColor=#ffffff;" vertex="1" parent="dhI3B1pzcQXHYzO1v27A-77">
          <mxGeometry y="285" width="1660.0751114257425" height="388" as="geometry" />
        </mxCell>
        <mxCell id="dhI3B1pzcQXHYzO1v27A-83" value="&lt;span style=&quot;font-size: 200px;&quot;&gt;17&lt;/span&gt;" style="connectable=0;recursiveResize=0;align=center;whiteSpace=wrap;html=1;fontSize=30;labelBackgroundColor=none;fillColor=light-dark(#60A917,#006600);fontColor=light-dark(#000000,#FFFFFF);strokeColor=default;verticalAlign=middle;fontFamily=Helvetica;" vertex="1" parent="dhI3B1pzcQXHYzO1v27A-82">
          <mxGeometry width="655" height="388" as="geometry">
            <mxRectangle width="655" height="388" as="alternateBounds" />
          </mxGeometry>
        </mxCell>
        <mxCell id="dhI3B1pzcQXHYzO1v27A-84" value="&lt;span style=&quot;font-size: 200px;&quot;&gt;&lt;font style=&quot;color: light-dark(rgb(0, 0, 0), rgb(0, 0, 0));&quot;&gt;03&lt;/font&gt;&lt;/span&gt;" style="connectable=0;recursiveResize=0;strokeColor=default;fillColor=light-dark(#FFFFFF,#CCFFCC);align=center;whiteSpace=wrap;html=1;fontSize=30;verticalAlign=middle;fontFamily=Helvetica;fontColor=default;" vertex="1" parent="dhI3B1pzcQXHYzO1v27A-82">
          <mxGeometry x="655" width="522" height="388" as="geometry">
            <mxRectangle width="522" height="388" as="alternateBounds" />
          </mxGeometry>
        </mxCell>
        <mxCell id="dhI3B1pzcQXHYzO1v27A-85" value="&lt;span style=&quot;font-size: 200px;&quot;&gt;09&lt;/span&gt;" style="connectable=0;recursiveResize=0;strokeColor=default;fillColor=light-dark(#FFFFFF,#99FF99);align=center;whiteSpace=wrap;html=1;fontSize=30;verticalAlign=middle;fontFamily=Helvetica;fontColor=light-dark(#000000,#000000);" vertex="1" parent="dhI3B1pzcQXHYzO1v27A-82">
          <mxGeometry x="1177" width="483" height="388" as="geometry">
            <mxRectangle width="483" height="388" as="alternateBounds" />
          </mxGeometry>
        </mxCell>
        <mxCell id="dhI3B1pzcQXHYzO1v27A-86" value="" style="shape=tableRow;horizontal=0;startSize=0;swimlaneHead=0;swimlaneBody=0;top=0;left=0;bottom=0;right=0;dropTarget=0;collapsible=0;recursiveResize=0;expand=0;fontStyle=1;strokeColor=inherit;fillColor=#EAF2D3;" vertex="1" parent="dhI3B1pzcQXHYzO1v27A-77">
          <mxGeometry y="673" width="1660.0751114257425" height="334" as="geometry" />
        </mxCell>
        <mxCell id="dhI3B1pzcQXHYzO1v27A-87" value="&lt;span style=&quot;font-size: 200px;&quot;&gt;20&lt;/span&gt;" style="connectable=0;recursiveResize=0;whiteSpace=wrap;html=1;fontSize=30;fillColor=light-dark(#60A917,#006600);" vertex="1" parent="dhI3B1pzcQXHYzO1v27A-86">
          <mxGeometry width="655" height="334" as="geometry">
            <mxRectangle width="655" height="334" as="alternateBounds" />
          </mxGeometry>
        </mxCell>
        <mxCell id="dhI3B1pzcQXHYzO1v27A-88" value="&lt;span style=&quot;font-size: 200px;&quot;&gt;01&lt;/span&gt;" style="connectable=0;recursiveResize=0;strokeColor=default;fillColor=light-dark(#FFFFFF,#CCFFCC);whiteSpace=wrap;html=1;fontSize=30;align=center;verticalAlign=middle;fontFamily=Helvetica;fontColor=light-dark(#000000,#000000);" vertex="1" parent="dhI3B1pzcQXHYzO1v27A-86">
          <mxGeometry x="655" width="522" height="334" as="geometry">
            <mxRectangle width="522" height="334" as="alternateBounds" />
          </mxGeometry>
        </mxCell>
        <mxCell id="dhI3B1pzcQXHYzO1v27A-89" value="&lt;span style=&quot;font-size: 200px;&quot;&gt;15&lt;/span&gt;" style="connectable=0;recursiveResize=0;whiteSpace=wrap;html=1;fontSize=30;fillColor=light-dark(#FFFFFF,#33FF33);fontColor=light-dark(#000000,#000000);" vertex="1" parent="dhI3B1pzcQXHYzO1v27A-86">
          <mxGeometry x="1177" width="483" height="334" as="geometry">
            <mxRectangle width="483" height="334" as="alternateBounds" />
          </mxGeometry>
        </mxCell>
        <mxCell id="dhI3B1pzcQXHYzO1v27A-90" value="" style="shape=tableRow;horizontal=0;startSize=0;swimlaneHead=0;swimlaneBody=0;top=0;left=0;bottom=0;right=0;dropTarget=0;collapsible=0;recursiveResize=0;expand=0;fontStyle=0;strokeColor=inherit;fillColor=#ffffff;" vertex="1" parent="dhI3B1pzcQXHYzO1v27A-77">
          <mxGeometry y="1007" width="1660.0751114257425" height="339" as="geometry" />
        </mxCell>
        <mxCell id="dhI3B1pzcQXHYzO1v27A-91" value="&lt;span style=&quot;font-size: 200px;&quot;&gt;&lt;font style=&quot;color: light-dark(rgb(0, 0, 0), rgb(0, 0, 0));&quot;&gt;0&lt;/font&gt;&lt;/span&gt;" style="connectable=0;recursiveResize=0;fontStyle=0;align=center;whiteSpace=wrap;html=1;fontSize=30;fillColor=light-dark(#FFFFFF,#FFFFFF);" vertex="1" parent="dhI3B1pzcQXHYzO1v27A-90">
          <mxGeometry width="655" height="339" as="geometry">
            <mxRectangle width="655" height="339" as="alternateBounds" />
          </mxGeometry>
        </mxCell>
        <mxCell id="dhI3B1pzcQXHYzO1v27A-92" value="&lt;span style=&quot;font-size: 200px;&quot;&gt;&lt;font style=&quot;color: light-dark(rgb(0, 0, 0), rgb(0, 0, 0));&quot;&gt;0&lt;/font&gt;&lt;/span&gt;" style="connectable=0;recursiveResize=0;fontStyle=0;align=center;whiteSpace=wrap;html=1;fontSize=30;fillColor=light-dark(#FFFFFF,#FFFFFF);" vertex="1" parent="dhI3B1pzcQXHYzO1v27A-90">
          <mxGeometry x="655" width="522" height="339" as="geometry">
            <mxRectangle width="522" height="339" as="alternateBounds" />
          </mxGeometry>
        </mxCell>
        <mxCell id="dhI3B1pzcQXHYzO1v27A-93" value="&lt;span style=&quot;font-size: 200px;&quot;&gt;14&lt;/span&gt;" style="connectable=0;recursiveResize=0;strokeColor=default;fillColor=light-dark(#FFFFFF,#33FF33);fontStyle=0;align=center;whiteSpace=wrap;html=1;fontSize=30;verticalAlign=middle;fontFamily=Helvetica;fontColor=light-dark(#000000,#000000);" vertex="1" parent="dhI3B1pzcQXHYzO1v27A-90">
          <mxGeometry x="1177" width="483" height="339" as="geometry">
            <mxRectangle width="483" height="339" as="alternateBounds" />
          </mxGeometry>
        </mxCell>
        <mxCell id="dhI3B1pzcQXHYzO1v27A-94" value="" style="shape=tableRow;horizontal=0;startSize=0;swimlaneHead=0;swimlaneBody=0;top=0;left=0;bottom=0;right=0;dropTarget=0;collapsible=0;recursiveResize=0;expand=0;fontStyle=1;strokeColor=inherit;fillColor=#EAF2D3;" vertex="1" parent="dhI3B1pzcQXHYzO1v27A-77">
          <mxGeometry y="1346" width="1660.0751114257425" height="333" as="geometry" />
        </mxCell>
        <mxCell id="dhI3B1pzcQXHYzO1v27A-95" value="&lt;span style=&quot;font-size: 200px;&quot;&gt;&lt;font style=&quot;color: light-dark(rgb(0, 0, 0), rgb(0, 0, 0));&quot;&gt;04&lt;/font&gt;&lt;/span&gt;" style="connectable=0;recursiveResize=0;whiteSpace=wrap;html=1;fontSize=30;fillColor=light-dark(#FFFFFF,#99FF99);" vertex="1" parent="dhI3B1pzcQXHYzO1v27A-94">
          <mxGeometry width="655" height="333" as="geometry">
            <mxRectangle width="655" height="333" as="alternateBounds" />
          </mxGeometry>
        </mxCell>
        <mxCell id="dhI3B1pzcQXHYzO1v27A-96" value="&lt;span style=&quot;font-size: 200px;&quot;&gt;02&lt;/span&gt;" style="connectable=0;recursiveResize=0;strokeColor=default;fillColor=light-dark(#FFFFFF,#CCFFCC);whiteSpace=wrap;html=1;fontSize=30;align=center;verticalAlign=middle;fontFamily=Helvetica;fontColor=light-dark(#000000,#000000);" vertex="1" parent="dhI3B1pzcQXHYzO1v27A-94">
          <mxGeometry x="655" width="522" height="333" as="geometry">
            <mxRectangle width="522" height="333" as="alternateBounds" />
          </mxGeometry>
        </mxCell>
        <mxCell id="dhI3B1pzcQXHYzO1v27A-97" value="&lt;span style=&quot;font-size: 200px;&quot;&gt;01&lt;/span&gt;" style="connectable=0;recursiveResize=0;strokeColor=default;fillColor=light-dark(#FFFFFF,#CCFFCC);whiteSpace=wrap;html=1;fontSize=30;align=center;verticalAlign=middle;fontFamily=Helvetica;fontColor=light-dark(#000000,#000000);" vertex="1" parent="dhI3B1pzcQXHYzO1v27A-94">
          <mxGeometry x="1177" width="483" height="333" as="geometry">
            <mxRectangle width="483" height="333" as="alternateBounds" />
          </mxGeometry>
        </mxCell>
        <mxCell id="dhI3B1pzcQXHYzO1v27A-98" value="" style="shape=tableRow;horizontal=0;startSize=0;swimlaneHead=0;swimlaneBody=0;top=0;left=0;bottom=0;right=0;dropTarget=0;collapsible=0;recursiveResize=0;expand=0;fontStyle=1;strokeColor=inherit;fillColor=#EAF2D3;" vertex="1" parent="dhI3B1pzcQXHYzO1v27A-77">
          <mxGeometry y="1679" width="1660.0751114257425" height="338" as="geometry" />
        </mxCell>
        <mxCell id="dhI3B1pzcQXHYzO1v27A-99" value="&lt;span style=&quot;font-size: 200px;&quot;&gt;&lt;font style=&quot;color: light-dark(rgb(0, 0, 0), rgb(0, 0, 0));&quot;&gt;01&lt;/font&gt;&lt;/span&gt;" style="connectable=0;recursiveResize=0;whiteSpace=wrap;html=1;fontSize=30;fillColor=light-dark(#FFFFFF,#CCFFCC);" vertex="1" parent="dhI3B1pzcQXHYzO1v27A-98">
          <mxGeometry width="655" height="338" as="geometry">
            <mxRectangle width="655" height="338" as="alternateBounds" />
          </mxGeometry>
        </mxCell>
        <mxCell id="dhI3B1pzcQXHYzO1v27A-100" value="&lt;div&gt;&lt;span style=&quot;font-size: 200px;&quot;&gt;01&lt;/span&gt;&lt;/div&gt;" style="connectable=0;recursiveResize=0;whiteSpace=wrap;html=1;fontSize=30;strokeColor=default;align=center;verticalAlign=middle;fontFamily=Helvetica;fontColor=light-dark(#000000,#000000);fillColor=light-dark(#FFFFFF,#CCFFCC);" vertex="1" parent="dhI3B1pzcQXHYzO1v27A-98">
          <mxGeometry x="655" width="522" height="338" as="geometry">
            <mxRectangle width="522" height="338" as="alternateBounds" />
          </mxGeometry>
        </mxCell>
        <mxCell id="dhI3B1pzcQXHYzO1v27A-101" value="&lt;span style=&quot;font-size: 200px;&quot;&gt;03&lt;/span&gt;" style="connectable=0;recursiveResize=0;whiteSpace=wrap;html=1;fontSize=30;strokeColor=default;align=center;verticalAlign=middle;fontFamily=Helvetica;fontColor=light-dark(#000000,#000000);fillColor=light-dark(#FFFFFF,#CCFFCC);" vertex="1" parent="dhI3B1pzcQXHYzO1v27A-98">
          <mxGeometry x="1177" width="483" height="338" as="geometry">
            <mxRectangle width="483" height="338" as="alternateBounds" />
          </mxGeometry>
        </mxCell>
        <mxCell id="dhI3B1pzcQXHYzO1v27A-102" value="" style="shape=tableRow;horizontal=0;startSize=0;swimlaneHead=0;swimlaneBody=0;top=0;left=0;bottom=0;right=0;dropTarget=0;collapsible=0;recursiveResize=0;expand=0;fontStyle=1;strokeColor=inherit;fillColor=#EAF2D3;" vertex="1" parent="dhI3B1pzcQXHYzO1v27A-77">
          <mxGeometry y="2017" width="1660.0751114257425" height="335" as="geometry" />
        </mxCell>
        <mxCell id="dhI3B1pzcQXHYzO1v27A-103" value="&lt;span style=&quot;font-size: 200px;&quot;&gt;&lt;font style=&quot;color: light-dark(rgb(0, 0, 0), rgb(0, 0, 0));&quot;&gt;13&lt;/font&gt;&lt;/span&gt;" style="connectable=0;recursiveResize=0;whiteSpace=wrap;html=1;fontSize=30;fillColor=light-dark(#FFFFFF,#5EFF5E);" vertex="1" parent="dhI3B1pzcQXHYzO1v27A-102">
          <mxGeometry width="655" height="335" as="geometry">
            <mxRectangle width="655" height="335" as="alternateBounds" />
          </mxGeometry>
        </mxCell>
        <mxCell id="dhI3B1pzcQXHYzO1v27A-104" value="&lt;div&gt;&lt;span style=&quot;font-size: 200px;&quot;&gt;0&lt;/span&gt;&lt;/div&gt;" style="connectable=0;recursiveResize=0;strokeColor=default;fillColor=light-dark(#FFFFFF,#FFFFFF);whiteSpace=wrap;html=1;fontSize=30;align=center;verticalAlign=middle;fontFamily=Helvetica;fontColor=light-dark(#000000,#000000);fontStyle=0;" vertex="1" parent="dhI3B1pzcQXHYzO1v27A-102">
          <mxGeometry x="655" width="522" height="335" as="geometry">
            <mxRectangle width="522" height="335" as="alternateBounds" />
          </mxGeometry>
        </mxCell>
        <mxCell id="dhI3B1pzcQXHYzO1v27A-105" value="&lt;span style=&quot;font-size: 200px;&quot;&gt;07&lt;/span&gt;" style="connectable=0;recursiveResize=0;strokeColor=default;fillColor=light-dark(#FFFFFF,#99FF99);whiteSpace=wrap;html=1;fontSize=30;align=center;verticalAlign=middle;fontFamily=Helvetica;fontColor=light-dark(#000000,#000000);" vertex="1" parent="dhI3B1pzcQXHYzO1v27A-102">
          <mxGeometry x="1177" width="483" height="335" as="geometry">
            <mxRectangle width="483" height="335" as="alternateBounds" />
          </mxGeometry>
        </mxCell>
        <mxCell id="dhI3B1pzcQXHYzO1v27A-106" value="" style="shape=tableRow;horizontal=0;startSize=0;swimlaneHead=0;swimlaneBody=0;top=0;left=0;bottom=0;right=0;dropTarget=0;collapsible=0;recursiveResize=0;expand=0;fontStyle=1;strokeColor=inherit;fillColor=#EAF2D3;" vertex="1" parent="dhI3B1pzcQXHYzO1v27A-77">
          <mxGeometry y="2352" width="1660.0751114257425" height="338" as="geometry" />
        </mxCell>
        <mxCell id="dhI3B1pzcQXHYzO1v27A-107" value="&lt;div&gt;&lt;span style=&quot;font-size: 200px;&quot;&gt;&lt;font style=&quot;color: light-dark(rgb(0, 0, 0), rgb(0, 0, 0));&quot;&gt;06&lt;/font&gt;&lt;/span&gt;&lt;/div&gt;" style="connectable=0;recursiveResize=0;whiteSpace=wrap;html=1;fontSize=30;fillColor=light-dark(#FFFFFF,#99FF99);" vertex="1" parent="dhI3B1pzcQXHYzO1v27A-106">
          <mxGeometry width="655" height="338" as="geometry">
            <mxRectangle width="655" height="338" as="alternateBounds" />
          </mxGeometry>
        </mxCell>
        <mxCell id="dhI3B1pzcQXHYzO1v27A-108" value="&lt;div&gt;&lt;span style=&quot;font-size: 200px;&quot;&gt;0&lt;/span&gt;&lt;/div&gt;" style="connectable=0;recursiveResize=0;whiteSpace=wrap;html=1;fontSize=30;strokeColor=default;align=center;verticalAlign=middle;fontFamily=Helvetica;fontColor=light-dark(#000000,#000000);fillColor=light-dark(#FFFFFF,#FFFFFF);fontStyle=0;" vertex="1" parent="dhI3B1pzcQXHYzO1v27A-106">
          <mxGeometry x="655" width="522" height="338" as="geometry">
            <mxRectangle width="522" height="338" as="alternateBounds" />
          </mxGeometry>
        </mxCell>
        <mxCell id="dhI3B1pzcQXHYzO1v27A-109" value="&lt;span style=&quot;font-size: 200px;&quot;&gt;03&lt;/span&gt;" style="connectable=0;recursiveResize=0;whiteSpace=wrap;html=1;fontSize=30;strokeColor=default;align=center;verticalAlign=middle;fontFamily=Helvetica;fontColor=light-dark(#000000,#000000);fillColor=light-dark(#FFFFFF,#CCFFCC);" vertex="1" parent="dhI3B1pzcQXHYzO1v27A-106">
          <mxGeometry x="1177" width="483" height="338" as="geometry">
            <mxRectangle width="483" height="338" as="alternateBounds" />
          </mxGeometry>
        </mxCell>
        <mxCell id="dhI3B1pzcQXHYzO1v27A-110" value="" style="shape=tableRow;horizontal=0;startSize=0;swimlaneHead=0;swimlaneBody=0;top=0;left=0;bottom=0;right=0;dropTarget=0;collapsible=0;recursiveResize=0;expand=0;fontStyle=1;strokeColor=inherit;fillColor=#EAF2D3;" vertex="1" parent="dhI3B1pzcQXHYzO1v27A-77">
          <mxGeometry y="2690" width="1660.0751114257425" height="336" as="geometry" />
        </mxCell>
        <mxCell id="dhI3B1pzcQXHYzO1v27A-111" value="&lt;span style=&quot;font-size: 200px;&quot;&gt;&lt;font style=&quot;color: light-dark(rgb(0, 0, 0), rgb(0, 0, 0));&quot;&gt;01&lt;/font&gt;&lt;/span&gt;" style="connectable=0;recursiveResize=0;whiteSpace=wrap;html=1;fontSize=30;fillColor=light-dark(#FFFFFF,#CCFFCC);" vertex="1" parent="dhI3B1pzcQXHYzO1v27A-110">
          <mxGeometry width="655" height="336" as="geometry">
            <mxRectangle width="655" height="336" as="alternateBounds" />
          </mxGeometry>
        </mxCell>
        <mxCell id="dhI3B1pzcQXHYzO1v27A-112" value="&lt;div&gt;&lt;span style=&quot;font-size: 200px;&quot;&gt;0&lt;/span&gt;&lt;/div&gt;" style="connectable=0;recursiveResize=0;strokeColor=default;fillColor=light-dark(#FFFFFF,#FFFFFF);whiteSpace=wrap;html=1;fontSize=30;align=center;verticalAlign=middle;fontFamily=Helvetica;fontColor=light-dark(#000000,#000000);fontStyle=0;" vertex="1" parent="dhI3B1pzcQXHYzO1v27A-110">
          <mxGeometry x="655" width="522" height="336" as="geometry">
            <mxRectangle width="522" height="336" as="alternateBounds" />
          </mxGeometry>
        </mxCell>
        <mxCell id="dhI3B1pzcQXHYzO1v27A-113" value="&lt;span style=&quot;font-size: 200px;&quot;&gt;02&lt;/span&gt;" style="connectable=0;recursiveResize=0;strokeColor=default;fillColor=light-dark(#FFFFFF,#CCFFCC);whiteSpace=wrap;html=1;fontSize=30;align=center;verticalAlign=middle;fontFamily=Helvetica;fontColor=light-dark(#000000,#000000);" vertex="1" parent="dhI3B1pzcQXHYzO1v27A-110">
          <mxGeometry x="1177" width="483" height="336" as="geometry">
            <mxRectangle width="483" height="336" as="alternateBounds" />
          </mxGeometry>
        </mxCell>
        <mxCell id="dhI3B1pzcQXHYzO1v27A-114" value="" style="shape=tableRow;horizontal=0;startSize=0;swimlaneHead=0;swimlaneBody=0;top=0;left=0;bottom=0;right=0;dropTarget=0;collapsible=0;recursiveResize=0;expand=0;fontStyle=1;strokeColor=inherit;fillColor=#EAF2D3;" vertex="1" parent="dhI3B1pzcQXHYzO1v27A-77">
          <mxGeometry y="3026" width="1660.0751114257425" height="337" as="geometry" />
        </mxCell>
        <mxCell id="dhI3B1pzcQXHYzO1v27A-115" value="&lt;div&gt;&lt;span style=&quot;font-size: 200px;&quot;&gt;&lt;font style=&quot;color: light-dark(rgb(0, 0, 0), rgb(0, 0, 0));&quot;&gt;03&lt;/font&gt;&lt;/span&gt;&lt;/div&gt;" style="connectable=0;recursiveResize=0;whiteSpace=wrap;html=1;fontSize=30;strokeColor=default;align=center;verticalAlign=middle;fontFamily=Helvetica;fontColor=default;fillColor=light-dark(#FFFFFF,#CCFFCC);" vertex="1" parent="dhI3B1pzcQXHYzO1v27A-114">
          <mxGeometry width="655" height="337" as="geometry">
            <mxRectangle width="655" height="337" as="alternateBounds" />
          </mxGeometry>
        </mxCell>
        <mxCell id="dhI3B1pzcQXHYzO1v27A-116" value="&lt;div&gt;&lt;span style=&quot;font-size: 200px;&quot;&gt;0&lt;/span&gt;&lt;/div&gt;" style="connectable=0;recursiveResize=0;whiteSpace=wrap;html=1;fontSize=30;strokeColor=default;align=center;verticalAlign=middle;fontFamily=Helvetica;fontColor=light-dark(#000000,#000000);fillColor=light-dark(#FFFFFF,#FFFFFF);fontStyle=0;" vertex="1" parent="dhI3B1pzcQXHYzO1v27A-114">
          <mxGeometry x="655" width="522" height="337" as="geometry">
            <mxRectangle width="522" height="337" as="alternateBounds" />
          </mxGeometry>
        </mxCell>
        <mxCell id="dhI3B1pzcQXHYzO1v27A-117" value="&lt;span style=&quot;font-size: 200px;&quot;&gt;0&lt;/span&gt;" style="connectable=0;recursiveResize=0;whiteSpace=wrap;html=1;fontSize=30;strokeColor=default;align=center;verticalAlign=middle;fontFamily=Helvetica;fontColor=light-dark(#000000,#000000);fillColor=light-dark(#FFFFFF,#FFFFFF);fontStyle=0;" vertex="1" parent="dhI3B1pzcQXHYzO1v27A-114">
          <mxGeometry x="1177" width="483" height="337" as="geometry">
            <mxRectangle width="483" height="337" as="alternateBounds" />
          </mxGeometry>
        </mxCell>
        <mxCell id="dhI3B1pzcQXHYzO1v27A-118" value="" style="shape=tableRow;horizontal=0;startSize=0;swimlaneHead=0;swimlaneBody=0;top=0;left=0;bottom=0;right=0;dropTarget=0;collapsible=0;recursiveResize=0;expand=0;fontStyle=1;strokeColor=inherit;fillColor=#EAF2D3;" vertex="1" parent="dhI3B1pzcQXHYzO1v27A-77">
          <mxGeometry y="3363" width="1660.0751114257425" height="334" as="geometry" />
        </mxCell>
        <mxCell id="dhI3B1pzcQXHYzO1v27A-119" value="&lt;span style=&quot;font-size: 200px;&quot;&gt;05&lt;/span&gt;" style="connectable=0;recursiveResize=0;strokeColor=default;fillColor=light-dark(#FFFFFF,#CCFFCC);whiteSpace=wrap;html=1;fontSize=30;align=center;verticalAlign=middle;fontFamily=Helvetica;fontColor=light-dark(#000000,#000000);" vertex="1" parent="dhI3B1pzcQXHYzO1v27A-118">
          <mxGeometry width="655" height="334" as="geometry">
            <mxRectangle width="655" height="334" as="alternateBounds" />
          </mxGeometry>
        </mxCell>
        <mxCell id="dhI3B1pzcQXHYzO1v27A-120" value="&lt;div&gt;&lt;span style=&quot;font-size: 200px;&quot;&gt;03&lt;/span&gt;&lt;/div&gt;" style="connectable=0;recursiveResize=0;strokeColor=default;fillColor=light-dark(#FFFFFF,#CCFFCC);whiteSpace=wrap;html=1;fontSize=30;align=center;verticalAlign=middle;fontFamily=Helvetica;fontColor=light-dark(#000000,#000000);" vertex="1" parent="dhI3B1pzcQXHYzO1v27A-118">
          <mxGeometry x="655" width="522" height="334" as="geometry">
            <mxRectangle width="522" height="334" as="alternateBounds" />
          </mxGeometry>
        </mxCell>
        <mxCell id="dhI3B1pzcQXHYzO1v27A-121" value="&lt;span style=&quot;font-size: 200px;&quot;&gt;01&lt;/span&gt;" style="connectable=0;recursiveResize=0;strokeColor=default;fillColor=light-dark(#FFFFFF,#CCFFCC);whiteSpace=wrap;html=1;fontSize=30;align=center;verticalAlign=middle;fontFamily=Helvetica;fontColor=light-dark(#000000,#000000);" vertex="1" parent="dhI3B1pzcQXHYzO1v27A-118">
          <mxGeometry x="1177" width="483" height="334" as="geometry">
            <mxRectangle width="483" height="334" as="alternateBounds" />
          </mxGeometry>
        </mxCell>
        <mxCell id="dhI3B1pzcQXHYzO1v27A-122" value="" style="shape=tableRow;horizontal=0;startSize=0;swimlaneHead=0;swimlaneBody=0;top=0;left=0;bottom=0;right=0;dropTarget=0;collapsible=0;recursiveResize=0;expand=0;fontStyle=1;strokeColor=inherit;fillColor=#EAF2D3;" vertex="1" parent="dhI3B1pzcQXHYzO1v27A-77">
          <mxGeometry y="3697" width="1660.0751114257425" height="340" as="geometry" />
        </mxCell>
        <mxCell id="dhI3B1pzcQXHYzO1v27A-123" value="&lt;div&gt;&lt;span style=&quot;font-size: 200px;&quot;&gt;0&lt;/span&gt;&lt;/div&gt;" style="connectable=0;recursiveResize=0;whiteSpace=wrap;html=1;fontSize=30;strokeColor=default;align=center;verticalAlign=middle;fontFamily=Helvetica;fontColor=light-dark(#000000,#000000);fillColor=light-dark(#FFFFFF,#FFFFFF);fontStyle=0;" vertex="1" parent="dhI3B1pzcQXHYzO1v27A-122">
          <mxGeometry width="655" height="340" as="geometry">
            <mxRectangle width="655" height="340" as="alternateBounds" />
          </mxGeometry>
        </mxCell>
        <mxCell id="dhI3B1pzcQXHYzO1v27A-124" value="&lt;div&gt;&lt;span style=&quot;font-size: 200px;&quot;&gt;0&lt;/span&gt;&lt;/div&gt;" style="connectable=0;recursiveResize=0;whiteSpace=wrap;html=1;fontSize=30;strokeColor=default;align=center;verticalAlign=middle;fontFamily=Helvetica;fontColor=light-dark(#000000,#000000);fillColor=light-dark(#FFFFFF,#FFFFFF);fontStyle=0;" vertex="1" parent="dhI3B1pzcQXHYzO1v27A-122">
          <mxGeometry x="655" width="522" height="340" as="geometry">
            <mxRectangle width="522" height="340" as="alternateBounds" />
          </mxGeometry>
        </mxCell>
        <mxCell id="dhI3B1pzcQXHYzO1v27A-125" value="&lt;span style=&quot;font-size: 200px;&quot;&gt;0&lt;/span&gt;" style="connectable=0;recursiveResize=0;whiteSpace=wrap;html=1;fontSize=30;strokeColor=default;align=center;verticalAlign=middle;fontFamily=Helvetica;fontColor=light-dark(#000000,#000000);fillColor=light-dark(#FFFFFF,#FFFFFF);fontStyle=0;" vertex="1" parent="dhI3B1pzcQXHYzO1v27A-122">
          <mxGeometry x="1177" width="483" height="340" as="geometry">
            <mxRectangle width="483" height="340" as="alternateBounds" />
          </mxGeometry>
        </mxCell>
        <mxCell id="dhI3B1pzcQXHYzO1v27A-126" value="" style="shape=tableRow;horizontal=0;startSize=0;swimlaneHead=0;swimlaneBody=0;top=0;left=0;bottom=0;right=0;dropTarget=0;collapsible=0;recursiveResize=0;expand=0;fontStyle=1;strokeColor=inherit;fillColor=#EAF2D3;" vertex="1" parent="dhI3B1pzcQXHYzO1v27A-77">
          <mxGeometry y="4037" width="1660.0751114257425" height="335" as="geometry" />
        </mxCell>
        <mxCell id="dhI3B1pzcQXHYzO1v27A-127" value="&lt;div&gt;&lt;span style=&quot;font-size: 200px;&quot;&gt;0&lt;/span&gt;&lt;/div&gt;" style="connectable=0;recursiveResize=0;strokeColor=default;fillColor=light-dark(#FFFFFF,#FFFFFF);whiteSpace=wrap;html=1;fontSize=30;align=center;verticalAlign=middle;fontFamily=Helvetica;fontColor=light-dark(#000000,#000000);fontStyle=0;" vertex="1" parent="dhI3B1pzcQXHYzO1v27A-126">
          <mxGeometry width="655" height="335" as="geometry">
            <mxRectangle width="655" height="335" as="alternateBounds" />
          </mxGeometry>
        </mxCell>
        <mxCell id="dhI3B1pzcQXHYzO1v27A-128" value="&lt;div&gt;&lt;span style=&quot;font-size: 200px;&quot;&gt;0&lt;/span&gt;&lt;/div&gt;" style="connectable=0;recursiveResize=0;strokeColor=default;fillColor=light-dark(#FFFFFF,#FFFFFF);whiteSpace=wrap;html=1;fontSize=30;align=center;verticalAlign=middle;fontFamily=Helvetica;fontColor=light-dark(#000000,#000000);fontStyle=0;" vertex="1" parent="dhI3B1pzcQXHYzO1v27A-126">
          <mxGeometry x="655" width="522" height="335" as="geometry">
            <mxRectangle width="522" height="335" as="alternateBounds" />
          </mxGeometry>
        </mxCell>
        <mxCell id="dhI3B1pzcQXHYzO1v27A-129" value="&lt;span style=&quot;font-size: 200px;&quot;&gt;0&lt;/span&gt;" style="connectable=0;recursiveResize=0;strokeColor=default;fillColor=light-dark(#FFFFFF,#FFFFFF);whiteSpace=wrap;html=1;fontSize=30;align=center;verticalAlign=middle;fontFamily=Helvetica;fontColor=light-dark(#000000,#000000);fontStyle=0;" vertex="1" parent="dhI3B1pzcQXHYzO1v27A-126">
          <mxGeometry x="1177" width="483" height="335" as="geometry">
            <mxRectangle width="483" height="335" as="alternateBounds" />
          </mxGeometry>
        </mxCell>
        <mxCell id="dhI3B1pzcQXHYzO1v27A-130" style="edgeStyle=orthogonalEdgeStyle;rounded=0;orthogonalLoop=1;jettySize=auto;html=1;exitX=1;exitY=0.5;exitDx=0;exitDy=0;entryX=0.002;entryY=0.564;entryDx=0;entryDy=0;entryPerimeter=0;" edge="1" parent="dhI3B1pzcQXHYzO1v27A-1" source="dhI3B1pzcQXHYzO1v27A-11" target="dhI3B1pzcQXHYzO1v27A-82">
          <mxGeometry relative="1" as="geometry" />
        </mxCell>
        <mxCell id="dhI3B1pzcQXHYzO1v27A-131" style="edgeStyle=orthogonalEdgeStyle;rounded=0;orthogonalLoop=1;jettySize=auto;html=1;exitX=1;exitY=0.5;exitDx=0;exitDy=0;entryX=0;entryY=0.541;entryDx=0;entryDy=0;entryPerimeter=0;" edge="1" parent="dhI3B1pzcQXHYzO1v27A-1" source="dhI3B1pzcQXHYzO1v27A-27" target="dhI3B1pzcQXHYzO1v27A-102">
          <mxGeometry relative="1" as="geometry">
            <Array as="points">
              <mxPoint x="2570.4388822076007" y="3926.249608353699" />
            </Array>
          </mxGeometry>
        </mxCell>
        <mxCell id="dhI3B1pzcQXHYzO1v27A-132" value="Assets" style="childLayout=tableLayout;recursiveResize=0;strokeColor=#98bf21;fillColor=#A7C942;shadow=1;" vertex="1" parent="dhI3B1pzcQXHYzO1v27A-1">
          <mxGeometry x="4230.513993633343" y="1731.9216687812893" width="1499.4226812877669" height="4371.841105661509" as="geometry" />
        </mxCell>
        <mxCell id="dhI3B1pzcQXHYzO1v27A-133" style="shape=tableRow;horizontal=0;startSize=0;swimlaneHead=0;swimlaneBody=0;top=0;left=0;bottom=0;right=0;dropTarget=0;collapsible=0;recursiveResize=0;expand=0;fontStyle=0;strokeColor=inherit;fillColor=#ffffff;" vertex="1" parent="dhI3B1pzcQXHYzO1v27A-132">
          <mxGeometry width="1499.4226812877669" height="285" as="geometry" />
        </mxCell>
        <mxCell id="dhI3B1pzcQXHYzO1v27A-134" value="&lt;span style=&quot;color: rgb(255, 255, 255); text-wrap-mode: wrap;&quot;&gt;&lt;font style=&quot;font-size: 70px;&quot;&gt;Malware Detection&lt;/font&gt;&lt;/span&gt;" style="connectable=0;recursiveResize=0;strokeColor=inherit;fillColor=light-dark(#A7C942,#FFFFFF);align=center;fontStyle=1;fontColor=#FFFFFF;html=1;" vertex="1" parent="dhI3B1pzcQXHYzO1v27A-133">
          <mxGeometry width="483" height="285" as="geometry">
            <mxRectangle width="483" height="285" as="alternateBounds" />
          </mxGeometry>
        </mxCell>
        <mxCell id="dhI3B1pzcQXHYzO1v27A-135" value="&lt;span style=&quot;color: rgb(255, 255, 255); text-wrap-mode: wrap;&quot;&gt;&lt;font style=&quot;font-size: 70px;&quot;&gt;Anomaly&amp;nbsp;&lt;/font&gt;&lt;/span&gt;&lt;div style=&quot;color: rgb(255, 255, 255); text-wrap-mode: wrap;&quot;&gt;&lt;font style=&quot;font-size: 70px;&quot;&gt;Detection&lt;/font&gt;&lt;/div&gt;" style="connectable=0;recursiveResize=0;strokeColor=inherit;fillColor=light-dark(#A7C942,#FFFFFF);align=center;fontStyle=1;fontColor=#FFFFFF;html=1;" vertex="1" parent="dhI3B1pzcQXHYzO1v27A-133">
          <mxGeometry x="483" width="428" height="285" as="geometry">
            <mxRectangle width="428" height="285" as="alternateBounds" />
          </mxGeometry>
        </mxCell>
        <mxCell id="dhI3B1pzcQXHYzO1v27A-136" value="&lt;span style=&quot;color: rgb(255, 255, 255); text-wrap-mode: wrap;&quot;&gt;&lt;font style=&quot;font-size: 70px;&quot;&gt;Automated Patch Generation&lt;/font&gt;&lt;/span&gt;" style="connectable=0;recursiveResize=0;strokeColor=inherit;fillColor=light-dark(#A7C942,#FFFFFF);align=center;fontStyle=1;fontColor=#FFFFFF;html=1;" vertex="1" parent="dhI3B1pzcQXHYzO1v27A-133">
          <mxGeometry x="911" width="588" height="285" as="geometry">
            <mxRectangle width="588" height="285" as="alternateBounds" />
          </mxGeometry>
        </mxCell>
        <mxCell id="dhI3B1pzcQXHYzO1v27A-137" value="" style="shape=tableRow;horizontal=0;startSize=0;swimlaneHead=0;swimlaneBody=0;top=0;left=0;bottom=0;right=0;dropTarget=0;collapsible=0;recursiveResize=0;expand=0;fontStyle=0;strokeColor=inherit;fillColor=#ffffff;" vertex="1" parent="dhI3B1pzcQXHYzO1v27A-132">
          <mxGeometry y="285" width="1499.4226812877669" height="388" as="geometry" />
        </mxCell>
        <mxCell id="dhI3B1pzcQXHYzO1v27A-138" value="&lt;font style=&quot;color: light-dark(rgb(0, 0, 0), rgb(0, 0, 0));&quot;&gt;&lt;span style=&quot;font-size: 200px;&quot;&gt;0&lt;/span&gt;&lt;/font&gt;" style="connectable=0;recursiveResize=0;strokeColor=default;fillColor=light-dark(#FFFFFF,#FFFFFF);align=center;whiteSpace=wrap;html=1;fontSize=30;verticalAlign=middle;fontFamily=Helvetica;fontColor=default;fontStyle=0;" vertex="1" parent="dhI3B1pzcQXHYzO1v27A-137">
          <mxGeometry width="483" height="388" as="geometry">
            <mxRectangle width="483" height="388" as="alternateBounds" />
          </mxGeometry>
        </mxCell>
        <mxCell id="dhI3B1pzcQXHYzO1v27A-139" value="&lt;span style=&quot;font-size: 200px;&quot;&gt;0&lt;/span&gt;" style="connectable=0;recursiveResize=0;strokeColor=default;fillColor=light-dark(#FFFFFF,#FFFFFF);align=center;whiteSpace=wrap;html=1;fontSize=30;verticalAlign=middle;fontFamily=Helvetica;fontColor=light-dark(#000000,#000000);fontStyle=0;" vertex="1" parent="dhI3B1pzcQXHYzO1v27A-137">
          <mxGeometry x="483" width="428" height="388" as="geometry">
            <mxRectangle width="428" height="388" as="alternateBounds" />
          </mxGeometry>
        </mxCell>
        <mxCell id="dhI3B1pzcQXHYzO1v27A-140" value="&lt;span style=&quot;font-size: 200px;&quot;&gt;0&lt;/span&gt;" style="connectable=0;recursiveResize=0;strokeColor=default;fillColor=light-dark(#FFFFFF,#FFFFFF);align=center;whiteSpace=wrap;html=1;fontSize=30;verticalAlign=middle;fontFamily=Helvetica;fontColor=light-dark(#000000,#000000);fontStyle=0;" vertex="1" parent="dhI3B1pzcQXHYzO1v27A-137">
          <mxGeometry x="911" width="588" height="388" as="geometry">
            <mxRectangle width="588" height="388" as="alternateBounds" />
          </mxGeometry>
        </mxCell>
        <mxCell id="dhI3B1pzcQXHYzO1v27A-141" value="" style="shape=tableRow;horizontal=0;startSize=0;swimlaneHead=0;swimlaneBody=0;top=0;left=0;bottom=0;right=0;dropTarget=0;collapsible=0;recursiveResize=0;expand=0;fontStyle=1;strokeColor=inherit;fillColor=#EAF2D3;" vertex="1" parent="dhI3B1pzcQXHYzO1v27A-132">
          <mxGeometry y="673" width="1499.4226812877669" height="334" as="geometry" />
        </mxCell>
        <mxCell id="dhI3B1pzcQXHYzO1v27A-142" value="&lt;span style=&quot;font-size: 200px;&quot;&gt;02&lt;/span&gt;" style="connectable=0;recursiveResize=0;strokeColor=default;fillColor=light-dark(#FFFFFF,#CCFFCC);whiteSpace=wrap;html=1;fontSize=30;align=center;verticalAlign=middle;fontFamily=Helvetica;fontColor=light-dark(#000000,#000000);" vertex="1" parent="dhI3B1pzcQXHYzO1v27A-141">
          <mxGeometry width="483" height="334" as="geometry">
            <mxRectangle width="483" height="334" as="alternateBounds" />
          </mxGeometry>
        </mxCell>
        <mxCell id="dhI3B1pzcQXHYzO1v27A-143" value="&lt;span style=&quot;font-size: 200px;&quot;&gt;03&lt;/span&gt;" style="connectable=0;recursiveResize=0;strokeColor=default;fillColor=light-dark(#FFFFFF,#CCFFCC);whiteSpace=wrap;html=1;fontSize=30;align=center;verticalAlign=middle;fontFamily=Helvetica;fontColor=light-dark(#000000,#000000);" vertex="1" parent="dhI3B1pzcQXHYzO1v27A-141">
          <mxGeometry x="483" width="428" height="334" as="geometry">
            <mxRectangle width="428" height="334" as="alternateBounds" />
          </mxGeometry>
        </mxCell>
        <mxCell id="dhI3B1pzcQXHYzO1v27A-144" value="&lt;span style=&quot;font-size: 200px;&quot;&gt;10&lt;/span&gt;" style="connectable=0;recursiveResize=0;whiteSpace=wrap;html=1;fontSize=30;fillColor=light-dark(#FFFFFF,#00CC00);fontColor=light-dark(#000000,#000000);" vertex="1" parent="dhI3B1pzcQXHYzO1v27A-141">
          <mxGeometry x="911" width="588" height="334" as="geometry">
            <mxRectangle width="588" height="334" as="alternateBounds" />
          </mxGeometry>
        </mxCell>
        <mxCell id="dhI3B1pzcQXHYzO1v27A-145" value="" style="shape=tableRow;horizontal=0;startSize=0;swimlaneHead=0;swimlaneBody=0;top=0;left=0;bottom=0;right=0;dropTarget=0;collapsible=0;recursiveResize=0;expand=0;fontStyle=0;strokeColor=inherit;fillColor=#ffffff;" vertex="1" parent="dhI3B1pzcQXHYzO1v27A-132">
          <mxGeometry y="1007" width="1499.4226812877669" height="339" as="geometry" />
        </mxCell>
        <mxCell id="dhI3B1pzcQXHYzO1v27A-146" value="&lt;span style=&quot;font-size: 200px;&quot;&gt;03&lt;/span&gt;" style="connectable=0;recursiveResize=0;strokeColor=default;fillColor=light-dark(#FFFFFF,#CCFFCC);fontStyle=0;align=center;whiteSpace=wrap;html=1;fontSize=30;verticalAlign=middle;fontFamily=Helvetica;fontColor=light-dark(#000000,#000000);" vertex="1" parent="dhI3B1pzcQXHYzO1v27A-145">
          <mxGeometry width="483" height="339" as="geometry">
            <mxRectangle width="483" height="339" as="alternateBounds" />
          </mxGeometry>
        </mxCell>
        <mxCell id="dhI3B1pzcQXHYzO1v27A-147" value="&lt;span style=&quot;font-size: 200px;&quot;&gt;01&lt;/span&gt;" style="connectable=0;recursiveResize=0;strokeColor=default;fillColor=light-dark(#FFFFFF,#CCFFCC);fontStyle=0;align=center;whiteSpace=wrap;html=1;fontSize=30;verticalAlign=middle;fontFamily=Helvetica;fontColor=light-dark(#000000,#000000);" vertex="1" parent="dhI3B1pzcQXHYzO1v27A-145">
          <mxGeometry x="483" width="428" height="339" as="geometry">
            <mxRectangle width="428" height="339" as="alternateBounds" />
          </mxGeometry>
        </mxCell>
        <mxCell id="dhI3B1pzcQXHYzO1v27A-148" value="&lt;span style=&quot;font-size: 200px;&quot;&gt;02&lt;/span&gt;" style="connectable=0;recursiveResize=0;strokeColor=default;fillColor=light-dark(#FFFFFF,#CCFFCC);fontStyle=0;align=center;whiteSpace=wrap;html=1;fontSize=30;verticalAlign=middle;fontFamily=Helvetica;fontColor=light-dark(#000000,#000000);" vertex="1" parent="dhI3B1pzcQXHYzO1v27A-145">
          <mxGeometry x="911" width="588" height="339" as="geometry">
            <mxRectangle width="588" height="339" as="alternateBounds" />
          </mxGeometry>
        </mxCell>
        <mxCell id="dhI3B1pzcQXHYzO1v27A-149" value="" style="shape=tableRow;horizontal=0;startSize=0;swimlaneHead=0;swimlaneBody=0;top=0;left=0;bottom=0;right=0;dropTarget=0;collapsible=0;recursiveResize=0;expand=0;fontStyle=1;strokeColor=inherit;fillColor=#EAF2D3;" vertex="1" parent="dhI3B1pzcQXHYzO1v27A-132">
          <mxGeometry y="1346" width="1499.4226812877669" height="333" as="geometry" />
        </mxCell>
        <mxCell id="dhI3B1pzcQXHYzO1v27A-150" value="&lt;span style=&quot;font-size: 200px;&quot;&gt;0&lt;/span&gt;" style="connectable=0;recursiveResize=0;strokeColor=default;fillColor=light-dark(#FFFFFF,#FFFFFF);whiteSpace=wrap;html=1;fontSize=30;align=center;verticalAlign=middle;fontFamily=Helvetica;fontColor=light-dark(#000000,#000000);fontStyle=0;" vertex="1" parent="dhI3B1pzcQXHYzO1v27A-149">
          <mxGeometry width="483" height="333" as="geometry">
            <mxRectangle width="483" height="333" as="alternateBounds" />
          </mxGeometry>
        </mxCell>
        <mxCell id="dhI3B1pzcQXHYzO1v27A-151" value="&lt;span style=&quot;font-size: 200px;&quot;&gt;0&lt;/span&gt;" style="connectable=0;recursiveResize=0;strokeColor=default;fillColor=light-dark(#FFFFFF,#FFFFFF);whiteSpace=wrap;html=1;fontSize=30;align=center;verticalAlign=middle;fontFamily=Helvetica;fontColor=light-dark(#000000,#000000);fontStyle=0;" vertex="1" parent="dhI3B1pzcQXHYzO1v27A-149">
          <mxGeometry x="483" width="428" height="333" as="geometry">
            <mxRectangle width="428" height="333" as="alternateBounds" />
          </mxGeometry>
        </mxCell>
        <mxCell id="dhI3B1pzcQXHYzO1v27A-152" value="&lt;span style=&quot;font-size: 200px;&quot;&gt;08&lt;/span&gt;" style="connectable=0;recursiveResize=0;whiteSpace=wrap;html=1;fontSize=30;fillColor=light-dark(#FFFFFF,#33FF33);fontColor=light-dark(#000000,#000000);" vertex="1" parent="dhI3B1pzcQXHYzO1v27A-149">
          <mxGeometry x="911" width="588" height="333" as="geometry">
            <mxRectangle width="588" height="333" as="alternateBounds" />
          </mxGeometry>
        </mxCell>
        <mxCell id="dhI3B1pzcQXHYzO1v27A-153" value="" style="shape=tableRow;horizontal=0;startSize=0;swimlaneHead=0;swimlaneBody=0;top=0;left=0;bottom=0;right=0;dropTarget=0;collapsible=0;recursiveResize=0;expand=0;fontStyle=1;strokeColor=inherit;fillColor=#EAF2D3;" vertex="1" parent="dhI3B1pzcQXHYzO1v27A-132">
          <mxGeometry y="1679" width="1499.4226812877669" height="338" as="geometry" />
        </mxCell>
        <mxCell id="dhI3B1pzcQXHYzO1v27A-154" value="&lt;span style=&quot;font-size: 200px;&quot;&gt;0&lt;/span&gt;" style="connectable=0;recursiveResize=0;whiteSpace=wrap;html=1;fontSize=30;strokeColor=default;align=center;verticalAlign=middle;fontFamily=Helvetica;fontColor=light-dark(#000000,#000000);fontStyle=0;fillColor=light-dark(#FFFFFF,#FFFFFF);" vertex="1" parent="dhI3B1pzcQXHYzO1v27A-153">
          <mxGeometry width="483" height="338" as="geometry">
            <mxRectangle width="483" height="338" as="alternateBounds" />
          </mxGeometry>
        </mxCell>
        <mxCell id="dhI3B1pzcQXHYzO1v27A-155" value="&lt;div&gt;&lt;span style=&quot;font-size: 200px;&quot;&gt;0&lt;/span&gt;&lt;/div&gt;" style="connectable=0;recursiveResize=0;whiteSpace=wrap;html=1;fontSize=30;strokeColor=default;align=center;verticalAlign=middle;fontFamily=Helvetica;fontColor=light-dark(#000000,#000000);fontStyle=0;fillColor=light-dark(#FFFFFF,#FFFFFF);" vertex="1" parent="dhI3B1pzcQXHYzO1v27A-153">
          <mxGeometry x="483" width="428" height="338" as="geometry">
            <mxRectangle width="428" height="338" as="alternateBounds" />
          </mxGeometry>
        </mxCell>
        <mxCell id="dhI3B1pzcQXHYzO1v27A-156" value="&lt;span style=&quot;font-size: 200px;&quot;&gt;0&lt;/span&gt;" style="connectable=0;recursiveResize=0;whiteSpace=wrap;html=1;fontSize=30;strokeColor=default;align=center;verticalAlign=middle;fontFamily=Helvetica;fontColor=light-dark(#000000,#000000);fontStyle=0;fillColor=light-dark(#FFFFFF,#FFFFFF);" vertex="1" parent="dhI3B1pzcQXHYzO1v27A-153">
          <mxGeometry x="911" width="588" height="338" as="geometry">
            <mxRectangle width="588" height="338" as="alternateBounds" />
          </mxGeometry>
        </mxCell>
        <mxCell id="dhI3B1pzcQXHYzO1v27A-157" value="" style="shape=tableRow;horizontal=0;startSize=0;swimlaneHead=0;swimlaneBody=0;top=0;left=0;bottom=0;right=0;dropTarget=0;collapsible=0;recursiveResize=0;expand=0;fontStyle=1;strokeColor=inherit;fillColor=#EAF2D3;" vertex="1" parent="dhI3B1pzcQXHYzO1v27A-132">
          <mxGeometry y="2017" width="1499.4226812877669" height="335" as="geometry" />
        </mxCell>
        <mxCell id="dhI3B1pzcQXHYzO1v27A-158" value="&lt;span style=&quot;font-size: 200px;&quot;&gt;01&lt;/span&gt;" style="connectable=0;recursiveResize=0;strokeColor=default;fillColor=light-dark(#FFFFFF,#CCFFCC);whiteSpace=wrap;html=1;fontSize=30;align=center;verticalAlign=middle;fontFamily=Helvetica;fontColor=light-dark(#000000,#000000);" vertex="1" parent="dhI3B1pzcQXHYzO1v27A-157">
          <mxGeometry width="483" height="335" as="geometry">
            <mxRectangle width="483" height="335" as="alternateBounds" />
          </mxGeometry>
        </mxCell>
        <mxCell id="dhI3B1pzcQXHYzO1v27A-159" value="&lt;div&gt;&lt;span style=&quot;font-size: 200px;&quot;&gt;0&lt;/span&gt;&lt;/div&gt;" style="connectable=0;recursiveResize=0;strokeColor=default;fillColor=light-dark(#FFFFFF,#FFFFFF);whiteSpace=wrap;html=1;fontSize=30;align=center;verticalAlign=middle;fontFamily=Helvetica;fontColor=light-dark(#000000,#000000);fontStyle=0;" vertex="1" parent="dhI3B1pzcQXHYzO1v27A-157">
          <mxGeometry x="483" width="428" height="335" as="geometry">
            <mxRectangle width="428" height="335" as="alternateBounds" />
          </mxGeometry>
        </mxCell>
        <mxCell id="dhI3B1pzcQXHYzO1v27A-160" value="&lt;span style=&quot;font-size: 200px;&quot;&gt;0&lt;/span&gt;" style="connectable=0;recursiveResize=0;strokeColor=default;fillColor=light-dark(#FFFFFF,#FFFFFF);whiteSpace=wrap;html=1;fontSize=30;align=center;verticalAlign=middle;fontFamily=Helvetica;fontColor=light-dark(#000000,#000000);fontStyle=0;" vertex="1" parent="dhI3B1pzcQXHYzO1v27A-157">
          <mxGeometry x="911" width="588" height="335" as="geometry">
            <mxRectangle width="588" height="335" as="alternateBounds" />
          </mxGeometry>
        </mxCell>
        <mxCell id="dhI3B1pzcQXHYzO1v27A-161" value="" style="shape=tableRow;horizontal=0;startSize=0;swimlaneHead=0;swimlaneBody=0;top=0;left=0;bottom=0;right=0;dropTarget=0;collapsible=0;recursiveResize=0;expand=0;fontStyle=1;strokeColor=inherit;fillColor=#EAF2D3;" vertex="1" parent="dhI3B1pzcQXHYzO1v27A-132">
          <mxGeometry y="2352" width="1499.4226812877669" height="338" as="geometry" />
        </mxCell>
        <mxCell id="dhI3B1pzcQXHYzO1v27A-162" value="&lt;div&gt;&lt;span style=&quot;font-size: 200px;&quot;&gt;05&lt;/span&gt;&lt;/div&gt;" style="connectable=0;recursiveResize=0;whiteSpace=wrap;html=1;fontSize=30;strokeColor=default;align=center;verticalAlign=middle;fontFamily=Helvetica;fontColor=light-dark(#000000,#000000);fillColor=light-dark(#FFFFFF,#99FF99);" vertex="1" parent="dhI3B1pzcQXHYzO1v27A-161">
          <mxGeometry width="483" height="338" as="geometry">
            <mxRectangle width="483" height="338" as="alternateBounds" />
          </mxGeometry>
        </mxCell>
        <mxCell id="dhI3B1pzcQXHYzO1v27A-163" value="&lt;div&gt;&lt;span style=&quot;font-size: 200px;&quot;&gt;01&lt;/span&gt;&lt;/div&gt;" style="connectable=0;recursiveResize=0;whiteSpace=wrap;html=1;fontSize=30;strokeColor=default;align=center;verticalAlign=middle;fontFamily=Helvetica;fontColor=light-dark(#000000,#000000);fillColor=light-dark(#FFFFFF,#CCFFCC);" vertex="1" parent="dhI3B1pzcQXHYzO1v27A-161">
          <mxGeometry x="483" width="428" height="338" as="geometry">
            <mxRectangle width="428" height="338" as="alternateBounds" />
          </mxGeometry>
        </mxCell>
        <mxCell id="dhI3B1pzcQXHYzO1v27A-164" value="&lt;span style=&quot;font-size: 200px;&quot;&gt;0&lt;/span&gt;" style="connectable=0;recursiveResize=0;whiteSpace=wrap;html=1;fontSize=30;strokeColor=default;align=center;verticalAlign=middle;fontFamily=Helvetica;fontColor=light-dark(#000000,#000000);fontStyle=0;fillColor=light-dark(#FFFFFF,#FFFFFF);" vertex="1" parent="dhI3B1pzcQXHYzO1v27A-161">
          <mxGeometry x="911" width="588" height="338" as="geometry">
            <mxRectangle width="588" height="338" as="alternateBounds" />
          </mxGeometry>
        </mxCell>
        <mxCell id="dhI3B1pzcQXHYzO1v27A-165" value="" style="shape=tableRow;horizontal=0;startSize=0;swimlaneHead=0;swimlaneBody=0;top=0;left=0;bottom=0;right=0;dropTarget=0;collapsible=0;recursiveResize=0;expand=0;fontStyle=1;strokeColor=inherit;fillColor=#EAF2D3;" vertex="1" parent="dhI3B1pzcQXHYzO1v27A-132">
          <mxGeometry y="2690" width="1499.4226812877669" height="336" as="geometry" />
        </mxCell>
        <mxCell id="dhI3B1pzcQXHYzO1v27A-166" value="&lt;div&gt;&lt;span style=&quot;font-size: 200px;&quot;&gt;01&lt;/span&gt;&lt;/div&gt;" style="connectable=0;recursiveResize=0;strokeColor=default;fillColor=light-dark(#FFFFFF,#CCFFCC);whiteSpace=wrap;html=1;fontSize=30;align=center;verticalAlign=middle;fontFamily=Helvetica;fontColor=light-dark(#000000,#000000);" vertex="1" parent="dhI3B1pzcQXHYzO1v27A-165">
          <mxGeometry width="483" height="336" as="geometry">
            <mxRectangle width="483" height="336" as="alternateBounds" />
          </mxGeometry>
        </mxCell>
        <mxCell id="dhI3B1pzcQXHYzO1v27A-167" value="&lt;div&gt;&lt;span style=&quot;font-size: 200px;&quot;&gt;0&lt;/span&gt;&lt;/div&gt;" style="connectable=0;recursiveResize=0;strokeColor=default;fillColor=light-dark(#FFFFFF,#FFFFFF);whiteSpace=wrap;html=1;fontSize=30;align=center;verticalAlign=middle;fontFamily=Helvetica;fontColor=light-dark(#000000,#000000);fontStyle=0;" vertex="1" parent="dhI3B1pzcQXHYzO1v27A-165">
          <mxGeometry x="483" width="428" height="336" as="geometry">
            <mxRectangle width="428" height="336" as="alternateBounds" />
          </mxGeometry>
        </mxCell>
        <mxCell id="dhI3B1pzcQXHYzO1v27A-168" value="&lt;span style=&quot;font-size: 200px;&quot;&gt;01&lt;/span&gt;" style="connectable=0;recursiveResize=0;strokeColor=default;fillColor=light-dark(#FFFFFF,#CCFFCC);whiteSpace=wrap;html=1;fontSize=30;align=center;verticalAlign=middle;fontFamily=Helvetica;fontColor=light-dark(#000000,#000000);" vertex="1" parent="dhI3B1pzcQXHYzO1v27A-165">
          <mxGeometry x="911" width="588" height="336" as="geometry">
            <mxRectangle width="588" height="336" as="alternateBounds" />
          </mxGeometry>
        </mxCell>
        <mxCell id="dhI3B1pzcQXHYzO1v27A-169" value="" style="shape=tableRow;horizontal=0;startSize=0;swimlaneHead=0;swimlaneBody=0;top=0;left=0;bottom=0;right=0;dropTarget=0;collapsible=0;recursiveResize=0;expand=0;fontStyle=1;strokeColor=inherit;fillColor=#EAF2D3;" vertex="1" parent="dhI3B1pzcQXHYzO1v27A-132">
          <mxGeometry y="3026" width="1499.4226812877669" height="337" as="geometry" />
        </mxCell>
        <mxCell id="dhI3B1pzcQXHYzO1v27A-170" value="&lt;div&gt;&lt;span style=&quot;font-size: 200px;&quot;&gt;0&lt;/span&gt;&lt;/div&gt;" style="connectable=0;recursiveResize=0;whiteSpace=wrap;html=1;fontSize=30;strokeColor=default;align=center;verticalAlign=middle;fontFamily=Helvetica;fontColor=light-dark(#000000,#000000);fontStyle=0;fillColor=light-dark(#FFFFFF,#FFFFFF);" vertex="1" parent="dhI3B1pzcQXHYzO1v27A-169">
          <mxGeometry width="483" height="337" as="geometry">
            <mxRectangle width="483" height="337" as="alternateBounds" />
          </mxGeometry>
        </mxCell>
        <mxCell id="dhI3B1pzcQXHYzO1v27A-171" value="&lt;div&gt;&lt;span style=&quot;font-size: 200px;&quot;&gt;0&lt;/span&gt;&lt;/div&gt;" style="connectable=0;recursiveResize=0;whiteSpace=wrap;html=1;fontSize=30;strokeColor=default;align=center;verticalAlign=middle;fontFamily=Helvetica;fontColor=light-dark(#000000,#000000);fontStyle=0;fillColor=light-dark(#FFFFFF,#FFFFFF);" vertex="1" parent="dhI3B1pzcQXHYzO1v27A-169">
          <mxGeometry x="483" width="428" height="337" as="geometry">
            <mxRectangle width="428" height="337" as="alternateBounds" />
          </mxGeometry>
        </mxCell>
        <mxCell id="dhI3B1pzcQXHYzO1v27A-172" value="&lt;span style=&quot;font-size: 200px;&quot;&gt;0&lt;/span&gt;" style="connectable=0;recursiveResize=0;whiteSpace=wrap;html=1;fontSize=30;strokeColor=default;align=center;verticalAlign=middle;fontFamily=Helvetica;fontColor=light-dark(#000000,#000000);fontStyle=0;fillColor=light-dark(#FFFFFF,#FFFFFF);" vertex="1" parent="dhI3B1pzcQXHYzO1v27A-169">
          <mxGeometry x="911" width="588" height="337" as="geometry">
            <mxRectangle width="588" height="337" as="alternateBounds" />
          </mxGeometry>
        </mxCell>
        <mxCell id="dhI3B1pzcQXHYzO1v27A-173" value="" style="shape=tableRow;horizontal=0;startSize=0;swimlaneHead=0;swimlaneBody=0;top=0;left=0;bottom=0;right=0;dropTarget=0;collapsible=0;recursiveResize=0;expand=0;fontStyle=1;strokeColor=inherit;fillColor=#EAF2D3;" vertex="1" parent="dhI3B1pzcQXHYzO1v27A-132">
          <mxGeometry y="3363" width="1499.4226812877669" height="334" as="geometry" />
        </mxCell>
        <mxCell id="dhI3B1pzcQXHYzO1v27A-174" value="&lt;div&gt;&lt;span style=&quot;font-size: 200px;&quot;&gt;01&lt;/span&gt;&lt;/div&gt;" style="connectable=0;recursiveResize=0;strokeColor=default;fillColor=light-dark(#FFFFFF,#CCFFCC);whiteSpace=wrap;html=1;fontSize=30;align=center;verticalAlign=middle;fontFamily=Helvetica;fontColor=light-dark(#000000,#000000);" vertex="1" parent="dhI3B1pzcQXHYzO1v27A-173">
          <mxGeometry width="483" height="334" as="geometry">
            <mxRectangle width="483" height="334" as="alternateBounds" />
          </mxGeometry>
        </mxCell>
        <mxCell id="dhI3B1pzcQXHYzO1v27A-175" value="&lt;div&gt;&lt;span style=&quot;font-size: 200px;&quot;&gt;0&lt;/span&gt;&lt;/div&gt;" style="connectable=0;recursiveResize=0;strokeColor=default;fillColor=light-dark(#FFFFFF,#FFFFFF);whiteSpace=wrap;html=1;fontSize=30;align=center;verticalAlign=middle;fontFamily=Helvetica;fontColor=light-dark(#000000,#000000);fontStyle=0;" vertex="1" parent="dhI3B1pzcQXHYzO1v27A-173">
          <mxGeometry x="483" width="428" height="334" as="geometry">
            <mxRectangle width="428" height="334" as="alternateBounds" />
          </mxGeometry>
        </mxCell>
        <mxCell id="dhI3B1pzcQXHYzO1v27A-176" value="&lt;span style=&quot;font-size: 200px;&quot;&gt;03&lt;/span&gt;" style="connectable=0;recursiveResize=0;strokeColor=default;fillColor=light-dark(#FFFFFF,#CCFFCC);whiteSpace=wrap;html=1;fontSize=30;align=center;verticalAlign=middle;fontFamily=Helvetica;fontColor=light-dark(#000000,#000000);" vertex="1" parent="dhI3B1pzcQXHYzO1v27A-173">
          <mxGeometry x="911" width="588" height="334" as="geometry">
            <mxRectangle width="588" height="334" as="alternateBounds" />
          </mxGeometry>
        </mxCell>
        <mxCell id="dhI3B1pzcQXHYzO1v27A-177" value="" style="shape=tableRow;horizontal=0;startSize=0;swimlaneHead=0;swimlaneBody=0;top=0;left=0;bottom=0;right=0;dropTarget=0;collapsible=0;recursiveResize=0;expand=0;fontStyle=1;strokeColor=inherit;fillColor=#EAF2D3;" vertex="1" parent="dhI3B1pzcQXHYzO1v27A-132">
          <mxGeometry y="3697" width="1499.4226812877669" height="340" as="geometry" />
        </mxCell>
        <mxCell id="dhI3B1pzcQXHYzO1v27A-178" value="&lt;div&gt;&lt;span style=&quot;font-size: 200px;&quot;&gt;01&lt;/span&gt;&lt;/div&gt;" style="connectable=0;recursiveResize=0;whiteSpace=wrap;html=1;fontSize=30;strokeColor=default;align=center;verticalAlign=middle;fontFamily=Helvetica;fontColor=light-dark(#000000,#000000);fillColor=light-dark(#FFFFFF,#CCFFCC);" vertex="1" parent="dhI3B1pzcQXHYzO1v27A-177">
          <mxGeometry width="483" height="340" as="geometry">
            <mxRectangle width="483" height="340" as="alternateBounds" />
          </mxGeometry>
        </mxCell>
        <mxCell id="dhI3B1pzcQXHYzO1v27A-179" value="&lt;div&gt;&lt;span style=&quot;font-size: 200px;&quot;&gt;0&lt;/span&gt;&lt;/div&gt;" style="connectable=0;recursiveResize=0;whiteSpace=wrap;html=1;fontSize=30;strokeColor=default;align=center;verticalAlign=middle;fontFamily=Helvetica;fontColor=light-dark(#000000,#000000);fontStyle=0;fillColor=light-dark(#FFFFFF,#FFFFFF);" vertex="1" parent="dhI3B1pzcQXHYzO1v27A-177">
          <mxGeometry x="483" width="428" height="340" as="geometry">
            <mxRectangle width="428" height="340" as="alternateBounds" />
          </mxGeometry>
        </mxCell>
        <mxCell id="dhI3B1pzcQXHYzO1v27A-180" value="&lt;span style=&quot;font-size: 200px;&quot;&gt;0&lt;/span&gt;" style="connectable=0;recursiveResize=0;whiteSpace=wrap;html=1;fontSize=30;strokeColor=default;align=center;verticalAlign=middle;fontFamily=Helvetica;fontColor=light-dark(#000000,#000000);fontStyle=0;fillColor=light-dark(#FFFFFF,#FFFFFF);" vertex="1" parent="dhI3B1pzcQXHYzO1v27A-177">
          <mxGeometry x="911" width="588" height="340" as="geometry">
            <mxRectangle width="588" height="340" as="alternateBounds" />
          </mxGeometry>
        </mxCell>
        <mxCell id="dhI3B1pzcQXHYzO1v27A-181" value="" style="shape=tableRow;horizontal=0;startSize=0;swimlaneHead=0;swimlaneBody=0;top=0;left=0;bottom=0;right=0;dropTarget=0;collapsible=0;recursiveResize=0;expand=0;fontStyle=1;strokeColor=inherit;fillColor=#EAF2D3;" vertex="1" parent="dhI3B1pzcQXHYzO1v27A-132">
          <mxGeometry y="4037" width="1499.4226812877669" height="335" as="geometry" />
        </mxCell>
        <mxCell id="dhI3B1pzcQXHYzO1v27A-182" value="&lt;div&gt;&lt;span style=&quot;font-size: 200px;&quot;&gt;0&lt;/span&gt;&lt;/div&gt;" style="connectable=0;recursiveResize=0;strokeColor=default;fillColor=light-dark(#FFFFFF,#FFFFFF);whiteSpace=wrap;html=1;fontSize=30;align=center;verticalAlign=middle;fontFamily=Helvetica;fontColor=light-dark(#000000,#000000);fontStyle=0;" vertex="1" parent="dhI3B1pzcQXHYzO1v27A-181">
          <mxGeometry width="483" height="335" as="geometry">
            <mxRectangle width="483" height="335" as="alternateBounds" />
          </mxGeometry>
        </mxCell>
        <mxCell id="dhI3B1pzcQXHYzO1v27A-183" value="&lt;div&gt;&lt;span style=&quot;font-size: 200px;&quot;&gt;0&lt;/span&gt;&lt;/div&gt;" style="connectable=0;recursiveResize=0;strokeColor=default;fillColor=light-dark(#FFFFFF,#FFFFFF);whiteSpace=wrap;html=1;fontSize=30;align=center;verticalAlign=middle;fontFamily=Helvetica;fontColor=light-dark(#000000,#000000);fontStyle=0;" vertex="1" parent="dhI3B1pzcQXHYzO1v27A-181">
          <mxGeometry x="483" width="428" height="335" as="geometry">
            <mxRectangle width="428" height="335" as="alternateBounds" />
          </mxGeometry>
        </mxCell>
        <mxCell id="dhI3B1pzcQXHYzO1v27A-184" value="&lt;span style=&quot;font-size: 200px;&quot;&gt;01&lt;/span&gt;" style="connectable=0;recursiveResize=0;strokeColor=default;fillColor=light-dark(#FFFFFF,#CCFFCC);whiteSpace=wrap;html=1;fontSize=30;align=center;verticalAlign=middle;fontFamily=Helvetica;fontColor=light-dark(#000000,#000000);" vertex="1" parent="dhI3B1pzcQXHYzO1v27A-181">
          <mxGeometry x="911" width="588" height="335" as="geometry">
            <mxRectangle width="588" height="335" as="alternateBounds" />
          </mxGeometry>
        </mxCell>
        <mxCell id="dhI3B1pzcQXHYzO1v27A-185" style="edgeStyle=orthogonalEdgeStyle;rounded=0;orthogonalLoop=1;jettySize=auto;html=1;exitX=1;exitY=0.5;exitDx=0;exitDy=0;" edge="1" parent="dhI3B1pzcQXHYzO1v27A-1" source="dhI3B1pzcQXHYzO1v27A-186" target="dhI3B1pzcQXHYzO1v27A-114">
          <mxGeometry relative="1" as="geometry" />
        </mxCell>
        <mxCell id="dhI3B1pzcQXHYzO1v27A-186" value="LLM as Pre-processor" style="rounded=1;whiteSpace=wrap;html=1;fontSize=70;fontStyle=1" vertex="1" parent="dhI3B1pzcQXHYzO1v27A-1">
          <mxGeometry x="1837.46" y="4826.453156384506" width="450" height="201.779225251076" as="geometry" />
        </mxCell>
        <mxCell id="dhI3B1pzcQXHYzO1v27A-187" style="edgeStyle=orthogonalEdgeStyle;rounded=0;orthogonalLoop=1;jettySize=auto;html=1;exitX=1;exitY=0.5;exitDx=0;exitDy=0;entryX=0;entryY=0.5;entryDx=0;entryDy=0;" edge="1" parent="dhI3B1pzcQXHYzO1v27A-1" source="dhI3B1pzcQXHYzO1v27A-188">
          <mxGeometry relative="1" as="geometry">
            <mxPoint x="2570.4400000000005" y="5263.026585365851" as="targetPoint" />
          </mxGeometry>
        </mxCell>
        <mxCell id="dhI3B1pzcQXHYzO1v27A-188" value="LLM as Processor" style="rounded=1;whiteSpace=wrap;html=1;fontSize=70;fontStyle=1" vertex="1" parent="dhI3B1pzcQXHYzO1v27A-1">
          <mxGeometry x="1837.46" y="5153.723974175035" width="412.54" height="218.59416068866565" as="geometry" />
        </mxCell>
        <mxCell id="dhI3B1pzcQXHYzO1v27A-189" style="edgeStyle=orthogonalEdgeStyle;rounded=0;orthogonalLoop=1;jettySize=auto;html=1;exitX=1;exitY=0.5;exitDx=0;exitDy=0;entryX=0;entryY=0.5;entryDx=0;entryDy=0;" edge="1" parent="dhI3B1pzcQXHYzO1v27A-1" source="dhI3B1pzcQXHYzO1v27A-191" target="dhI3B1pzcQXHYzO1v27A-193">
          <mxGeometry relative="1" as="geometry" />
        </mxCell>
        <mxCell id="dhI3B1pzcQXHYzO1v27A-190" style="edgeStyle=orthogonalEdgeStyle;rounded=0;orthogonalLoop=1;jettySize=auto;html=1;exitX=1;exitY=0.5;exitDx=0;exitDy=0;entryX=0;entryY=0.5;entryDx=0;entryDy=0;" edge="1" parent="dhI3B1pzcQXHYzO1v27A-1" source="dhI3B1pzcQXHYzO1v27A-191" target="dhI3B1pzcQXHYzO1v27A-194">
          <mxGeometry relative="1" as="geometry">
            <Array as="points">
              <mxPoint x="1793.952136540722" y="5750.6525312932135" />
              <mxPoint x="1793.952136540722" y="5935.61503960966" />
            </Array>
          </mxGeometry>
        </mxCell>
        <mxCell id="dhI3B1pzcQXHYzO1v27A-191" value="LLM as Post-processor" style="rounded=1;whiteSpace=wrap;html=1;fontSize=70;fontStyle=1" vertex="1" parent="dhI3B1pzcQXHYzO1v27A-1">
          <mxGeometry x="1352.245656172788" y="5616.134343426705" width="374.8556703219417" height="269.0363757330158" as="geometry" />
        </mxCell>
        <mxCell id="dhI3B1pzcQXHYzO1v27A-192" style="edgeStyle=orthogonalEdgeStyle;rounded=0;orthogonalLoop=1;jettySize=auto;html=1;exitX=1;exitY=0.5;exitDx=0;exitDy=0;entryX=0;entryY=0.5;entryDx=0;entryDy=0;" edge="1" parent="dhI3B1pzcQXHYzO1v27A-1" source="dhI3B1pzcQXHYzO1v27A-193" target="dhI3B1pzcQXHYzO1v27A-122">
          <mxGeometry relative="1" as="geometry" />
        </mxCell>
        <mxCell id="dhI3B1pzcQXHYzO1v27A-193" value="Judge / Evaluator" style="rounded=1;whiteSpace=wrap;html=1;fontSize=70;fontStyle=1" vertex="1" parent="dhI3B1pzcQXHYzO1v27A-1">
          <mxGeometry x="1837.46" y="5498.435035868004" width="422.54" height="201.779225251076" as="geometry" />
        </mxCell>
        <mxCell id="dhI3B1pzcQXHYzO1v27A-194" value="Assistant / Explainer" style="rounded=1;whiteSpace=wrap;html=1;fontSize=70;fontStyle=1" vertex="1" parent="dhI3B1pzcQXHYzO1v27A-1">
          <mxGeometry x="1860.89" y="5834.723974175035" width="429.11" height="201.779225251076" as="geometry" />
        </mxCell>
        <mxCell id="dhI3B1pzcQXHYzO1v27A-195" style="edgeStyle=orthogonalEdgeStyle;rounded=0;orthogonalLoop=1;jettySize=auto;html=1;exitX=1;exitY=0.5;exitDx=0;exitDy=0;entryX=0;entryY=0.5;entryDx=0;entryDy=0;fontSize=40;" edge="1" parent="dhI3B1pzcQXHYzO1v27A-1" target="dhI3B1pzcQXHYzO1v27A-188">
          <mxGeometry relative="1" as="geometry">
            <mxPoint x="1231.6686310578084" y="5136.91329915227" as="sourcePoint" />
            <mxPoint x="1824.7438523171666" y="5288.246260502091" as="targetPoint" />
          </mxGeometry>
        </mxCell>
        <mxCell id="dhI3B1pzcQXHYzO1v27A-196" style="edgeStyle=orthogonalEdgeStyle;rounded=0;orthogonalLoop=1;jettySize=auto;html=1;exitX=1;exitY=0.5;exitDx=0;exitDy=0;entryX=0;entryY=0.5;entryDx=0;entryDy=0;fontSize=40;" edge="1" parent="dhI3B1pzcQXHYzO1v27A-1" target="dhI3B1pzcQXHYzO1v27A-186">
          <mxGeometry relative="1" as="geometry">
            <mxPoint x="1231.6686310578084" y="5136.91329915227" as="sourcePoint" />
            <mxPoint x="1824.7438523171666" y="4943.5434040941645" as="targetPoint" />
          </mxGeometry>
        </mxCell>
        <mxCell id="dhI3B1pzcQXHYzO1v27A-197" style="edgeStyle=orthogonalEdgeStyle;rounded=0;orthogonalLoop=1;jettySize=auto;html=1;exitX=1;exitY=0.5;exitDx=0;exitDy=0;entryX=0;entryY=0.5;entryDx=0;entryDy=0;fontSize=40;" edge="1" parent="dhI3B1pzcQXHYzO1v27A-1" source="dhI3B1pzcQXHYzO1v27A-10" target="dhI3B1pzcQXHYzO1v27A-191">
          <mxGeometry relative="1" as="geometry">
            <mxPoint x="1231.6686310578084" y="5136.91329915227" as="sourcePoint" />
            <mxPoint x="1358.851804917039" y="5767.467304776525" as="targetPoint" />
          </mxGeometry>
        </mxCell>
        <mxCell id="dhI3B1pzcQXHYzO1v27A-198" value="Assets" style="childLayout=tableLayout;recursiveResize=0;strokeColor=#98bf21;fillColor=#A7C942;shadow=1;" vertex="1" parent="dhI3B1pzcQXHYzO1v27A-1">
          <mxGeometry x="5729.936674921112" y="1731.9216687812893" width="1285.2194411038004" height="4371.841105661509" as="geometry" />
        </mxCell>
        <mxCell id="dhI3B1pzcQXHYzO1v27A-199" style="shape=tableRow;horizontal=0;startSize=0;swimlaneHead=0;swimlaneBody=0;top=0;left=0;bottom=0;right=0;dropTarget=0;collapsible=0;recursiveResize=0;expand=0;fontStyle=0;strokeColor=inherit;fillColor=#ffffff;" vertex="1" parent="dhI3B1pzcQXHYzO1v27A-198">
          <mxGeometry width="1285.2194411038004" height="285" as="geometry" />
        </mxCell>
        <mxCell id="dhI3B1pzcQXHYzO1v27A-200" value="&lt;span style=&quot;color: rgb(255, 255, 255); text-wrap-mode: wrap;&quot;&gt;&lt;font style=&quot;font-size: 70px;&quot;&gt;Code Repair&lt;/font&gt;&lt;/span&gt;" style="connectable=0;recursiveResize=0;strokeColor=inherit;fillColor=light-dark(#A7C942,#FFFFFF);align=center;fontStyle=1;fontColor=#FFFFFF;html=1;" vertex="1" parent="dhI3B1pzcQXHYzO1v27A-199">
          <mxGeometry width="308" height="285" as="geometry">
            <mxRectangle width="308" height="285" as="alternateBounds" />
          </mxGeometry>
        </mxCell>
        <mxCell id="dhI3B1pzcQXHYzO1v27A-201" value="&lt;span style=&quot;color: rgb(255, 255, 255); text-wrap-mode: wrap;&quot;&gt;&lt;font style=&quot;font-size: 70px;&quot;&gt;Policy Enforcement&lt;/font&gt;&lt;/span&gt;" style="connectable=0;recursiveResize=0;strokeColor=inherit;fillColor=light-dark(#A7C942,#FFFFFF);align=center;fontStyle=1;fontColor=#FFFFFF;html=1;" vertex="1" parent="dhI3B1pzcQXHYzO1v27A-199">
          <mxGeometry x="308" width="498" height="285" as="geometry">
            <mxRectangle width="498" height="285" as="alternateBounds" />
          </mxGeometry>
        </mxCell>
        <mxCell id="dhI3B1pzcQXHYzO1v27A-202" value="&lt;span style=&quot;color: rgb(255, 255, 255); text-wrap-mode: wrap;&quot;&gt;&lt;font style=&quot;font-size: 70px;&quot;&gt;Static Analysis Validation&lt;/font&gt;&lt;/span&gt;" style="connectable=0;recursiveResize=0;strokeColor=inherit;fillColor=light-dark(#A7C942,#FFFFFF);align=center;fontStyle=1;fontColor=#FFFFFF;html=1;" vertex="1" parent="dhI3B1pzcQXHYzO1v27A-199">
          <mxGeometry x="806" width="479" height="285" as="geometry">
            <mxRectangle width="479" height="285" as="alternateBounds" />
          </mxGeometry>
        </mxCell>
        <mxCell id="dhI3B1pzcQXHYzO1v27A-203" value="" style="shape=tableRow;horizontal=0;startSize=0;swimlaneHead=0;swimlaneBody=0;top=0;left=0;bottom=0;right=0;dropTarget=0;collapsible=0;recursiveResize=0;expand=0;fontStyle=0;strokeColor=inherit;fillColor=#ffffff;" vertex="1" parent="dhI3B1pzcQXHYzO1v27A-198">
          <mxGeometry y="285" width="1285.2194411038004" height="388" as="geometry" />
        </mxCell>
        <mxCell id="dhI3B1pzcQXHYzO1v27A-204" value="&lt;span style=&quot;font-size: 200px;&quot;&gt;01&lt;/span&gt;" style="connectable=0;recursiveResize=0;strokeColor=default;fillColor=light-dark(#FFFFFF,#CCFFCC);align=center;whiteSpace=wrap;html=1;fontSize=30;verticalAlign=middle;fontFamily=Helvetica;fontColor=light-dark(#000000,#000000);" vertex="1" parent="dhI3B1pzcQXHYzO1v27A-203">
          <mxGeometry width="308" height="388" as="geometry">
            <mxRectangle width="308" height="388" as="alternateBounds" />
          </mxGeometry>
        </mxCell>
        <mxCell id="dhI3B1pzcQXHYzO1v27A-205" value="&lt;span style=&quot;font-size: 200px;&quot;&gt;0&lt;/span&gt;" style="connectable=0;recursiveResize=0;strokeColor=default;fillColor=light-dark(#FFFFFF,#FFFFFF);align=center;whiteSpace=wrap;html=1;fontSize=30;verticalAlign=middle;fontFamily=Helvetica;fontColor=light-dark(#000000,#000000);fontStyle=0;" vertex="1" parent="dhI3B1pzcQXHYzO1v27A-203">
          <mxGeometry x="308" width="498" height="388" as="geometry">
            <mxRectangle width="498" height="388" as="alternateBounds" />
          </mxGeometry>
        </mxCell>
        <mxCell id="dhI3B1pzcQXHYzO1v27A-206" value="&lt;span style=&quot;font-size: 200px;&quot;&gt;0&lt;/span&gt;" style="connectable=0;recursiveResize=0;strokeColor=default;fillColor=light-dark(#FFFFFF,#FFFFFF);align=center;whiteSpace=wrap;html=1;fontSize=30;verticalAlign=middle;fontFamily=Helvetica;fontColor=light-dark(#000000,#000000);fontStyle=0;" vertex="1" parent="dhI3B1pzcQXHYzO1v27A-203">
          <mxGeometry x="806" width="479" height="388" as="geometry">
            <mxRectangle width="479" height="388" as="alternateBounds" />
          </mxGeometry>
        </mxCell>
        <mxCell id="dhI3B1pzcQXHYzO1v27A-207" value="" style="shape=tableRow;horizontal=0;startSize=0;swimlaneHead=0;swimlaneBody=0;top=0;left=0;bottom=0;right=0;dropTarget=0;collapsible=0;recursiveResize=0;expand=0;fontStyle=1;strokeColor=inherit;fillColor=#EAF2D3;" vertex="1" parent="dhI3B1pzcQXHYzO1v27A-198">
          <mxGeometry y="673" width="1285.2194411038004" height="334" as="geometry" />
        </mxCell>
        <mxCell id="dhI3B1pzcQXHYzO1v27A-208" value="&lt;span style=&quot;font-size: 200px;&quot;&gt;05&lt;/span&gt;" style="connectable=0;recursiveResize=0;strokeColor=default;fillColor=light-dark(#FFFFFF,#99FF99);whiteSpace=wrap;html=1;fontSize=30;align=center;verticalAlign=middle;fontFamily=Helvetica;fontColor=light-dark(#000000,#000000);" vertex="1" parent="dhI3B1pzcQXHYzO1v27A-207">
          <mxGeometry width="308" height="334" as="geometry">
            <mxRectangle width="308" height="334" as="alternateBounds" />
          </mxGeometry>
        </mxCell>
        <mxCell id="dhI3B1pzcQXHYzO1v27A-209" value="&lt;span style=&quot;font-size: 200px;&quot;&gt;02&lt;/span&gt;" style="connectable=0;recursiveResize=0;strokeColor=default;fillColor=light-dark(#FFFFFF,#CCFFCC);whiteSpace=wrap;html=1;fontSize=30;align=center;verticalAlign=middle;fontFamily=Helvetica;fontColor=light-dark(#000000,#000000);" vertex="1" parent="dhI3B1pzcQXHYzO1v27A-207">
          <mxGeometry x="308" width="498" height="334" as="geometry">
            <mxRectangle width="498" height="334" as="alternateBounds" />
          </mxGeometry>
        </mxCell>
        <mxCell id="dhI3B1pzcQXHYzO1v27A-210" value="&lt;span style=&quot;font-size: 200px;&quot;&gt;16&lt;/span&gt;" style="connectable=0;recursiveResize=0;strokeColor=default;fillColor=light-dark(#60A917,#006600);whiteSpace=wrap;html=1;fontSize=30;align=center;verticalAlign=middle;fontFamily=Helvetica;fontColor=light-dark(#000000,#FFFFFF);labelBackgroundColor=none;" vertex="1" parent="dhI3B1pzcQXHYzO1v27A-207">
          <mxGeometry x="806" width="479" height="334" as="geometry">
            <mxRectangle width="479" height="334" as="alternateBounds" />
          </mxGeometry>
        </mxCell>
        <mxCell id="dhI3B1pzcQXHYzO1v27A-211" value="" style="shape=tableRow;horizontal=0;startSize=0;swimlaneHead=0;swimlaneBody=0;top=0;left=0;bottom=0;right=0;dropTarget=0;collapsible=0;recursiveResize=0;expand=0;fontStyle=0;strokeColor=inherit;fillColor=#ffffff;" vertex="1" parent="dhI3B1pzcQXHYzO1v27A-198">
          <mxGeometry y="1007" width="1285.2194411038004" height="339" as="geometry" />
        </mxCell>
        <mxCell id="dhI3B1pzcQXHYzO1v27A-212" value="&lt;span style=&quot;font-size: 200px;&quot;&gt;0&lt;/span&gt;" style="connectable=0;recursiveResize=0;strokeColor=default;fillColor=light-dark(#FFFFFF,#FFFFFF);fontStyle=0;align=center;whiteSpace=wrap;html=1;fontSize=30;verticalAlign=middle;fontFamily=Helvetica;fontColor=light-dark(#000000,#000000);" vertex="1" parent="dhI3B1pzcQXHYzO1v27A-211">
          <mxGeometry width="308" height="339" as="geometry">
            <mxRectangle width="308" height="339" as="alternateBounds" />
          </mxGeometry>
        </mxCell>
        <mxCell id="dhI3B1pzcQXHYzO1v27A-213" value="&lt;span style=&quot;font-size: 200px;&quot;&gt;0&lt;/span&gt;" style="connectable=0;recursiveResize=0;strokeColor=default;fillColor=light-dark(#FFFFFF,#FFFFFF);fontStyle=0;align=center;whiteSpace=wrap;html=1;fontSize=30;verticalAlign=middle;fontFamily=Helvetica;fontColor=light-dark(#000000,#000000);" vertex="1" parent="dhI3B1pzcQXHYzO1v27A-211">
          <mxGeometry x="308" width="498" height="339" as="geometry">
            <mxRectangle width="498" height="339" as="alternateBounds" />
          </mxGeometry>
        </mxCell>
        <mxCell id="dhI3B1pzcQXHYzO1v27A-214" value="&lt;span style=&quot;font-size: 200px;&quot;&gt;06&lt;/span&gt;" style="connectable=0;recursiveResize=0;strokeColor=default;fillColor=light-dark(#FFFFFF,#99FF99);fontStyle=0;align=center;whiteSpace=wrap;html=1;fontSize=30;verticalAlign=middle;fontFamily=Helvetica;fontColor=light-dark(#000000,#000000);" vertex="1" parent="dhI3B1pzcQXHYzO1v27A-211">
          <mxGeometry x="806" width="479" height="339" as="geometry">
            <mxRectangle width="479" height="339" as="alternateBounds" />
          </mxGeometry>
        </mxCell>
        <mxCell id="dhI3B1pzcQXHYzO1v27A-215" value="" style="shape=tableRow;horizontal=0;startSize=0;swimlaneHead=0;swimlaneBody=0;top=0;left=0;bottom=0;right=0;dropTarget=0;collapsible=0;recursiveResize=0;expand=0;fontStyle=1;strokeColor=inherit;fillColor=#EAF2D3;" vertex="1" parent="dhI3B1pzcQXHYzO1v27A-198">
          <mxGeometry y="1346" width="1285.2194411038004" height="333" as="geometry" />
        </mxCell>
        <mxCell id="dhI3B1pzcQXHYzO1v27A-216" value="&lt;span style=&quot;font-size: 200px;&quot;&gt;03&lt;/span&gt;" style="connectable=0;recursiveResize=0;strokeColor=default;fillColor=light-dark(#FFFFFF,#CCFFCC);whiteSpace=wrap;html=1;fontSize=30;align=center;verticalAlign=middle;fontFamily=Helvetica;fontColor=light-dark(#000000,#000000);" vertex="1" parent="dhI3B1pzcQXHYzO1v27A-215">
          <mxGeometry width="308" height="333" as="geometry">
            <mxRectangle width="308" height="333" as="alternateBounds" />
          </mxGeometry>
        </mxCell>
        <mxCell id="dhI3B1pzcQXHYzO1v27A-217" value="&lt;span style=&quot;font-size: 200px;&quot;&gt;03&lt;/span&gt;" style="connectable=0;recursiveResize=0;strokeColor=default;fillColor=light-dark(#FFFFFF,#CCFFCC);whiteSpace=wrap;html=1;fontSize=30;align=center;verticalAlign=middle;fontFamily=Helvetica;fontColor=light-dark(#000000,#000000);" vertex="1" parent="dhI3B1pzcQXHYzO1v27A-215">
          <mxGeometry x="308" width="498" height="333" as="geometry">
            <mxRectangle width="498" height="333" as="alternateBounds" />
          </mxGeometry>
        </mxCell>
        <mxCell id="dhI3B1pzcQXHYzO1v27A-218" value="&lt;span style=&quot;font-size: 200px;&quot;&gt;01&lt;/span&gt;" style="connectable=0;recursiveResize=0;strokeColor=default;fillColor=light-dark(#FFFFFF,#CCFFCC);whiteSpace=wrap;html=1;fontSize=30;align=center;verticalAlign=middle;fontFamily=Helvetica;fontColor=light-dark(#000000,#000000);" vertex="1" parent="dhI3B1pzcQXHYzO1v27A-215">
          <mxGeometry x="806" width="479" height="333" as="geometry">
            <mxRectangle width="479" height="333" as="alternateBounds" />
          </mxGeometry>
        </mxCell>
        <mxCell id="dhI3B1pzcQXHYzO1v27A-219" value="" style="shape=tableRow;horizontal=0;startSize=0;swimlaneHead=0;swimlaneBody=0;top=0;left=0;bottom=0;right=0;dropTarget=0;collapsible=0;recursiveResize=0;expand=0;fontStyle=1;strokeColor=inherit;fillColor=#EAF2D3;" vertex="1" parent="dhI3B1pzcQXHYzO1v27A-198">
          <mxGeometry y="1679" width="1285.2194411038004" height="338" as="geometry" />
        </mxCell>
        <mxCell id="dhI3B1pzcQXHYzO1v27A-220" value="&lt;span style=&quot;font-size: 200px;&quot;&gt;0&lt;/span&gt;" style="connectable=0;recursiveResize=0;whiteSpace=wrap;html=1;fontSize=30;strokeColor=default;align=center;verticalAlign=middle;fontFamily=Helvetica;fontColor=light-dark(#000000,#000000);fontStyle=0;fillColor=light-dark(#FFFFFF,#FFFFFF);" vertex="1" parent="dhI3B1pzcQXHYzO1v27A-219">
          <mxGeometry width="308" height="338" as="geometry">
            <mxRectangle width="308" height="338" as="alternateBounds" />
          </mxGeometry>
        </mxCell>
        <mxCell id="dhI3B1pzcQXHYzO1v27A-221" value="&lt;div&gt;&lt;span style=&quot;font-size: 200px;&quot;&gt;0&lt;/span&gt;&lt;/div&gt;" style="connectable=0;recursiveResize=0;whiteSpace=wrap;html=1;fontSize=30;strokeColor=default;align=center;verticalAlign=middle;fontFamily=Helvetica;fontColor=light-dark(#000000,#000000);fontStyle=0;fillColor=light-dark(#FFFFFF,#FFFFFF);" vertex="1" parent="dhI3B1pzcQXHYzO1v27A-219">
          <mxGeometry x="308" width="498" height="338" as="geometry">
            <mxRectangle width="498" height="338" as="alternateBounds" />
          </mxGeometry>
        </mxCell>
        <mxCell id="dhI3B1pzcQXHYzO1v27A-222" value="&lt;span style=&quot;font-size: 200px;&quot;&gt;0&lt;/span&gt;" style="connectable=0;recursiveResize=0;whiteSpace=wrap;html=1;fontSize=30;strokeColor=default;align=center;verticalAlign=middle;fontFamily=Helvetica;fontColor=light-dark(#000000,#000000);fontStyle=0;fillColor=light-dark(#FFFFFF,#FFFFFF);" vertex="1" parent="dhI3B1pzcQXHYzO1v27A-219">
          <mxGeometry x="806" width="479" height="338" as="geometry">
            <mxRectangle width="479" height="338" as="alternateBounds" />
          </mxGeometry>
        </mxCell>
        <mxCell id="dhI3B1pzcQXHYzO1v27A-223" value="" style="shape=tableRow;horizontal=0;startSize=0;swimlaneHead=0;swimlaneBody=0;top=0;left=0;bottom=0;right=0;dropTarget=0;collapsible=0;recursiveResize=0;expand=0;fontStyle=1;strokeColor=inherit;fillColor=#EAF2D3;" vertex="1" parent="dhI3B1pzcQXHYzO1v27A-198">
          <mxGeometry y="2017" width="1285.2194411038004" height="335" as="geometry" />
        </mxCell>
        <mxCell id="dhI3B1pzcQXHYzO1v27A-224" value="&lt;span style=&quot;font-size: 200px;&quot;&gt;01&lt;/span&gt;" style="connectable=0;recursiveResize=0;strokeColor=default;fillColor=light-dark(#FFFFFF,#CCFFCC);whiteSpace=wrap;html=1;fontSize=30;align=center;verticalAlign=middle;fontFamily=Helvetica;fontColor=light-dark(#000000,#000000);" vertex="1" parent="dhI3B1pzcQXHYzO1v27A-223">
          <mxGeometry width="308" height="335" as="geometry">
            <mxRectangle width="308" height="335" as="alternateBounds" />
          </mxGeometry>
        </mxCell>
        <mxCell id="dhI3B1pzcQXHYzO1v27A-225" value="&lt;div&gt;&lt;span style=&quot;font-size: 200px;&quot;&gt;01&lt;/span&gt;&lt;/div&gt;" style="connectable=0;recursiveResize=0;strokeColor=default;fillColor=light-dark(#FFFFFF,#CCFFCC);whiteSpace=wrap;html=1;fontSize=30;align=center;verticalAlign=middle;fontFamily=Helvetica;fontColor=light-dark(#000000,#000000);" vertex="1" parent="dhI3B1pzcQXHYzO1v27A-223">
          <mxGeometry x="308" width="498" height="335" as="geometry">
            <mxRectangle width="498" height="335" as="alternateBounds" />
          </mxGeometry>
        </mxCell>
        <mxCell id="dhI3B1pzcQXHYzO1v27A-226" value="&lt;span style=&quot;font-size: 200px;&quot;&gt;0&lt;/span&gt;" style="connectable=0;recursiveResize=0;strokeColor=default;fillColor=light-dark(#FFFFFF,#FFFFFF);whiteSpace=wrap;html=1;fontSize=30;align=center;verticalAlign=middle;fontFamily=Helvetica;fontColor=light-dark(#000000,#000000);fontStyle=0;" vertex="1" parent="dhI3B1pzcQXHYzO1v27A-223">
          <mxGeometry x="806" width="479" height="335" as="geometry">
            <mxRectangle width="479" height="335" as="alternateBounds" />
          </mxGeometry>
        </mxCell>
        <mxCell id="dhI3B1pzcQXHYzO1v27A-227" value="" style="shape=tableRow;horizontal=0;startSize=0;swimlaneHead=0;swimlaneBody=0;top=0;left=0;bottom=0;right=0;dropTarget=0;collapsible=0;recursiveResize=0;expand=0;fontStyle=1;strokeColor=inherit;fillColor=#EAF2D3;" vertex="1" parent="dhI3B1pzcQXHYzO1v27A-198">
          <mxGeometry y="2352" width="1285.2194411038004" height="338" as="geometry" />
        </mxCell>
        <mxCell id="dhI3B1pzcQXHYzO1v27A-228" value="&lt;div&gt;&lt;span style=&quot;font-size: 200px;&quot;&gt;0&lt;/span&gt;&lt;/div&gt;" style="connectable=0;recursiveResize=0;whiteSpace=wrap;html=1;fontSize=30;strokeColor=default;align=center;verticalAlign=middle;fontFamily=Helvetica;fontColor=light-dark(#000000,#000000);fontStyle=0;fillColor=light-dark(#FFFFFF,#FFFFFF);" vertex="1" parent="dhI3B1pzcQXHYzO1v27A-227">
          <mxGeometry width="308" height="338" as="geometry">
            <mxRectangle width="308" height="338" as="alternateBounds" />
          </mxGeometry>
        </mxCell>
        <mxCell id="dhI3B1pzcQXHYzO1v27A-229" value="&lt;div&gt;&lt;span style=&quot;font-size: 200px;&quot;&gt;0&lt;/span&gt;&lt;/div&gt;" style="connectable=0;recursiveResize=0;whiteSpace=wrap;html=1;fontSize=30;strokeColor=default;align=center;verticalAlign=middle;fontFamily=Helvetica;fontColor=light-dark(#000000,#000000);fontStyle=0;fillColor=light-dark(#FFFFFF,#FFFFFF);" vertex="1" parent="dhI3B1pzcQXHYzO1v27A-227">
          <mxGeometry x="308" width="498" height="338" as="geometry">
            <mxRectangle width="498" height="338" as="alternateBounds" />
          </mxGeometry>
        </mxCell>
        <mxCell id="dhI3B1pzcQXHYzO1v27A-230" value="&lt;span style=&quot;font-size: 200px;&quot;&gt;0&lt;/span&gt;" style="connectable=0;recursiveResize=0;whiteSpace=wrap;html=1;fontSize=30;strokeColor=default;align=center;verticalAlign=middle;fontFamily=Helvetica;fontColor=light-dark(#000000,#000000);fontStyle=0;fillColor=light-dark(#FFFFFF,#FFFFFF);" vertex="1" parent="dhI3B1pzcQXHYzO1v27A-227">
          <mxGeometry x="806" width="479" height="338" as="geometry">
            <mxRectangle width="479" height="338" as="alternateBounds" />
          </mxGeometry>
        </mxCell>
        <mxCell id="dhI3B1pzcQXHYzO1v27A-231" value="" style="shape=tableRow;horizontal=0;startSize=0;swimlaneHead=0;swimlaneBody=0;top=0;left=0;bottom=0;right=0;dropTarget=0;collapsible=0;recursiveResize=0;expand=0;fontStyle=1;strokeColor=inherit;fillColor=#EAF2D3;" vertex="1" parent="dhI3B1pzcQXHYzO1v27A-198">
          <mxGeometry y="2690" width="1285.2194411038004" height="336" as="geometry" />
        </mxCell>
        <mxCell id="dhI3B1pzcQXHYzO1v27A-232" value="&lt;div&gt;&lt;span style=&quot;font-size: 200px;&quot;&gt;03&lt;/span&gt;&lt;/div&gt;" style="connectable=0;recursiveResize=0;strokeColor=default;fillColor=light-dark(#FFFFFF,#CCFFCC);whiteSpace=wrap;html=1;fontSize=30;align=center;verticalAlign=middle;fontFamily=Helvetica;fontColor=light-dark(#000000,#000000);" vertex="1" parent="dhI3B1pzcQXHYzO1v27A-231">
          <mxGeometry width="308" height="336" as="geometry">
            <mxRectangle width="308" height="336" as="alternateBounds" />
          </mxGeometry>
        </mxCell>
        <mxCell id="dhI3B1pzcQXHYzO1v27A-233" value="&lt;div&gt;&lt;span style=&quot;font-size: 200px;&quot;&gt;02&lt;/span&gt;&lt;/div&gt;" style="connectable=0;recursiveResize=0;strokeColor=default;fillColor=light-dark(#FFFFFF,#CCFFCC);whiteSpace=wrap;html=1;fontSize=30;align=center;verticalAlign=middle;fontFamily=Helvetica;fontColor=light-dark(#000000,#000000);" vertex="1" parent="dhI3B1pzcQXHYzO1v27A-231">
          <mxGeometry x="308" width="498" height="336" as="geometry">
            <mxRectangle width="498" height="336" as="alternateBounds" />
          </mxGeometry>
        </mxCell>
        <mxCell id="dhI3B1pzcQXHYzO1v27A-234" value="&lt;span style=&quot;font-size: 200px;&quot;&gt;0&lt;/span&gt;" style="connectable=0;recursiveResize=0;strokeColor=default;fillColor=light-dark(#FFFFFF,#FFFFFF);whiteSpace=wrap;html=1;fontSize=30;align=center;verticalAlign=middle;fontFamily=Helvetica;fontColor=light-dark(#000000,#000000);fontStyle=0;" vertex="1" parent="dhI3B1pzcQXHYzO1v27A-231">
          <mxGeometry x="806" width="479" height="336" as="geometry">
            <mxRectangle width="479" height="336" as="alternateBounds" />
          </mxGeometry>
        </mxCell>
        <mxCell id="dhI3B1pzcQXHYzO1v27A-235" value="" style="shape=tableRow;horizontal=0;startSize=0;swimlaneHead=0;swimlaneBody=0;top=0;left=0;bottom=0;right=0;dropTarget=0;collapsible=0;recursiveResize=0;expand=0;fontStyle=1;strokeColor=inherit;fillColor=#EAF2D3;" vertex="1" parent="dhI3B1pzcQXHYzO1v27A-198">
          <mxGeometry y="3026" width="1285.2194411038004" height="337" as="geometry" />
        </mxCell>
        <mxCell id="dhI3B1pzcQXHYzO1v27A-236" value="&lt;div&gt;&lt;span style=&quot;font-size: 200px;&quot;&gt;0&lt;/span&gt;&lt;/div&gt;" style="connectable=0;recursiveResize=0;whiteSpace=wrap;html=1;fontSize=30;strokeColor=default;align=center;verticalAlign=middle;fontFamily=Helvetica;fontColor=light-dark(#000000,#000000);fontStyle=0;fillColor=light-dark(#FFFFFF,#FFFFFF);" vertex="1" parent="dhI3B1pzcQXHYzO1v27A-235">
          <mxGeometry width="308" height="337" as="geometry">
            <mxRectangle width="308" height="337" as="alternateBounds" />
          </mxGeometry>
        </mxCell>
        <mxCell id="dhI3B1pzcQXHYzO1v27A-237" value="&lt;div&gt;&lt;span style=&quot;font-size: 200px;&quot;&gt;0&lt;/span&gt;&lt;/div&gt;" style="connectable=0;recursiveResize=0;whiteSpace=wrap;html=1;fontSize=30;strokeColor=default;align=center;verticalAlign=middle;fontFamily=Helvetica;fontColor=light-dark(#000000,#000000);fontStyle=0;fillColor=light-dark(#FFFFFF,#FFFFFF);" vertex="1" parent="dhI3B1pzcQXHYzO1v27A-235">
          <mxGeometry x="308" width="498" height="337" as="geometry">
            <mxRectangle width="498" height="337" as="alternateBounds" />
          </mxGeometry>
        </mxCell>
        <mxCell id="dhI3B1pzcQXHYzO1v27A-238" value="&lt;span style=&quot;font-size: 200px;&quot;&gt;0&lt;/span&gt;" style="connectable=0;recursiveResize=0;whiteSpace=wrap;html=1;fontSize=30;strokeColor=default;align=center;verticalAlign=middle;fontFamily=Helvetica;fontColor=light-dark(#000000,#000000);fontStyle=0;fillColor=light-dark(#FFFFFF,#FFFFFF);" vertex="1" parent="dhI3B1pzcQXHYzO1v27A-235">
          <mxGeometry x="806" width="479" height="337" as="geometry">
            <mxRectangle width="479" height="337" as="alternateBounds" />
          </mxGeometry>
        </mxCell>
        <mxCell id="dhI3B1pzcQXHYzO1v27A-239" value="" style="shape=tableRow;horizontal=0;startSize=0;swimlaneHead=0;swimlaneBody=0;top=0;left=0;bottom=0;right=0;dropTarget=0;collapsible=0;recursiveResize=0;expand=0;fontStyle=1;strokeColor=inherit;fillColor=#EAF2D3;" vertex="1" parent="dhI3B1pzcQXHYzO1v27A-198">
          <mxGeometry y="3363" width="1285.2194411038004" height="334" as="geometry" />
        </mxCell>
        <mxCell id="dhI3B1pzcQXHYzO1v27A-240" value="&lt;div&gt;&lt;span style=&quot;font-size: 200px;&quot;&gt;0&lt;/span&gt;&lt;/div&gt;" style="connectable=0;recursiveResize=0;strokeColor=default;fillColor=light-dark(#FFFFFF,#FFFFFF);whiteSpace=wrap;html=1;fontSize=30;align=center;verticalAlign=middle;fontFamily=Helvetica;fontColor=light-dark(#000000,#000000);fontStyle=0;" vertex="1" parent="dhI3B1pzcQXHYzO1v27A-239">
          <mxGeometry width="308" height="334" as="geometry">
            <mxRectangle width="308" height="334" as="alternateBounds" />
          </mxGeometry>
        </mxCell>
        <mxCell id="dhI3B1pzcQXHYzO1v27A-241" value="&lt;div&gt;&lt;span style=&quot;font-size: 200px;&quot;&gt;0&lt;/span&gt;&lt;/div&gt;" style="connectable=0;recursiveResize=0;strokeColor=default;fillColor=light-dark(#FFFFFF,#FFFFFF);whiteSpace=wrap;html=1;fontSize=30;align=center;verticalAlign=middle;fontFamily=Helvetica;fontColor=light-dark(#000000,#000000);fontStyle=0;" vertex="1" parent="dhI3B1pzcQXHYzO1v27A-239">
          <mxGeometry x="308" width="498" height="334" as="geometry">
            <mxRectangle width="498" height="334" as="alternateBounds" />
          </mxGeometry>
        </mxCell>
        <mxCell id="dhI3B1pzcQXHYzO1v27A-242" value="&lt;span style=&quot;font-size: 200px;&quot;&gt;02&lt;/span&gt;" style="connectable=0;recursiveResize=0;strokeColor=default;fillColor=light-dark(#FFFFFF,#CCFFCC);whiteSpace=wrap;html=1;fontSize=30;align=center;verticalAlign=middle;fontFamily=Helvetica;fontColor=light-dark(#000000,#000000);" vertex="1" parent="dhI3B1pzcQXHYzO1v27A-239">
          <mxGeometry x="806" width="479" height="334" as="geometry">
            <mxRectangle width="479" height="334" as="alternateBounds" />
          </mxGeometry>
        </mxCell>
        <mxCell id="dhI3B1pzcQXHYzO1v27A-243" value="" style="shape=tableRow;horizontal=0;startSize=0;swimlaneHead=0;swimlaneBody=0;top=0;left=0;bottom=0;right=0;dropTarget=0;collapsible=0;recursiveResize=0;expand=0;fontStyle=1;strokeColor=inherit;fillColor=#EAF2D3;" vertex="1" parent="dhI3B1pzcQXHYzO1v27A-198">
          <mxGeometry y="3697" width="1285.2194411038004" height="340" as="geometry" />
        </mxCell>
        <mxCell id="dhI3B1pzcQXHYzO1v27A-244" value="&lt;div&gt;&lt;span style=&quot;font-size: 200px;&quot;&gt;0&lt;/span&gt;&lt;/div&gt;" style="connectable=0;recursiveResize=0;whiteSpace=wrap;html=1;fontSize=30;strokeColor=default;align=center;verticalAlign=middle;fontFamily=Helvetica;fontColor=light-dark(#000000,#000000);fontStyle=0;fillColor=light-dark(#FFFFFF,#FFFFFF);" vertex="1" parent="dhI3B1pzcQXHYzO1v27A-243">
          <mxGeometry width="308" height="340" as="geometry">
            <mxRectangle width="308" height="340" as="alternateBounds" />
          </mxGeometry>
        </mxCell>
        <mxCell id="dhI3B1pzcQXHYzO1v27A-245" value="&lt;div&gt;&lt;span style=&quot;font-size: 200px;&quot;&gt;0&lt;/span&gt;&lt;/div&gt;" style="connectable=0;recursiveResize=0;whiteSpace=wrap;html=1;fontSize=30;strokeColor=default;align=center;verticalAlign=middle;fontFamily=Helvetica;fontColor=light-dark(#000000,#000000);fontStyle=0;fillColor=light-dark(#FFFFFF,#FFFFFF);" vertex="1" parent="dhI3B1pzcQXHYzO1v27A-243">
          <mxGeometry x="308" width="498" height="340" as="geometry">
            <mxRectangle width="498" height="340" as="alternateBounds" />
          </mxGeometry>
        </mxCell>
        <mxCell id="dhI3B1pzcQXHYzO1v27A-246" value="&lt;span style=&quot;font-size: 200px;&quot;&gt;0&lt;/span&gt;" style="connectable=0;recursiveResize=0;whiteSpace=wrap;html=1;fontSize=30;strokeColor=default;align=center;verticalAlign=middle;fontFamily=Helvetica;fontColor=light-dark(#000000,#000000);fontStyle=0;fillColor=light-dark(#FFFFFF,#FFFFFF);" vertex="1" parent="dhI3B1pzcQXHYzO1v27A-243">
          <mxGeometry x="806" width="479" height="340" as="geometry">
            <mxRectangle width="479" height="340" as="alternateBounds" />
          </mxGeometry>
        </mxCell>
        <mxCell id="dhI3B1pzcQXHYzO1v27A-247" value="" style="shape=tableRow;horizontal=0;startSize=0;swimlaneHead=0;swimlaneBody=0;top=0;left=0;bottom=0;right=0;dropTarget=0;collapsible=0;recursiveResize=0;expand=0;fontStyle=1;strokeColor=inherit;fillColor=#EAF2D3;" vertex="1" parent="dhI3B1pzcQXHYzO1v27A-198">
          <mxGeometry y="4037" width="1285.2194411038004" height="335" as="geometry" />
        </mxCell>
        <mxCell id="dhI3B1pzcQXHYzO1v27A-248" value="&lt;div&gt;&lt;span style=&quot;font-size: 200px;&quot;&gt;01&lt;/span&gt;&lt;/div&gt;" style="connectable=0;recursiveResize=0;strokeColor=default;fillColor=light-dark(#FFFFFF,#CCFFCC);whiteSpace=wrap;html=1;fontSize=30;align=center;verticalAlign=middle;fontFamily=Helvetica;fontColor=light-dark(#000000,#000000);" vertex="1" parent="dhI3B1pzcQXHYzO1v27A-247">
          <mxGeometry width="308" height="335" as="geometry">
            <mxRectangle width="308" height="335" as="alternateBounds" />
          </mxGeometry>
        </mxCell>
        <mxCell id="dhI3B1pzcQXHYzO1v27A-249" value="&lt;div&gt;&lt;span style=&quot;font-size: 200px;&quot;&gt;01&lt;/span&gt;&lt;/div&gt;" style="connectable=0;recursiveResize=0;strokeColor=default;fillColor=light-dark(#FFFFFF,#CCFFCC);whiteSpace=wrap;html=1;fontSize=30;align=center;verticalAlign=middle;fontFamily=Helvetica;fontColor=light-dark(#000000,#000000);" vertex="1" parent="dhI3B1pzcQXHYzO1v27A-247">
          <mxGeometry x="308" width="498" height="335" as="geometry">
            <mxRectangle width="498" height="335" as="alternateBounds" />
          </mxGeometry>
        </mxCell>
        <mxCell id="dhI3B1pzcQXHYzO1v27A-250" value="&lt;span style=&quot;font-size: 200px;&quot;&gt;0&lt;/span&gt;" style="connectable=0;recursiveResize=0;strokeColor=default;fillColor=light-dark(#FFFFFF,#FFFFFF);whiteSpace=wrap;html=1;fontSize=30;align=center;verticalAlign=middle;fontFamily=Helvetica;fontColor=light-dark(#000000,#000000);fontStyle=0;" vertex="1" parent="dhI3B1pzcQXHYzO1v27A-247">
          <mxGeometry x="806" width="479" height="335" as="geometry">
            <mxRectangle width="479" height="335" as="alternateBounds" />
          </mxGeometry>
        </mxCell>
        <mxCell id="dhI3B1pzcQXHYzO1v27A-251" value="Assets" style="childLayout=tableLayout;recursiveResize=0;strokeColor=#98bf21;fillColor=#A7C942;shadow=1;" vertex="1" parent="dhI3B1pzcQXHYzO1v27A-1">
          <mxGeometry x="7015.156116024909" y="1731.9216687812893" width="1178.1178210118167" height="4371.841105661509" as="geometry" />
        </mxCell>
        <mxCell id="dhI3B1pzcQXHYzO1v27A-252" style="shape=tableRow;horizontal=0;startSize=0;swimlaneHead=0;swimlaneBody=0;top=0;left=0;bottom=0;right=0;dropTarget=0;collapsible=0;recursiveResize=0;expand=0;fontStyle=0;strokeColor=inherit;fillColor=#ffffff;" vertex="1" parent="dhI3B1pzcQXHYzO1v27A-251">
          <mxGeometry width="1178.1178210118167" height="285" as="geometry" />
        </mxCell>
        <mxCell id="dhI3B1pzcQXHYzO1v27A-253" value="&lt;span style=&quot;color: rgb(255, 255, 255); text-wrap-mode: wrap;&quot;&gt;&lt;font style=&quot;font-size: 70px;&quot;&gt;Fuzzing&lt;/font&gt;&lt;/span&gt;" style="connectable=0;recursiveResize=0;strokeColor=inherit;fillColor=light-dark(#A7C942,#FFFFFF);align=center;fontStyle=1;fontColor=#FFFFFF;html=1;" vertex="1" parent="dhI3B1pzcQXHYzO1v27A-252">
          <mxGeometry width="375" height="285" as="geometry">
            <mxRectangle width="375" height="285" as="alternateBounds" />
          </mxGeometry>
        </mxCell>
        <mxCell id="dhI3B1pzcQXHYzO1v27A-254" value="&lt;span style=&quot;color: rgb(255, 255, 255); text-wrap-mode: wrap;&quot;&gt;&lt;font style=&quot;font-size: 70px;&quot;&gt;Test Case Generation&lt;/font&gt;&lt;/span&gt;" style="connectable=0;recursiveResize=0;strokeColor=inherit;fillColor=light-dark(#A7C942,#FFFFFF);align=center;fontStyle=1;fontColor=#FFFFFF;html=1;" vertex="1" parent="dhI3B1pzcQXHYzO1v27A-252">
          <mxGeometry x="375" width="429" height="285" as="geometry">
            <mxRectangle width="429" height="285" as="alternateBounds" />
          </mxGeometry>
        </mxCell>
        <mxCell id="dhI3B1pzcQXHYzO1v27A-255" value="&lt;span style=&quot;color: rgb(255, 255, 255); text-wrap-mode: wrap;&quot;&gt;&lt;font style=&quot;font-size: 70px;&quot;&gt;Red Teaming&lt;/font&gt;&lt;/span&gt;" style="connectable=0;recursiveResize=0;strokeColor=inherit;fillColor=light-dark(#A7C942,#FFFFFF);align=center;fontStyle=1;fontColor=#FFFFFF;html=1;" vertex="1" parent="dhI3B1pzcQXHYzO1v27A-252">
          <mxGeometry x="804" width="374" height="285" as="geometry">
            <mxRectangle width="374" height="285" as="alternateBounds" />
          </mxGeometry>
        </mxCell>
        <mxCell id="dhI3B1pzcQXHYzO1v27A-256" value="" style="shape=tableRow;horizontal=0;startSize=0;swimlaneHead=0;swimlaneBody=0;top=0;left=0;bottom=0;right=0;dropTarget=0;collapsible=0;recursiveResize=0;expand=0;fontStyle=0;strokeColor=inherit;fillColor=#ffffff;" vertex="1" parent="dhI3B1pzcQXHYzO1v27A-251">
          <mxGeometry y="285" width="1178.1178210118167" height="388" as="geometry" />
        </mxCell>
        <mxCell id="dhI3B1pzcQXHYzO1v27A-257" value="&lt;span style=&quot;font-size: 200px;&quot;&gt;0&lt;/span&gt;" style="connectable=0;recursiveResize=0;strokeColor=default;fillColor=light-dark(#FFFFFF,#FFFFFF);align=center;whiteSpace=wrap;html=1;fontSize=30;verticalAlign=middle;fontFamily=Helvetica;fontColor=light-dark(#000000,#000000);fontStyle=0;" vertex="1" parent="dhI3B1pzcQXHYzO1v27A-256">
          <mxGeometry width="375" height="388" as="geometry">
            <mxRectangle width="375" height="388" as="alternateBounds" />
          </mxGeometry>
        </mxCell>
        <mxCell id="dhI3B1pzcQXHYzO1v27A-258" value="&lt;span style=&quot;font-size: 200px;&quot;&gt;0&lt;/span&gt;" style="connectable=0;recursiveResize=0;strokeColor=default;fillColor=light-dark(#FFFFFF,#FFFFFF);align=center;whiteSpace=wrap;html=1;fontSize=30;verticalAlign=middle;fontFamily=Helvetica;fontColor=light-dark(#000000,#000000);fontStyle=0;" vertex="1" parent="dhI3B1pzcQXHYzO1v27A-256">
          <mxGeometry x="375" width="429" height="388" as="geometry">
            <mxRectangle width="429" height="388" as="alternateBounds" />
          </mxGeometry>
        </mxCell>
        <mxCell id="dhI3B1pzcQXHYzO1v27A-259" value="&lt;span style=&quot;font-size: 200px;&quot;&gt;0&lt;/span&gt;" style="connectable=0;recursiveResize=0;strokeColor=default;fillColor=light-dark(#FFFFFF,#FFFFFF);align=center;whiteSpace=wrap;html=1;fontSize=30;verticalAlign=middle;fontFamily=Helvetica;fontColor=light-dark(#000000,#000000);fontStyle=0;" vertex="1" parent="dhI3B1pzcQXHYzO1v27A-256">
          <mxGeometry x="804" width="374" height="388" as="geometry">
            <mxRectangle width="374" height="388" as="alternateBounds" />
          </mxGeometry>
        </mxCell>
        <mxCell id="dhI3B1pzcQXHYzO1v27A-260" value="" style="shape=tableRow;horizontal=0;startSize=0;swimlaneHead=0;swimlaneBody=0;top=0;left=0;bottom=0;right=0;dropTarget=0;collapsible=0;recursiveResize=0;expand=0;fontStyle=1;strokeColor=inherit;fillColor=#EAF2D3;" vertex="1" parent="dhI3B1pzcQXHYzO1v27A-251">
          <mxGeometry y="673" width="1178.1178210118167" height="334" as="geometry" />
        </mxCell>
        <mxCell id="dhI3B1pzcQXHYzO1v27A-261" value="&lt;span style=&quot;font-size: 200px;&quot;&gt;0&lt;/span&gt;" style="connectable=0;recursiveResize=0;strokeColor=default;fillColor=light-dark(#FFFFFF,#FFFFFF);whiteSpace=wrap;html=1;fontSize=30;align=center;verticalAlign=middle;fontFamily=Helvetica;fontColor=light-dark(#000000,#000000);fontStyle=0;" vertex="1" parent="dhI3B1pzcQXHYzO1v27A-260">
          <mxGeometry width="375" height="334" as="geometry">
            <mxRectangle width="375" height="334" as="alternateBounds" />
          </mxGeometry>
        </mxCell>
        <mxCell id="dhI3B1pzcQXHYzO1v27A-262" value="&lt;span style=&quot;font-size: 200px;&quot;&gt;01&lt;/span&gt;" style="connectable=0;recursiveResize=0;strokeColor=default;fillColor=light-dark(#FFFFFF,#CCFFCC);whiteSpace=wrap;html=1;fontSize=30;align=center;verticalAlign=middle;fontFamily=Helvetica;fontColor=light-dark(#000000,#000000);" vertex="1" parent="dhI3B1pzcQXHYzO1v27A-260">
          <mxGeometry x="375" width="429" height="334" as="geometry">
            <mxRectangle width="429" height="334" as="alternateBounds" />
          </mxGeometry>
        </mxCell>
        <mxCell id="dhI3B1pzcQXHYzO1v27A-263" value="&lt;span style=&quot;font-size: 200px;&quot;&gt;0&lt;/span&gt;" style="connectable=0;recursiveResize=0;strokeColor=default;fillColor=light-dark(#FFFFFF,#FFFFFF);whiteSpace=wrap;html=1;fontSize=30;align=center;verticalAlign=middle;fontFamily=Helvetica;fontColor=light-dark(#000000,#000000);fontStyle=0;" vertex="1" parent="dhI3B1pzcQXHYzO1v27A-260">
          <mxGeometry x="804" width="374" height="334" as="geometry">
            <mxRectangle width="374" height="334" as="alternateBounds" />
          </mxGeometry>
        </mxCell>
        <mxCell id="dhI3B1pzcQXHYzO1v27A-264" value="" style="shape=tableRow;horizontal=0;startSize=0;swimlaneHead=0;swimlaneBody=0;top=0;left=0;bottom=0;right=0;dropTarget=0;collapsible=0;recursiveResize=0;expand=0;fontStyle=0;strokeColor=inherit;fillColor=#ffffff;" vertex="1" parent="dhI3B1pzcQXHYzO1v27A-251">
          <mxGeometry y="1007" width="1178.1178210118167" height="339" as="geometry" />
        </mxCell>
        <mxCell id="dhI3B1pzcQXHYzO1v27A-265" value="&lt;span style=&quot;font-size: 200px;&quot;&gt;01&lt;/span&gt;" style="connectable=0;recursiveResize=0;strokeColor=default;fillColor=light-dark(#FFFFFF,#CCFFCC);fontStyle=0;align=center;whiteSpace=wrap;html=1;fontSize=30;verticalAlign=middle;fontFamily=Helvetica;fontColor=light-dark(#000000,#000000);" vertex="1" parent="dhI3B1pzcQXHYzO1v27A-264">
          <mxGeometry width="375" height="339" as="geometry">
            <mxRectangle width="375" height="339" as="alternateBounds" />
          </mxGeometry>
        </mxCell>
        <mxCell id="dhI3B1pzcQXHYzO1v27A-266" value="&lt;span style=&quot;font-size: 200px;&quot;&gt;0&lt;/span&gt;" style="connectable=0;recursiveResize=0;strokeColor=default;fillColor=light-dark(#FFFFFF,#FFFFFF);fontStyle=0;align=center;whiteSpace=wrap;html=1;fontSize=30;verticalAlign=middle;fontFamily=Helvetica;fontColor=light-dark(#000000,#000000);" vertex="1" parent="dhI3B1pzcQXHYzO1v27A-264">
          <mxGeometry x="375" width="429" height="339" as="geometry">
            <mxRectangle width="429" height="339" as="alternateBounds" />
          </mxGeometry>
        </mxCell>
        <mxCell id="dhI3B1pzcQXHYzO1v27A-267" value="&lt;span style=&quot;font-size: 200px;&quot;&gt;0&lt;/span&gt;" style="connectable=0;recursiveResize=0;strokeColor=default;fillColor=light-dark(#FFFFFF,#FFFFFF);fontStyle=0;align=center;whiteSpace=wrap;html=1;fontSize=30;verticalAlign=middle;fontFamily=Helvetica;fontColor=light-dark(#000000,#000000);" vertex="1" parent="dhI3B1pzcQXHYzO1v27A-264">
          <mxGeometry x="804" width="374" height="339" as="geometry">
            <mxRectangle width="374" height="339" as="alternateBounds" />
          </mxGeometry>
        </mxCell>
        <mxCell id="dhI3B1pzcQXHYzO1v27A-268" value="" style="shape=tableRow;horizontal=0;startSize=0;swimlaneHead=0;swimlaneBody=0;top=0;left=0;bottom=0;right=0;dropTarget=0;collapsible=0;recursiveResize=0;expand=0;fontStyle=1;strokeColor=inherit;fillColor=#EAF2D3;" vertex="1" parent="dhI3B1pzcQXHYzO1v27A-251">
          <mxGeometry y="1346" width="1178.1178210118167" height="333" as="geometry" />
        </mxCell>
        <mxCell id="dhI3B1pzcQXHYzO1v27A-269" value="&lt;span style=&quot;font-size: 200px;&quot;&gt;03&lt;/span&gt;" style="connectable=0;recursiveResize=0;strokeColor=default;fillColor=light-dark(#FFFFFF,#CCFFCC);whiteSpace=wrap;html=1;fontSize=30;align=center;verticalAlign=middle;fontFamily=Helvetica;fontColor=light-dark(#000000,#000000);" vertex="1" parent="dhI3B1pzcQXHYzO1v27A-268">
          <mxGeometry width="375" height="333" as="geometry">
            <mxRectangle width="375" height="333" as="alternateBounds" />
          </mxGeometry>
        </mxCell>
        <mxCell id="dhI3B1pzcQXHYzO1v27A-270" value="&lt;span style=&quot;font-size: 200px;&quot;&gt;03&lt;/span&gt;" style="connectable=0;recursiveResize=0;strokeColor=default;fillColor=light-dark(#FFFFFF,#CCFFCC);whiteSpace=wrap;html=1;fontSize=30;align=center;verticalAlign=middle;fontFamily=Helvetica;fontColor=light-dark(#000000,#000000);" vertex="1" parent="dhI3B1pzcQXHYzO1v27A-268">
          <mxGeometry x="375" width="429" height="333" as="geometry">
            <mxRectangle width="429" height="333" as="alternateBounds" />
          </mxGeometry>
        </mxCell>
        <mxCell id="dhI3B1pzcQXHYzO1v27A-271" value="&lt;span style=&quot;font-size: 200px;&quot;&gt;0&lt;/span&gt;" style="connectable=0;recursiveResize=0;strokeColor=default;fillColor=light-dark(#FFFFFF,#FFFFFF);whiteSpace=wrap;html=1;fontSize=30;align=center;verticalAlign=middle;fontFamily=Helvetica;fontColor=light-dark(#000000,#000000);fontStyle=0;" vertex="1" parent="dhI3B1pzcQXHYzO1v27A-268">
          <mxGeometry x="804" width="374" height="333" as="geometry">
            <mxRectangle width="374" height="333" as="alternateBounds" />
          </mxGeometry>
        </mxCell>
        <mxCell id="dhI3B1pzcQXHYzO1v27A-272" value="" style="shape=tableRow;horizontal=0;startSize=0;swimlaneHead=0;swimlaneBody=0;top=0;left=0;bottom=0;right=0;dropTarget=0;collapsible=0;recursiveResize=0;expand=0;fontStyle=1;strokeColor=inherit;fillColor=#EAF2D3;" vertex="1" parent="dhI3B1pzcQXHYzO1v27A-251">
          <mxGeometry y="1679" width="1178.1178210118167" height="338" as="geometry" />
        </mxCell>
        <mxCell id="dhI3B1pzcQXHYzO1v27A-273" value="&lt;span style=&quot;font-size: 200px;&quot;&gt;0&lt;/span&gt;" style="connectable=0;recursiveResize=0;whiteSpace=wrap;html=1;fontSize=30;strokeColor=default;align=center;verticalAlign=middle;fontFamily=Helvetica;fontColor=light-dark(#000000,#000000);fontStyle=0;fillColor=light-dark(#FFFFFF,#FFFFFF);" vertex="1" parent="dhI3B1pzcQXHYzO1v27A-272">
          <mxGeometry width="375" height="338" as="geometry">
            <mxRectangle width="375" height="338" as="alternateBounds" />
          </mxGeometry>
        </mxCell>
        <mxCell id="dhI3B1pzcQXHYzO1v27A-274" value="&lt;div&gt;&lt;span style=&quot;font-size: 200px;&quot;&gt;0&lt;/span&gt;&lt;/div&gt;" style="connectable=0;recursiveResize=0;whiteSpace=wrap;html=1;fontSize=30;strokeColor=default;align=center;verticalAlign=middle;fontFamily=Helvetica;fontColor=light-dark(#000000,#000000);fontStyle=0;fillColor=light-dark(#FFFFFF,#FFFFFF);" vertex="1" parent="dhI3B1pzcQXHYzO1v27A-272">
          <mxGeometry x="375" width="429" height="338" as="geometry">
            <mxRectangle width="429" height="338" as="alternateBounds" />
          </mxGeometry>
        </mxCell>
        <mxCell id="dhI3B1pzcQXHYzO1v27A-275" value="&lt;span style=&quot;font-size: 200px;&quot;&gt;0&lt;/span&gt;" style="connectable=0;recursiveResize=0;whiteSpace=wrap;html=1;fontSize=30;strokeColor=default;align=center;verticalAlign=middle;fontFamily=Helvetica;fontColor=light-dark(#000000,#000000);fontStyle=0;fillColor=light-dark(#FFFFFF,#FFFFFF);" vertex="1" parent="dhI3B1pzcQXHYzO1v27A-272">
          <mxGeometry x="804" width="374" height="338" as="geometry">
            <mxRectangle width="374" height="338" as="alternateBounds" />
          </mxGeometry>
        </mxCell>
        <mxCell id="dhI3B1pzcQXHYzO1v27A-276" value="" style="shape=tableRow;horizontal=0;startSize=0;swimlaneHead=0;swimlaneBody=0;top=0;left=0;bottom=0;right=0;dropTarget=0;collapsible=0;recursiveResize=0;expand=0;fontStyle=1;strokeColor=inherit;fillColor=#EAF2D3;" vertex="1" parent="dhI3B1pzcQXHYzO1v27A-251">
          <mxGeometry y="2017" width="1178.1178210118167" height="335" as="geometry" />
        </mxCell>
        <mxCell id="dhI3B1pzcQXHYzO1v27A-277" value="&lt;span style=&quot;font-size: 200px;&quot;&gt;01&lt;/span&gt;" style="connectable=0;recursiveResize=0;strokeColor=default;fillColor=light-dark(#FFFFFF,#CCFFCC);whiteSpace=wrap;html=1;fontSize=30;align=center;verticalAlign=middle;fontFamily=Helvetica;fontColor=light-dark(#000000,#000000);" vertex="1" parent="dhI3B1pzcQXHYzO1v27A-276">
          <mxGeometry width="375" height="335" as="geometry">
            <mxRectangle width="375" height="335" as="alternateBounds" />
          </mxGeometry>
        </mxCell>
        <mxCell id="dhI3B1pzcQXHYzO1v27A-278" value="&lt;div&gt;&lt;span style=&quot;font-size: 200px;&quot;&gt;0&lt;/span&gt;&lt;/div&gt;" style="connectable=0;recursiveResize=0;strokeColor=default;fillColor=light-dark(#FFFFFF,#FFFFFF);whiteSpace=wrap;html=1;fontSize=30;align=center;verticalAlign=middle;fontFamily=Helvetica;fontColor=light-dark(#000000,#000000);fontStyle=0;" vertex="1" parent="dhI3B1pzcQXHYzO1v27A-276">
          <mxGeometry x="375" width="429" height="335" as="geometry">
            <mxRectangle width="429" height="335" as="alternateBounds" />
          </mxGeometry>
        </mxCell>
        <mxCell id="dhI3B1pzcQXHYzO1v27A-279" value="&lt;span style=&quot;font-size: 200px;&quot;&gt;06&lt;/span&gt;" style="connectable=0;recursiveResize=0;strokeColor=default;fillColor=light-dark(#FFFFFF,#99FF99);whiteSpace=wrap;html=1;fontSize=30;align=center;verticalAlign=middle;fontFamily=Helvetica;fontColor=light-dark(#000000,#000000);" vertex="1" parent="dhI3B1pzcQXHYzO1v27A-276">
          <mxGeometry x="804" width="374" height="335" as="geometry">
            <mxRectangle width="374" height="335" as="alternateBounds" />
          </mxGeometry>
        </mxCell>
        <mxCell id="dhI3B1pzcQXHYzO1v27A-280" value="" style="shape=tableRow;horizontal=0;startSize=0;swimlaneHead=0;swimlaneBody=0;top=0;left=0;bottom=0;right=0;dropTarget=0;collapsible=0;recursiveResize=0;expand=0;fontStyle=1;strokeColor=inherit;fillColor=#EAF2D3;" vertex="1" parent="dhI3B1pzcQXHYzO1v27A-251">
          <mxGeometry y="2352" width="1178.1178210118167" height="338" as="geometry" />
        </mxCell>
        <mxCell id="dhI3B1pzcQXHYzO1v27A-281" value="&lt;div&gt;&lt;span style=&quot;font-size: 200px;&quot;&gt;0&lt;/span&gt;&lt;/div&gt;" style="connectable=0;recursiveResize=0;whiteSpace=wrap;html=1;fontSize=30;strokeColor=default;align=center;verticalAlign=middle;fontFamily=Helvetica;fontColor=light-dark(#000000,#000000);fontStyle=0;fillColor=light-dark(#FFFFFF,#FFFFFF);" vertex="1" parent="dhI3B1pzcQXHYzO1v27A-280">
          <mxGeometry width="375" height="338" as="geometry">
            <mxRectangle width="375" height="338" as="alternateBounds" />
          </mxGeometry>
        </mxCell>
        <mxCell id="dhI3B1pzcQXHYzO1v27A-282" value="&lt;div&gt;&lt;span style=&quot;font-size: 200px;&quot;&gt;0&lt;/span&gt;&lt;/div&gt;" style="connectable=0;recursiveResize=0;whiteSpace=wrap;html=1;fontSize=30;strokeColor=default;align=center;verticalAlign=middle;fontFamily=Helvetica;fontColor=light-dark(#000000,#000000);fontStyle=0;fillColor=light-dark(#FFFFFF,#FFFFFF);" vertex="1" parent="dhI3B1pzcQXHYzO1v27A-280">
          <mxGeometry x="375" width="429" height="338" as="geometry">
            <mxRectangle width="429" height="338" as="alternateBounds" />
          </mxGeometry>
        </mxCell>
        <mxCell id="dhI3B1pzcQXHYzO1v27A-283" value="&lt;span style=&quot;font-size: 200px;&quot;&gt;03&lt;/span&gt;" style="connectable=0;recursiveResize=0;whiteSpace=wrap;html=1;fontSize=30;strokeColor=default;align=center;verticalAlign=middle;fontFamily=Helvetica;fontColor=light-dark(#000000,#000000);fillColor=light-dark(#FFFFFF,#CCFFCC);" vertex="1" parent="dhI3B1pzcQXHYzO1v27A-280">
          <mxGeometry x="804" width="374" height="338" as="geometry">
            <mxRectangle width="374" height="338" as="alternateBounds" />
          </mxGeometry>
        </mxCell>
        <mxCell id="dhI3B1pzcQXHYzO1v27A-284" value="" style="shape=tableRow;horizontal=0;startSize=0;swimlaneHead=0;swimlaneBody=0;top=0;left=0;bottom=0;right=0;dropTarget=0;collapsible=0;recursiveResize=0;expand=0;fontStyle=1;strokeColor=inherit;fillColor=#EAF2D3;" vertex="1" parent="dhI3B1pzcQXHYzO1v27A-251">
          <mxGeometry y="2690" width="1178.1178210118167" height="336" as="geometry" />
        </mxCell>
        <mxCell id="dhI3B1pzcQXHYzO1v27A-285" value="&lt;div&gt;&lt;span style=&quot;font-size: 200px;&quot;&gt;01&lt;/span&gt;&lt;/div&gt;" style="connectable=0;recursiveResize=0;strokeColor=default;fillColor=light-dark(#FFFFFF,#CCFFCC);whiteSpace=wrap;html=1;fontSize=30;align=center;verticalAlign=middle;fontFamily=Helvetica;fontColor=light-dark(#000000,#000000);" vertex="1" parent="dhI3B1pzcQXHYzO1v27A-284">
          <mxGeometry width="375" height="336" as="geometry">
            <mxRectangle width="375" height="336" as="alternateBounds" />
          </mxGeometry>
        </mxCell>
        <mxCell id="dhI3B1pzcQXHYzO1v27A-286" value="&lt;div&gt;&lt;span style=&quot;font-size: 200px;&quot;&gt;01&lt;/span&gt;&lt;/div&gt;" style="connectable=0;recursiveResize=0;strokeColor=default;fillColor=light-dark(#FFFFFF,#CCFFCC);whiteSpace=wrap;html=1;fontSize=30;align=center;verticalAlign=middle;fontFamily=Helvetica;fontColor=light-dark(#000000,#000000);" vertex="1" parent="dhI3B1pzcQXHYzO1v27A-284">
          <mxGeometry x="375" width="429" height="336" as="geometry">
            <mxRectangle width="429" height="336" as="alternateBounds" />
          </mxGeometry>
        </mxCell>
        <mxCell id="dhI3B1pzcQXHYzO1v27A-287" value="&lt;span style=&quot;font-size: 200px;&quot;&gt;01&lt;/span&gt;" style="connectable=0;recursiveResize=0;strokeColor=default;fillColor=light-dark(#FFFFFF,#CCFFCC);whiteSpace=wrap;html=1;fontSize=30;align=center;verticalAlign=middle;fontFamily=Helvetica;fontColor=light-dark(#000000,#000000);" vertex="1" parent="dhI3B1pzcQXHYzO1v27A-284">
          <mxGeometry x="804" width="374" height="336" as="geometry">
            <mxRectangle width="374" height="336" as="alternateBounds" />
          </mxGeometry>
        </mxCell>
        <mxCell id="dhI3B1pzcQXHYzO1v27A-288" value="" style="shape=tableRow;horizontal=0;startSize=0;swimlaneHead=0;swimlaneBody=0;top=0;left=0;bottom=0;right=0;dropTarget=0;collapsible=0;recursiveResize=0;expand=0;fontStyle=1;strokeColor=inherit;fillColor=#EAF2D3;" vertex="1" parent="dhI3B1pzcQXHYzO1v27A-251">
          <mxGeometry y="3026" width="1178.1178210118167" height="337" as="geometry" />
        </mxCell>
        <mxCell id="dhI3B1pzcQXHYzO1v27A-289" value="&lt;div&gt;&lt;span style=&quot;font-size: 200px;&quot;&gt;0&lt;/span&gt;&lt;/div&gt;" style="connectable=0;recursiveResize=0;whiteSpace=wrap;html=1;fontSize=30;strokeColor=default;align=center;verticalAlign=middle;fontFamily=Helvetica;fontColor=light-dark(#000000,#000000);fontStyle=0;fillColor=light-dark(#FFFFFF,#FFFFFF);" vertex="1" parent="dhI3B1pzcQXHYzO1v27A-288">
          <mxGeometry width="375" height="337" as="geometry">
            <mxRectangle width="375" height="337" as="alternateBounds" />
          </mxGeometry>
        </mxCell>
        <mxCell id="dhI3B1pzcQXHYzO1v27A-290" value="&lt;div&gt;&lt;span style=&quot;font-size: 200px;&quot;&gt;0&lt;/span&gt;&lt;/div&gt;" style="connectable=0;recursiveResize=0;whiteSpace=wrap;html=1;fontSize=30;strokeColor=default;align=center;verticalAlign=middle;fontFamily=Helvetica;fontColor=light-dark(#000000,#000000);fontStyle=0;fillColor=light-dark(#FFFFFF,#FFFFFF);" vertex="1" parent="dhI3B1pzcQXHYzO1v27A-288">
          <mxGeometry x="375" width="429" height="337" as="geometry">
            <mxRectangle width="429" height="337" as="alternateBounds" />
          </mxGeometry>
        </mxCell>
        <mxCell id="dhI3B1pzcQXHYzO1v27A-291" value="&lt;span style=&quot;font-size: 200px;&quot;&gt;0&lt;/span&gt;" style="connectable=0;recursiveResize=0;whiteSpace=wrap;html=1;fontSize=30;strokeColor=default;align=center;verticalAlign=middle;fontFamily=Helvetica;fontColor=light-dark(#000000,#000000);fontStyle=0;fillColor=light-dark(#FFFFFF,#FFFFFF);" vertex="1" parent="dhI3B1pzcQXHYzO1v27A-288">
          <mxGeometry x="804" width="374" height="337" as="geometry">
            <mxRectangle width="374" height="337" as="alternateBounds" />
          </mxGeometry>
        </mxCell>
        <mxCell id="dhI3B1pzcQXHYzO1v27A-292" value="" style="shape=tableRow;horizontal=0;startSize=0;swimlaneHead=0;swimlaneBody=0;top=0;left=0;bottom=0;right=0;dropTarget=0;collapsible=0;recursiveResize=0;expand=0;fontStyle=1;strokeColor=inherit;fillColor=#EAF2D3;" vertex="1" parent="dhI3B1pzcQXHYzO1v27A-251">
          <mxGeometry y="3363" width="1178.1178210118167" height="334" as="geometry" />
        </mxCell>
        <mxCell id="dhI3B1pzcQXHYzO1v27A-293" value="&lt;div&gt;&lt;span style=&quot;font-size: 200px;&quot;&gt;01&lt;/span&gt;&lt;/div&gt;" style="connectable=0;recursiveResize=0;strokeColor=default;fillColor=light-dark(#FFFFFF,#CCFFCC);whiteSpace=wrap;html=1;fontSize=30;align=center;verticalAlign=middle;fontFamily=Helvetica;fontColor=light-dark(#000000,#000000);" vertex="1" parent="dhI3B1pzcQXHYzO1v27A-292">
          <mxGeometry width="375" height="334" as="geometry">
            <mxRectangle width="375" height="334" as="alternateBounds" />
          </mxGeometry>
        </mxCell>
        <mxCell id="dhI3B1pzcQXHYzO1v27A-294" value="&lt;div&gt;&lt;span style=&quot;font-size: 200px;&quot;&gt;0&lt;/span&gt;&lt;/div&gt;" style="connectable=0;recursiveResize=0;strokeColor=default;fillColor=light-dark(#FFFFFF,#FFFFFF);whiteSpace=wrap;html=1;fontSize=30;align=center;verticalAlign=middle;fontFamily=Helvetica;fontColor=light-dark(#000000,#000000);fontStyle=0;" vertex="1" parent="dhI3B1pzcQXHYzO1v27A-292">
          <mxGeometry x="375" width="429" height="334" as="geometry">
            <mxRectangle width="429" height="334" as="alternateBounds" />
          </mxGeometry>
        </mxCell>
        <mxCell id="dhI3B1pzcQXHYzO1v27A-295" value="&lt;span style=&quot;font-size: 200px;&quot;&gt;0&lt;/span&gt;" style="connectable=0;recursiveResize=0;strokeColor=default;fillColor=light-dark(#FFFFFF,#FFFFFF);whiteSpace=wrap;html=1;fontSize=30;align=center;verticalAlign=middle;fontFamily=Helvetica;fontColor=light-dark(#000000,#000000);fontStyle=0;" vertex="1" parent="dhI3B1pzcQXHYzO1v27A-292">
          <mxGeometry x="804" width="374" height="334" as="geometry">
            <mxRectangle width="374" height="334" as="alternateBounds" />
          </mxGeometry>
        </mxCell>
        <mxCell id="dhI3B1pzcQXHYzO1v27A-296" value="" style="shape=tableRow;horizontal=0;startSize=0;swimlaneHead=0;swimlaneBody=0;top=0;left=0;bottom=0;right=0;dropTarget=0;collapsible=0;recursiveResize=0;expand=0;fontStyle=1;strokeColor=inherit;fillColor=#EAF2D3;" vertex="1" parent="dhI3B1pzcQXHYzO1v27A-251">
          <mxGeometry y="3697" width="1178.1178210118167" height="340" as="geometry" />
        </mxCell>
        <mxCell id="dhI3B1pzcQXHYzO1v27A-297" value="&lt;div&gt;&lt;span style=&quot;font-size: 200px;&quot;&gt;0&lt;/span&gt;&lt;/div&gt;" style="connectable=0;recursiveResize=0;whiteSpace=wrap;html=1;fontSize=30;strokeColor=default;align=center;verticalAlign=middle;fontFamily=Helvetica;fontColor=light-dark(#000000,#000000);fontStyle=0;fillColor=light-dark(#FFFFFF,#FFFFFF);" vertex="1" parent="dhI3B1pzcQXHYzO1v27A-296">
          <mxGeometry width="375" height="340" as="geometry">
            <mxRectangle width="375" height="340" as="alternateBounds" />
          </mxGeometry>
        </mxCell>
        <mxCell id="dhI3B1pzcQXHYzO1v27A-298" value="&lt;div&gt;&lt;span style=&quot;font-size: 200px;&quot;&gt;0&lt;/span&gt;&lt;/div&gt;" style="connectable=0;recursiveResize=0;whiteSpace=wrap;html=1;fontSize=30;strokeColor=default;align=center;verticalAlign=middle;fontFamily=Helvetica;fontColor=light-dark(#000000,#000000);fontStyle=0;fillColor=light-dark(#FFFFFF,#FFFFFF);" vertex="1" parent="dhI3B1pzcQXHYzO1v27A-296">
          <mxGeometry x="375" width="429" height="340" as="geometry">
            <mxRectangle width="429" height="340" as="alternateBounds" />
          </mxGeometry>
        </mxCell>
        <mxCell id="dhI3B1pzcQXHYzO1v27A-299" value="&lt;span style=&quot;font-size: 200px;&quot;&gt;0&lt;/span&gt;" style="connectable=0;recursiveResize=0;whiteSpace=wrap;html=1;fontSize=30;strokeColor=default;align=center;verticalAlign=middle;fontFamily=Helvetica;fontColor=light-dark(#000000,#000000);fontStyle=0;fillColor=light-dark(#FFFFFF,#FFFFFF);" vertex="1" parent="dhI3B1pzcQXHYzO1v27A-296">
          <mxGeometry x="804" width="374" height="340" as="geometry">
            <mxRectangle width="374" height="340" as="alternateBounds" />
          </mxGeometry>
        </mxCell>
        <mxCell id="dhI3B1pzcQXHYzO1v27A-300" value="" style="shape=tableRow;horizontal=0;startSize=0;swimlaneHead=0;swimlaneBody=0;top=0;left=0;bottom=0;right=0;dropTarget=0;collapsible=0;recursiveResize=0;expand=0;fontStyle=1;strokeColor=inherit;fillColor=#EAF2D3;" vertex="1" parent="dhI3B1pzcQXHYzO1v27A-251">
          <mxGeometry y="4037" width="1178.1178210118167" height="335" as="geometry" />
        </mxCell>
        <mxCell id="dhI3B1pzcQXHYzO1v27A-301" value="&lt;div&gt;&lt;span style=&quot;font-size: 200px;&quot;&gt;0&lt;/span&gt;&lt;/div&gt;" style="connectable=0;recursiveResize=0;strokeColor=default;fillColor=light-dark(#FFFFFF,#FFFFFF);whiteSpace=wrap;html=1;fontSize=30;align=center;verticalAlign=middle;fontFamily=Helvetica;fontColor=light-dark(#000000,#000000);fontStyle=0;" vertex="1" parent="dhI3B1pzcQXHYzO1v27A-300">
          <mxGeometry width="375" height="335" as="geometry">
            <mxRectangle width="375" height="335" as="alternateBounds" />
          </mxGeometry>
        </mxCell>
        <mxCell id="dhI3B1pzcQXHYzO1v27A-302" value="&lt;div&gt;&lt;span style=&quot;font-size: 200px;&quot;&gt;0&lt;/span&gt;&lt;/div&gt;" style="connectable=0;recursiveResize=0;strokeColor=default;fillColor=light-dark(#FFFFFF,#FFFFFF);whiteSpace=wrap;html=1;fontSize=30;align=center;verticalAlign=middle;fontFamily=Helvetica;fontColor=light-dark(#000000,#000000);fontStyle=0;" vertex="1" parent="dhI3B1pzcQXHYzO1v27A-300">
          <mxGeometry x="375" width="429" height="335" as="geometry">
            <mxRectangle width="429" height="335" as="alternateBounds" />
          </mxGeometry>
        </mxCell>
        <mxCell id="dhI3B1pzcQXHYzO1v27A-303" value="&lt;span style=&quot;font-size: 200px;&quot;&gt;0&lt;/span&gt;" style="connectable=0;recursiveResize=0;strokeColor=default;fillColor=light-dark(#FFFFFF,#FFFFFF);whiteSpace=wrap;html=1;fontSize=30;align=center;verticalAlign=middle;fontFamily=Helvetica;fontColor=light-dark(#000000,#000000);fontStyle=0;" vertex="1" parent="dhI3B1pzcQXHYzO1v27A-300">
          <mxGeometry x="804" width="374" height="335" as="geometry">
            <mxRectangle width="374" height="335" as="alternateBounds" />
          </mxGeometry>
        </mxCell>
        <mxCell id="dhI3B1pzcQXHYzO1v27A-304" value="Assets" style="childLayout=tableLayout;recursiveResize=0;strokeColor=#98bf21;fillColor=#A7C942;shadow=1;" vertex="1" parent="dhI3B1pzcQXHYzO1v27A-1">
          <mxGeometry x="8193.273937036729" y="1731.9216687812893" width="1338.7702511497932" height="4371.841105661509" as="geometry" />
        </mxCell>
        <mxCell id="dhI3B1pzcQXHYzO1v27A-305" style="shape=tableRow;horizontal=0;startSize=0;swimlaneHead=0;swimlaneBody=0;top=0;left=0;bottom=0;right=0;dropTarget=0;collapsible=0;recursiveResize=0;expand=0;fontStyle=0;strokeColor=inherit;fillColor=#ffffff;" vertex="1" parent="dhI3B1pzcQXHYzO1v27A-304">
          <mxGeometry width="1338.7702511497932" height="285" as="geometry" />
        </mxCell>
        <mxCell id="dhI3B1pzcQXHYzO1v27A-306" value="&lt;span style=&quot;color: rgb(255, 255, 255); text-wrap-mode: wrap;&quot;&gt;&lt;font style=&quot;font-size: 70px;&quot;&gt;Adversarial Prompting&lt;/font&gt;&lt;/span&gt;" style="connectable=0;recursiveResize=0;strokeColor=inherit;fillColor=light-dark(#A7C942,#FFFFFF);align=center;fontStyle=1;fontColor=#FFFFFF;html=1;" vertex="1" parent="dhI3B1pzcQXHYzO1v27A-305">
          <mxGeometry width="427" height="285" as="geometry">
            <mxRectangle width="427" height="285" as="alternateBounds" />
          </mxGeometry>
        </mxCell>
        <mxCell id="dhI3B1pzcQXHYzO1v27A-307" value="&lt;span style=&quot;color: rgb(255, 255, 255); text-wrap-mode: wrap;&quot;&gt;&lt;font style=&quot;font-size: 70px;&quot;&gt;Jailbreak Generation&lt;/font&gt;&lt;/span&gt;" style="connectable=0;recursiveResize=0;strokeColor=inherit;fillColor=light-dark(#A7C942,#FFFFFF);align=center;fontStyle=1;fontColor=#FFFFFF;html=1;" vertex="1" parent="dhI3B1pzcQXHYzO1v27A-305">
          <mxGeometry x="427" width="431" height="285" as="geometry">
            <mxRectangle width="431" height="285" as="alternateBounds" />
          </mxGeometry>
        </mxCell>
        <mxCell id="dhI3B1pzcQXHYzO1v27A-308" value="&lt;span style=&quot;color: rgb(255, 255, 255); text-wrap-mode: wrap;&quot;&gt;&lt;font style=&quot;font-size: 70px;&quot;&gt;Security Report Generation&lt;/font&gt;&lt;/span&gt;" style="connectable=0;recursiveResize=0;strokeColor=inherit;fillColor=light-dark(#A7C942,#FFFFFF);align=center;fontStyle=1;fontColor=#FFFFFF;html=1;" vertex="1" parent="dhI3B1pzcQXHYzO1v27A-305">
          <mxGeometry x="858" width="481" height="285" as="geometry">
            <mxRectangle width="481" height="285" as="alternateBounds" />
          </mxGeometry>
        </mxCell>
        <mxCell id="dhI3B1pzcQXHYzO1v27A-309" value="" style="shape=tableRow;horizontal=0;startSize=0;swimlaneHead=0;swimlaneBody=0;top=0;left=0;bottom=0;right=0;dropTarget=0;collapsible=0;recursiveResize=0;expand=0;fontStyle=0;strokeColor=inherit;fillColor=#ffffff;" vertex="1" parent="dhI3B1pzcQXHYzO1v27A-304">
          <mxGeometry y="285" width="1338.7702511497932" height="388" as="geometry" />
        </mxCell>
        <mxCell id="dhI3B1pzcQXHYzO1v27A-310" value="&lt;span style=&quot;font-size: 200px;&quot;&gt;0&lt;/span&gt;" style="connectable=0;recursiveResize=0;strokeColor=default;fillColor=light-dark(#FFFFFF,#FFFFFF);align=center;whiteSpace=wrap;html=1;fontSize=30;verticalAlign=middle;fontFamily=Helvetica;fontColor=light-dark(#000000,#000000);fontStyle=0;" vertex="1" parent="dhI3B1pzcQXHYzO1v27A-309">
          <mxGeometry width="427" height="388" as="geometry">
            <mxRectangle width="427" height="388" as="alternateBounds" />
          </mxGeometry>
        </mxCell>
        <mxCell id="dhI3B1pzcQXHYzO1v27A-311" value="&lt;span style=&quot;font-size: 200px;&quot;&gt;0&lt;/span&gt;" style="connectable=0;recursiveResize=0;strokeColor=default;fillColor=light-dark(#FFFFFF,#FFFFFF);align=center;whiteSpace=wrap;html=1;fontSize=30;verticalAlign=middle;fontFamily=Helvetica;fontColor=light-dark(#000000,#000000);fontStyle=0;" vertex="1" parent="dhI3B1pzcQXHYzO1v27A-309">
          <mxGeometry x="427" width="431" height="388" as="geometry">
            <mxRectangle width="431" height="388" as="alternateBounds" />
          </mxGeometry>
        </mxCell>
        <mxCell id="dhI3B1pzcQXHYzO1v27A-312" value="&lt;span style=&quot;font-size: 200px;&quot;&gt;0&lt;/span&gt;" style="connectable=0;recursiveResize=0;strokeColor=default;fillColor=light-dark(#FFFFFF,#FFFFFF);align=center;whiteSpace=wrap;html=1;fontSize=30;verticalAlign=middle;fontFamily=Helvetica;fontColor=light-dark(#000000,#000000);fontStyle=0;" vertex="1" parent="dhI3B1pzcQXHYzO1v27A-309">
          <mxGeometry x="858" width="481" height="388" as="geometry">
            <mxRectangle width="481" height="388" as="alternateBounds" />
          </mxGeometry>
        </mxCell>
        <mxCell id="dhI3B1pzcQXHYzO1v27A-313" value="" style="shape=tableRow;horizontal=0;startSize=0;swimlaneHead=0;swimlaneBody=0;top=0;left=0;bottom=0;right=0;dropTarget=0;collapsible=0;recursiveResize=0;expand=0;fontStyle=1;strokeColor=inherit;fillColor=#EAF2D3;" vertex="1" parent="dhI3B1pzcQXHYzO1v27A-304">
          <mxGeometry y="673" width="1338.7702511497932" height="334" as="geometry" />
        </mxCell>
        <mxCell id="dhI3B1pzcQXHYzO1v27A-314" value="&lt;span style=&quot;font-size: 200px;&quot;&gt;0&lt;/span&gt;" style="connectable=0;recursiveResize=0;strokeColor=default;fillColor=light-dark(#FFFFFF,#FFFFFF);whiteSpace=wrap;html=1;fontSize=30;align=center;verticalAlign=middle;fontFamily=Helvetica;fontColor=light-dark(#000000,#000000);fontStyle=0;" vertex="1" parent="dhI3B1pzcQXHYzO1v27A-313">
          <mxGeometry width="427" height="334" as="geometry">
            <mxRectangle width="427" height="334" as="alternateBounds" />
          </mxGeometry>
        </mxCell>
        <mxCell id="dhI3B1pzcQXHYzO1v27A-315" value="&lt;span style=&quot;font-size: 200px;&quot;&gt;0&lt;/span&gt;" style="connectable=0;recursiveResize=0;strokeColor=default;fillColor=light-dark(#FFFFFF,#FFFFFF);whiteSpace=wrap;html=1;fontSize=30;align=center;verticalAlign=middle;fontFamily=Helvetica;fontColor=light-dark(#000000,#000000);fontStyle=0;" vertex="1" parent="dhI3B1pzcQXHYzO1v27A-313">
          <mxGeometry x="427" width="431" height="334" as="geometry">
            <mxRectangle width="431" height="334" as="alternateBounds" />
          </mxGeometry>
        </mxCell>
        <mxCell id="dhI3B1pzcQXHYzO1v27A-316" value="&lt;span style=&quot;font-size: 200px;&quot;&gt;01&lt;/span&gt;" style="connectable=0;recursiveResize=0;strokeColor=default;fillColor=light-dark(#FFFFFF,#CCFFCC);whiteSpace=wrap;html=1;fontSize=30;align=center;verticalAlign=middle;fontFamily=Helvetica;fontColor=light-dark(#000000,#000000);" vertex="1" parent="dhI3B1pzcQXHYzO1v27A-313">
          <mxGeometry x="858" width="481" height="334" as="geometry">
            <mxRectangle width="481" height="334" as="alternateBounds" />
          </mxGeometry>
        </mxCell>
        <mxCell id="dhI3B1pzcQXHYzO1v27A-317" value="" style="shape=tableRow;horizontal=0;startSize=0;swimlaneHead=0;swimlaneBody=0;top=0;left=0;bottom=0;right=0;dropTarget=0;collapsible=0;recursiveResize=0;expand=0;fontStyle=0;strokeColor=inherit;fillColor=#ffffff;" vertex="1" parent="dhI3B1pzcQXHYzO1v27A-304">
          <mxGeometry y="1007" width="1338.7702511497932" height="339" as="geometry" />
        </mxCell>
        <mxCell id="dhI3B1pzcQXHYzO1v27A-318" value="&lt;span style=&quot;font-size: 200px;&quot;&gt;0&lt;/span&gt;" style="connectable=0;recursiveResize=0;strokeColor=default;fillColor=light-dark(#FFFFFF,#FFFFFF);fontStyle=0;align=center;whiteSpace=wrap;html=1;fontSize=30;verticalAlign=middle;fontFamily=Helvetica;fontColor=light-dark(#000000,#000000);" vertex="1" parent="dhI3B1pzcQXHYzO1v27A-317">
          <mxGeometry width="427" height="339" as="geometry">
            <mxRectangle width="427" height="339" as="alternateBounds" />
          </mxGeometry>
        </mxCell>
        <mxCell id="dhI3B1pzcQXHYzO1v27A-319" value="&lt;span style=&quot;font-size: 200px;&quot;&gt;0&lt;/span&gt;" style="connectable=0;recursiveResize=0;strokeColor=default;fillColor=light-dark(#FFFFFF,#FFFFFF);fontStyle=0;align=center;whiteSpace=wrap;html=1;fontSize=30;verticalAlign=middle;fontFamily=Helvetica;fontColor=light-dark(#000000,#000000);" vertex="1" parent="dhI3B1pzcQXHYzO1v27A-317">
          <mxGeometry x="427" width="431" height="339" as="geometry">
            <mxRectangle width="431" height="339" as="alternateBounds" />
          </mxGeometry>
        </mxCell>
        <mxCell id="dhI3B1pzcQXHYzO1v27A-320" value="&lt;span style=&quot;font-size: 200px;&quot;&gt;0&lt;/span&gt;" style="connectable=0;recursiveResize=0;strokeColor=default;fillColor=light-dark(#FFFFFF,#FFFFFF);fontStyle=0;align=center;whiteSpace=wrap;html=1;fontSize=30;verticalAlign=middle;fontFamily=Helvetica;fontColor=light-dark(#000000,#000000);" vertex="1" parent="dhI3B1pzcQXHYzO1v27A-317">
          <mxGeometry x="858" width="481" height="339" as="geometry">
            <mxRectangle width="481" height="339" as="alternateBounds" />
          </mxGeometry>
        </mxCell>
        <mxCell id="dhI3B1pzcQXHYzO1v27A-321" value="" style="shape=tableRow;horizontal=0;startSize=0;swimlaneHead=0;swimlaneBody=0;top=0;left=0;bottom=0;right=0;dropTarget=0;collapsible=0;recursiveResize=0;expand=0;fontStyle=1;strokeColor=inherit;fillColor=#EAF2D3;" vertex="1" parent="dhI3B1pzcQXHYzO1v27A-304">
          <mxGeometry y="1346" width="1338.7702511497932" height="333" as="geometry" />
        </mxCell>
        <mxCell id="dhI3B1pzcQXHYzO1v27A-322" value="&lt;span style=&quot;font-size: 200px;&quot;&gt;0&lt;/span&gt;" style="connectable=0;recursiveResize=0;strokeColor=default;fillColor=light-dark(#FFFFFF,#FFFFFF);whiteSpace=wrap;html=1;fontSize=30;align=center;verticalAlign=middle;fontFamily=Helvetica;fontColor=light-dark(#000000,#000000);fontStyle=0;" vertex="1" parent="dhI3B1pzcQXHYzO1v27A-321">
          <mxGeometry width="427" height="333" as="geometry">
            <mxRectangle width="427" height="333" as="alternateBounds" />
          </mxGeometry>
        </mxCell>
        <mxCell id="dhI3B1pzcQXHYzO1v27A-323" value="&lt;span style=&quot;font-size: 200px;&quot;&gt;0&lt;/span&gt;" style="connectable=0;recursiveResize=0;strokeColor=default;fillColor=light-dark(#FFFFFF,#FFFFFF);whiteSpace=wrap;html=1;fontSize=30;align=center;verticalAlign=middle;fontFamily=Helvetica;fontColor=light-dark(#000000,#000000);fontStyle=0;" vertex="1" parent="dhI3B1pzcQXHYzO1v27A-321">
          <mxGeometry x="427" width="431" height="333" as="geometry">
            <mxRectangle width="431" height="333" as="alternateBounds" />
          </mxGeometry>
        </mxCell>
        <mxCell id="dhI3B1pzcQXHYzO1v27A-324" value="&lt;span style=&quot;font-size: 200px;&quot;&gt;03&lt;/span&gt;" style="connectable=0;recursiveResize=0;strokeColor=default;fillColor=light-dark(#FFFFFF,#CCFFCC);whiteSpace=wrap;html=1;fontSize=30;align=center;verticalAlign=middle;fontFamily=Helvetica;fontColor=light-dark(#000000,#000000);" vertex="1" parent="dhI3B1pzcQXHYzO1v27A-321">
          <mxGeometry x="858" width="481" height="333" as="geometry">
            <mxRectangle width="481" height="333" as="alternateBounds" />
          </mxGeometry>
        </mxCell>
        <mxCell id="dhI3B1pzcQXHYzO1v27A-325" value="" style="shape=tableRow;horizontal=0;startSize=0;swimlaneHead=0;swimlaneBody=0;top=0;left=0;bottom=0;right=0;dropTarget=0;collapsible=0;recursiveResize=0;expand=0;fontStyle=1;strokeColor=inherit;fillColor=#EAF2D3;" vertex="1" parent="dhI3B1pzcQXHYzO1v27A-304">
          <mxGeometry y="1679" width="1338.7702511497932" height="338" as="geometry" />
        </mxCell>
        <mxCell id="dhI3B1pzcQXHYzO1v27A-326" value="&lt;span style=&quot;font-size: 200px;&quot;&gt;0&lt;/span&gt;" style="connectable=0;recursiveResize=0;whiteSpace=wrap;html=1;fontSize=30;strokeColor=default;align=center;verticalAlign=middle;fontFamily=Helvetica;fontColor=light-dark(#000000,#000000);fontStyle=0;fillColor=light-dark(#FFFFFF,#FFFFFF);" vertex="1" parent="dhI3B1pzcQXHYzO1v27A-325">
          <mxGeometry width="427" height="338" as="geometry">
            <mxRectangle width="427" height="338" as="alternateBounds" />
          </mxGeometry>
        </mxCell>
        <mxCell id="dhI3B1pzcQXHYzO1v27A-327" value="&lt;div&gt;&lt;span style=&quot;font-size: 200px;&quot;&gt;0&lt;/span&gt;&lt;/div&gt;" style="connectable=0;recursiveResize=0;whiteSpace=wrap;html=1;fontSize=30;strokeColor=default;align=center;verticalAlign=middle;fontFamily=Helvetica;fontColor=light-dark(#000000,#000000);fontStyle=0;fillColor=light-dark(#FFFFFF,#FFFFFF);" vertex="1" parent="dhI3B1pzcQXHYzO1v27A-325">
          <mxGeometry x="427" width="431" height="338" as="geometry">
            <mxRectangle width="431" height="338" as="alternateBounds" />
          </mxGeometry>
        </mxCell>
        <mxCell id="dhI3B1pzcQXHYzO1v27A-328" value="&lt;span style=&quot;font-size: 200px;&quot;&gt;0&lt;/span&gt;" style="connectable=0;recursiveResize=0;whiteSpace=wrap;html=1;fontSize=30;strokeColor=default;align=center;verticalAlign=middle;fontFamily=Helvetica;fontColor=light-dark(#000000,#000000);fontStyle=0;fillColor=light-dark(#FFFFFF,#FFFFFF);" vertex="1" parent="dhI3B1pzcQXHYzO1v27A-325">
          <mxGeometry x="858" width="481" height="338" as="geometry">
            <mxRectangle width="481" height="338" as="alternateBounds" />
          </mxGeometry>
        </mxCell>
        <mxCell id="dhI3B1pzcQXHYzO1v27A-329" value="" style="shape=tableRow;horizontal=0;startSize=0;swimlaneHead=0;swimlaneBody=0;top=0;left=0;bottom=0;right=0;dropTarget=0;collapsible=0;recursiveResize=0;expand=0;fontStyle=1;strokeColor=inherit;fillColor=#EAF2D3;" vertex="1" parent="dhI3B1pzcQXHYzO1v27A-304">
          <mxGeometry y="2017" width="1338.7702511497932" height="335" as="geometry" />
        </mxCell>
        <mxCell id="dhI3B1pzcQXHYzO1v27A-330" value="&lt;span style=&quot;font-size: 200px;&quot;&gt;04&lt;/span&gt;" style="connectable=0;recursiveResize=0;strokeColor=default;fillColor=light-dark(#FFFFFF,#CCFFCC);whiteSpace=wrap;html=1;fontSize=30;align=center;verticalAlign=middle;fontFamily=Helvetica;fontColor=light-dark(#000000,#000000);" vertex="1" parent="dhI3B1pzcQXHYzO1v27A-329">
          <mxGeometry width="427" height="335" as="geometry">
            <mxRectangle width="427" height="335" as="alternateBounds" />
          </mxGeometry>
        </mxCell>
        <mxCell id="dhI3B1pzcQXHYzO1v27A-331" value="&lt;div&gt;&lt;span style=&quot;font-size: 200px;&quot;&gt;01&lt;/span&gt;&lt;/div&gt;" style="connectable=0;recursiveResize=0;strokeColor=default;fillColor=light-dark(#FFFFFF,#CCFFCC);whiteSpace=wrap;html=1;fontSize=30;align=center;verticalAlign=middle;fontFamily=Helvetica;fontColor=light-dark(#000000,#000000);" vertex="1" parent="dhI3B1pzcQXHYzO1v27A-329">
          <mxGeometry x="427" width="431" height="335" as="geometry">
            <mxRectangle width="431" height="335" as="alternateBounds" />
          </mxGeometry>
        </mxCell>
        <mxCell id="dhI3B1pzcQXHYzO1v27A-332" value="&lt;span style=&quot;font-size: 200px;&quot;&gt;02&lt;/span&gt;" style="connectable=0;recursiveResize=0;strokeColor=default;fillColor=light-dark(#FFFFFF,#CCFFCC);whiteSpace=wrap;html=1;fontSize=30;align=center;verticalAlign=middle;fontFamily=Helvetica;fontColor=light-dark(#000000,#000000);" vertex="1" parent="dhI3B1pzcQXHYzO1v27A-329">
          <mxGeometry x="858" width="481" height="335" as="geometry">
            <mxRectangle width="481" height="335" as="alternateBounds" />
          </mxGeometry>
        </mxCell>
        <mxCell id="dhI3B1pzcQXHYzO1v27A-333" value="" style="shape=tableRow;horizontal=0;startSize=0;swimlaneHead=0;swimlaneBody=0;top=0;left=0;bottom=0;right=0;dropTarget=0;collapsible=0;recursiveResize=0;expand=0;fontStyle=1;strokeColor=inherit;fillColor=#EAF2D3;" vertex="1" parent="dhI3B1pzcQXHYzO1v27A-304">
          <mxGeometry y="2352" width="1338.7702511497932" height="338" as="geometry" />
        </mxCell>
        <mxCell id="dhI3B1pzcQXHYzO1v27A-334" value="&lt;div&gt;&lt;span style=&quot;font-size: 200px;&quot;&gt;0&lt;/span&gt;&lt;/div&gt;" style="connectable=0;recursiveResize=0;whiteSpace=wrap;html=1;fontSize=30;strokeColor=default;align=center;verticalAlign=middle;fontFamily=Helvetica;fontColor=light-dark(#000000,#000000);fontStyle=0;fillColor=light-dark(#FFFFFF,#FFFFFF);" vertex="1" parent="dhI3B1pzcQXHYzO1v27A-333">
          <mxGeometry width="427" height="338" as="geometry">
            <mxRectangle width="427" height="338" as="alternateBounds" />
          </mxGeometry>
        </mxCell>
        <mxCell id="dhI3B1pzcQXHYzO1v27A-335" value="&lt;div&gt;&lt;span style=&quot;font-size: 200px;&quot;&gt;0&lt;/span&gt;&lt;/div&gt;" style="connectable=0;recursiveResize=0;whiteSpace=wrap;html=1;fontSize=30;strokeColor=default;align=center;verticalAlign=middle;fontFamily=Helvetica;fontColor=light-dark(#000000,#000000);fontStyle=0;fillColor=light-dark(#FFFFFF,#FFFFFF);" vertex="1" parent="dhI3B1pzcQXHYzO1v27A-333">
          <mxGeometry x="427" width="431" height="338" as="geometry">
            <mxRectangle width="431" height="338" as="alternateBounds" />
          </mxGeometry>
        </mxCell>
        <mxCell id="dhI3B1pzcQXHYzO1v27A-336" value="&lt;span style=&quot;font-size: 200px;&quot;&gt;0&lt;/span&gt;" style="connectable=0;recursiveResize=0;whiteSpace=wrap;html=1;fontSize=30;strokeColor=default;align=center;verticalAlign=middle;fontFamily=Helvetica;fontColor=light-dark(#000000,#000000);fontStyle=0;fillColor=light-dark(#FFFFFF,#FFFFFF);" vertex="1" parent="dhI3B1pzcQXHYzO1v27A-333">
          <mxGeometry x="858" width="481" height="338" as="geometry">
            <mxRectangle width="481" height="338" as="alternateBounds" />
          </mxGeometry>
        </mxCell>
        <mxCell id="dhI3B1pzcQXHYzO1v27A-337" value="" style="shape=tableRow;horizontal=0;startSize=0;swimlaneHead=0;swimlaneBody=0;top=0;left=0;bottom=0;right=0;dropTarget=0;collapsible=0;recursiveResize=0;expand=0;fontStyle=1;strokeColor=inherit;fillColor=#EAF2D3;" vertex="1" parent="dhI3B1pzcQXHYzO1v27A-304">
          <mxGeometry y="2690" width="1338.7702511497932" height="336" as="geometry" />
        </mxCell>
        <mxCell id="dhI3B1pzcQXHYzO1v27A-338" value="&lt;div&gt;&lt;span style=&quot;font-size: 200px;&quot;&gt;06&lt;/span&gt;&lt;/div&gt;" style="connectable=0;recursiveResize=0;strokeColor=default;fillColor=light-dark(#FFFFFF,#99FF99);whiteSpace=wrap;html=1;fontSize=30;align=center;verticalAlign=middle;fontFamily=Helvetica;fontColor=light-dark(#000000,#000000);" vertex="1" parent="dhI3B1pzcQXHYzO1v27A-337">
          <mxGeometry width="427" height="336" as="geometry">
            <mxRectangle width="427" height="336" as="alternateBounds" />
          </mxGeometry>
        </mxCell>
        <mxCell id="dhI3B1pzcQXHYzO1v27A-339" value="&lt;div&gt;&lt;span style=&quot;font-size: 200px;&quot;&gt;03&lt;/span&gt;&lt;/div&gt;" style="connectable=0;recursiveResize=0;strokeColor=default;fillColor=light-dark(#FFFFFF,#CCFFCC);whiteSpace=wrap;html=1;fontSize=30;align=center;verticalAlign=middle;fontFamily=Helvetica;fontColor=light-dark(#000000,#000000);" vertex="1" parent="dhI3B1pzcQXHYzO1v27A-337">
          <mxGeometry x="427" width="431" height="336" as="geometry">
            <mxRectangle width="431" height="336" as="alternateBounds" />
          </mxGeometry>
        </mxCell>
        <mxCell id="dhI3B1pzcQXHYzO1v27A-340" value="&lt;span style=&quot;font-size: 200px;&quot;&gt;02&lt;/span&gt;" style="connectable=0;recursiveResize=0;strokeColor=default;fillColor=light-dark(#FFFFFF,#CCFFCC);whiteSpace=wrap;html=1;fontSize=30;align=center;verticalAlign=middle;fontFamily=Helvetica;fontColor=light-dark(#000000,#000000);" vertex="1" parent="dhI3B1pzcQXHYzO1v27A-337">
          <mxGeometry x="858" width="481" height="336" as="geometry">
            <mxRectangle width="481" height="336" as="alternateBounds" />
          </mxGeometry>
        </mxCell>
        <mxCell id="dhI3B1pzcQXHYzO1v27A-341" value="" style="shape=tableRow;horizontal=0;startSize=0;swimlaneHead=0;swimlaneBody=0;top=0;left=0;bottom=0;right=0;dropTarget=0;collapsible=0;recursiveResize=0;expand=0;fontStyle=1;strokeColor=inherit;fillColor=#EAF2D3;" vertex="1" parent="dhI3B1pzcQXHYzO1v27A-304">
          <mxGeometry y="3026" width="1338.7702511497932" height="337" as="geometry" />
        </mxCell>
        <mxCell id="dhI3B1pzcQXHYzO1v27A-342" value="&lt;div&gt;&lt;span style=&quot;font-size: 200px;&quot;&gt;0&lt;/span&gt;&lt;/div&gt;" style="connectable=0;recursiveResize=0;whiteSpace=wrap;html=1;fontSize=30;strokeColor=default;align=center;verticalAlign=middle;fontFamily=Helvetica;fontColor=light-dark(#000000,#000000);fontStyle=0;fillColor=light-dark(#FFFFFF,#FFFFFF);" vertex="1" parent="dhI3B1pzcQXHYzO1v27A-341">
          <mxGeometry width="427" height="337" as="geometry">
            <mxRectangle width="427" height="337" as="alternateBounds" />
          </mxGeometry>
        </mxCell>
        <mxCell id="dhI3B1pzcQXHYzO1v27A-343" value="&lt;div&gt;&lt;span style=&quot;font-size: 200px;&quot;&gt;0&lt;/span&gt;&lt;/div&gt;" style="connectable=0;recursiveResize=0;whiteSpace=wrap;html=1;fontSize=30;strokeColor=default;align=center;verticalAlign=middle;fontFamily=Helvetica;fontColor=light-dark(#000000,#000000);fontStyle=0;fillColor=light-dark(#FFFFFF,#FFFFFF);" vertex="1" parent="dhI3B1pzcQXHYzO1v27A-341">
          <mxGeometry x="427" width="431" height="337" as="geometry">
            <mxRectangle width="431" height="337" as="alternateBounds" />
          </mxGeometry>
        </mxCell>
        <mxCell id="dhI3B1pzcQXHYzO1v27A-344" value="&lt;span style=&quot;font-size: 200px;&quot;&gt;0&lt;/span&gt;" style="connectable=0;recursiveResize=0;whiteSpace=wrap;html=1;fontSize=30;strokeColor=default;align=center;verticalAlign=middle;fontFamily=Helvetica;fontColor=light-dark(#000000,#000000);fontStyle=0;fillColor=light-dark(#FFFFFF,#FFFFFF);" vertex="1" parent="dhI3B1pzcQXHYzO1v27A-341">
          <mxGeometry x="858" width="481" height="337" as="geometry">
            <mxRectangle width="481" height="337" as="alternateBounds" />
          </mxGeometry>
        </mxCell>
        <mxCell id="dhI3B1pzcQXHYzO1v27A-345" value="" style="shape=tableRow;horizontal=0;startSize=0;swimlaneHead=0;swimlaneBody=0;top=0;left=0;bottom=0;right=0;dropTarget=0;collapsible=0;recursiveResize=0;expand=0;fontStyle=1;strokeColor=inherit;fillColor=#EAF2D3;" vertex="1" parent="dhI3B1pzcQXHYzO1v27A-304">
          <mxGeometry y="3363" width="1338.7702511497932" height="334" as="geometry" />
        </mxCell>
        <mxCell id="dhI3B1pzcQXHYzO1v27A-346" value="&lt;div&gt;&lt;span style=&quot;font-size: 200px;&quot;&gt;03&lt;/span&gt;&lt;/div&gt;" style="connectable=0;recursiveResize=0;strokeColor=default;fillColor=light-dark(#FFFFFF,#CCFFCC);whiteSpace=wrap;html=1;fontSize=30;align=center;verticalAlign=middle;fontFamily=Helvetica;fontColor=light-dark(#000000,#000000);" vertex="1" parent="dhI3B1pzcQXHYzO1v27A-345">
          <mxGeometry width="427" height="334" as="geometry">
            <mxRectangle width="427" height="334" as="alternateBounds" />
          </mxGeometry>
        </mxCell>
        <mxCell id="dhI3B1pzcQXHYzO1v27A-347" value="&lt;div&gt;&lt;span style=&quot;font-size: 200px;&quot;&gt;0&lt;/span&gt;&lt;/div&gt;" style="connectable=0;recursiveResize=0;strokeColor=default;fillColor=light-dark(#FFFFFF,#FFFFFF);whiteSpace=wrap;html=1;fontSize=30;align=center;verticalAlign=middle;fontFamily=Helvetica;fontColor=light-dark(#000000,#000000);fontStyle=0;" vertex="1" parent="dhI3B1pzcQXHYzO1v27A-345">
          <mxGeometry x="427" width="431" height="334" as="geometry">
            <mxRectangle width="431" height="334" as="alternateBounds" />
          </mxGeometry>
        </mxCell>
        <mxCell id="dhI3B1pzcQXHYzO1v27A-348" value="&lt;span style=&quot;font-size: 200px;&quot;&gt;0&lt;/span&gt;" style="connectable=0;recursiveResize=0;strokeColor=default;fillColor=light-dark(#FFFFFF,#FFFFFF);whiteSpace=wrap;html=1;fontSize=30;align=center;verticalAlign=middle;fontFamily=Helvetica;fontColor=light-dark(#000000,#000000);fontStyle=0;" vertex="1" parent="dhI3B1pzcQXHYzO1v27A-345">
          <mxGeometry x="858" width="481" height="334" as="geometry">
            <mxRectangle width="481" height="334" as="alternateBounds" />
          </mxGeometry>
        </mxCell>
        <mxCell id="dhI3B1pzcQXHYzO1v27A-349" value="" style="shape=tableRow;horizontal=0;startSize=0;swimlaneHead=0;swimlaneBody=0;top=0;left=0;bottom=0;right=0;dropTarget=0;collapsible=0;recursiveResize=0;expand=0;fontStyle=1;strokeColor=inherit;fillColor=#EAF2D3;" vertex="1" parent="dhI3B1pzcQXHYzO1v27A-304">
          <mxGeometry y="3697" width="1338.7702511497932" height="340" as="geometry" />
        </mxCell>
        <mxCell id="dhI3B1pzcQXHYzO1v27A-350" value="&lt;div&gt;&lt;span style=&quot;font-size: 200px;&quot;&gt;0&lt;/span&gt;&lt;/div&gt;" style="connectable=0;recursiveResize=0;whiteSpace=wrap;html=1;fontSize=30;strokeColor=default;align=center;verticalAlign=middle;fontFamily=Helvetica;fontColor=light-dark(#000000,#000000);fontStyle=0;fillColor=light-dark(#FFFFFF,#FFFFFF);" vertex="1" parent="dhI3B1pzcQXHYzO1v27A-349">
          <mxGeometry width="427" height="340" as="geometry">
            <mxRectangle width="427" height="340" as="alternateBounds" />
          </mxGeometry>
        </mxCell>
        <mxCell id="dhI3B1pzcQXHYzO1v27A-351" value="&lt;div&gt;&lt;span style=&quot;font-size: 200px;&quot;&gt;0&lt;/span&gt;&lt;/div&gt;" style="connectable=0;recursiveResize=0;whiteSpace=wrap;html=1;fontSize=30;strokeColor=default;align=center;verticalAlign=middle;fontFamily=Helvetica;fontColor=light-dark(#000000,#000000);fontStyle=0;fillColor=light-dark(#FFFFFF,#FFFFFF);" vertex="1" parent="dhI3B1pzcQXHYzO1v27A-349">
          <mxGeometry x="427" width="431" height="340" as="geometry">
            <mxRectangle width="431" height="340" as="alternateBounds" />
          </mxGeometry>
        </mxCell>
        <mxCell id="dhI3B1pzcQXHYzO1v27A-352" value="&lt;span style=&quot;font-size: 200px;&quot;&gt;02&lt;/span&gt;" style="connectable=0;recursiveResize=0;whiteSpace=wrap;html=1;fontSize=30;strokeColor=default;align=center;verticalAlign=middle;fontFamily=Helvetica;fontColor=light-dark(#000000,#000000);fillColor=light-dark(#FFFFFF,#CCFFCC);" vertex="1" parent="dhI3B1pzcQXHYzO1v27A-349">
          <mxGeometry x="858" width="481" height="340" as="geometry">
            <mxRectangle width="481" height="340" as="alternateBounds" />
          </mxGeometry>
        </mxCell>
        <mxCell id="dhI3B1pzcQXHYzO1v27A-353" value="" style="shape=tableRow;horizontal=0;startSize=0;swimlaneHead=0;swimlaneBody=0;top=0;left=0;bottom=0;right=0;dropTarget=0;collapsible=0;recursiveResize=0;expand=0;fontStyle=1;strokeColor=inherit;fillColor=#EAF2D3;" vertex="1" parent="dhI3B1pzcQXHYzO1v27A-304">
          <mxGeometry y="4037" width="1338.7702511497932" height="335" as="geometry" />
        </mxCell>
        <mxCell id="dhI3B1pzcQXHYzO1v27A-354" value="&lt;div&gt;&lt;span style=&quot;font-size: 200px;&quot;&gt;0&lt;/span&gt;&lt;/div&gt;" style="connectable=0;recursiveResize=0;strokeColor=default;fillColor=light-dark(#FFFFFF,#FFFFFF);whiteSpace=wrap;html=1;fontSize=30;align=center;verticalAlign=middle;fontFamily=Helvetica;fontColor=light-dark(#000000,#000000);fontStyle=0;" vertex="1" parent="dhI3B1pzcQXHYzO1v27A-353">
          <mxGeometry width="427" height="335" as="geometry">
            <mxRectangle width="427" height="335" as="alternateBounds" />
          </mxGeometry>
        </mxCell>
        <mxCell id="dhI3B1pzcQXHYzO1v27A-355" value="&lt;div&gt;&lt;span style=&quot;font-size: 200px;&quot;&gt;0&lt;/span&gt;&lt;/div&gt;" style="connectable=0;recursiveResize=0;strokeColor=default;fillColor=light-dark(#FFFFFF,#FFFFFF);whiteSpace=wrap;html=1;fontSize=30;align=center;verticalAlign=middle;fontFamily=Helvetica;fontColor=light-dark(#000000,#000000);fontStyle=0;" vertex="1" parent="dhI3B1pzcQXHYzO1v27A-353">
          <mxGeometry x="427" width="431" height="335" as="geometry">
            <mxRectangle width="431" height="335" as="alternateBounds" />
          </mxGeometry>
        </mxCell>
        <mxCell id="dhI3B1pzcQXHYzO1v27A-356" value="&lt;span style=&quot;font-size: 200px;&quot;&gt;01&lt;/span&gt;" style="connectable=0;recursiveResize=0;strokeColor=default;fillColor=light-dark(#FFFFFF,#CCFFCC);whiteSpace=wrap;html=1;fontSize=30;align=center;verticalAlign=middle;fontFamily=Helvetica;fontColor=light-dark(#000000,#000000);" vertex="1" parent="dhI3B1pzcQXHYzO1v27A-353">
          <mxGeometry x="858" width="481" height="335" as="geometry">
            <mxRectangle width="481" height="335" as="alternateBounds" />
          </mxGeometry>
        </mxCell>
        <mxCell id="dhI3B1pzcQXHYzO1v27A-380" value="" style="edgeStyle=orthogonalEdgeStyle;rounded=0;orthogonalLoop=1;jettySize=auto;html=1;" edge="1" parent="dhI3B1pzcQXHYzO1v27A-1">
          <mxGeometry relative="1" as="geometry">
            <mxPoint x="6656.666666666668" y="3077.1038737446197" as="sourcePoint" />
            <mxPoint x="6641.333333333332" y="3068.6915208034425" as="targetPoint" />
          </mxGeometry>
        </mxCell>
        <mxCell id="dhI3B1pzcQXHYzO1v27A-456" value="" style="group" vertex="1" connectable="0" parent="dhI3B1pzcQXHYzO1v27A-1">
          <mxGeometry x="2570.44" y="5094.876585365852" width="310" height="302.67" as="geometry" />
        </mxCell>
        <mxCell id="dhI3B1pzcQXHYzO1v27A-560" value="" style="group" vertex="1" connectable="0" parent="dhI3B1pzcQXHYzO1v27A-1">
          <mxGeometry x="7001.77" y="2740.805164992826" width="290" height="521.2532281205165" as="geometry" />
        </mxCell>
        <mxCell id="dhI3B1pzcQXHYzO1v27A-598" value="" style="group" vertex="1" connectable="0" parent="dhI3B1pzcQXHYzO1v27A-1">
          <mxGeometry x="9036.7" y="2404.516226685796" width="320" height="3413.4025824964133" as="geometry" />
        </mxCell>
        <mxCell id="dhI3B1pzcQXHYzO1v27A-615" value="&lt;font style=&quot;font-size: 100px;&quot;&gt;Purpose of LLM&lt;/font&gt;" style="rounded=1;whiteSpace=wrap;html=1;fontSize=80;fontStyle=1" vertex="1" parent="dhI3B1pzcQXHYzO1v27A-1">
          <mxGeometry x="-159.99508370125625" y="3580.0047090298726" width="613.1837813072278" height="331.6733273168834" as="geometry" />
        </mxCell>
        <mxCell id="dhI3B1pzcQXHYzO1v27A-616" style="edgeStyle=orthogonalEdgeStyle;rounded=0;orthogonalLoop=1;jettySize=auto;html=1;exitX=1;exitY=0.5;exitDx=0;exitDy=0;entryX=0;entryY=0.5;entryDx=0;entryDy=0;fontSize=40;" edge="1" parent="dhI3B1pzcQXHYzO1v27A-1" source="dhI3B1pzcQXHYzO1v27A-615" target="dhI3B1pzcQXHYzO1v27A-5">
          <mxGeometry relative="1" as="geometry" />
        </mxCell>
        <mxCell id="dhI3B1pzcQXHYzO1v27A-674" value="&lt;span style=&quot;font-family: Helvetica; font-size: 200px; font-style: normal; font-variant-ligatures: normal; font-variant-caps: normal; font-weight: 400; letter-spacing: normal; orphans: 2; text-align: center; text-indent: 0px; text-transform: none; widows: 2; word-spacing: 0px; -webkit-text-stroke-width: 0px; white-space: normal; text-decoration-thickness: initial; text-decoration-style: initial; text-decoration-color: initial; float: none; background-color: light-dark(rgb(27, 29, 30), rgb(0, 0, 0)); display: inline !important;&quot;&gt;&lt;font style=&quot;color: light-dark(rgb(255, 255, 255), rgb(255, 255, 255));&quot;&gt;16&lt;/font&gt;&lt;/span&gt;" style="text;whiteSpace=wrap;html=1;" vertex="1" parent="dhI3B1pzcQXHYzO1v27A-1">
          <mxGeometry x="10470" y="2790" width="240" height="260" as="geometry" />
        </mxCell>
        <mxCell id="dhI3B1pzcQXHYzO1v27A-53" value="&lt;b&gt;&lt;span style=&quot;line-height: 115%;&quot;&gt;Mitigation / Response&lt;/span&gt;&lt;/b&gt;" style="rounded=1;whiteSpace=wrap;html=1;fontSize=80;" vertex="1" parent="dhI3B1pzcQXHYzO1v27A-1">
          <mxGeometry x="5399.998851084998" y="1480.0007958023614" width="954.9888181995226" height="168.14416043517892" as="geometry" />
        </mxCell>
        <mxCell id="dhI3B1pzcQXHYzO1v27A-41" style="edgeStyle=orthogonalEdgeStyle;rounded=0;orthogonalLoop=1;jettySize=auto;html=1;exitX=0.5;exitY=1;exitDx=0;exitDy=0;entryX=0.5;entryY=0;entryDx=0;entryDy=0;fontSize=40;" edge="1" parent="dhI3B1pzcQXHYzO1v27A-1" source="dhI3B1pzcQXHYzO1v27A-42" target="dhI3B1pzcQXHYzO1v27A-53">
          <mxGeometry relative="1" as="geometry" />
        </mxCell>
        <mxCell id="dhI3B1pzcQXHYzO1v27A-57" value="&lt;b&gt;&lt;span style=&quot;line-height: 115%;&quot;&gt;Verification / Evaluation&lt;/span&gt;&lt;/b&gt;" style="rounded=1;whiteSpace=wrap;html=1;fontSize=80;" vertex="1" parent="dhI3B1pzcQXHYzO1v27A-1">
          <mxGeometry x="6660.001327306944" y="1443.4907958023614" width="1054.8193513909644" height="168.14416043517892" as="geometry" />
        </mxCell>
        <mxCell id="dhI3B1pzcQXHYzO1v27A-38" style="edgeStyle=orthogonalEdgeStyle;rounded=0;orthogonalLoop=1;jettySize=auto;html=1;exitX=0.5;exitY=1;exitDx=0;exitDy=0;entryX=0.5;entryY=0;entryDx=0;entryDy=0;fontSize=40;" edge="1" parent="dhI3B1pzcQXHYzO1v27A-1" source="dhI3B1pzcQXHYzO1v27A-42" target="dhI3B1pzcQXHYzO1v27A-57">
          <mxGeometry relative="1" as="geometry" />
        </mxCell>
        <mxCell id="dhI3B1pzcQXHYzO1v27A-61" value="&lt;b&gt;&lt;span style=&quot;line-height: 115%;&quot;&gt;Exploration / Offensive&amp;nbsp;&lt;/span&gt;&lt;/b&gt;&lt;div&gt;&lt;b&gt;&lt;span style=&quot;line-height: 115%;&quot;&gt;Testing&lt;/span&gt;&lt;/b&gt;&lt;/div&gt;" style="rounded=1;whiteSpace=wrap;html=1;fontSize=80;" vertex="1" parent="dhI3B1pzcQXHYzO1v27A-1">
          <mxGeometry x="7890.99963160513" y="1441.7707958023614" width="1045.461887273791" height="169.86012317224103" as="geometry" />
        </mxCell>
        <mxCell id="dhI3B1pzcQXHYzO1v27A-39" style="edgeStyle=orthogonalEdgeStyle;rounded=0;orthogonalLoop=1;jettySize=auto;html=1;exitX=0.5;exitY=1;exitDx=0;exitDy=0;entryX=0.5;entryY=0;entryDx=0;entryDy=0;fontSize=40;" edge="1" parent="dhI3B1pzcQXHYzO1v27A-1" source="dhI3B1pzcQXHYzO1v27A-42" target="dhI3B1pzcQXHYzO1v27A-61">
          <mxGeometry relative="1" as="geometry" />
        </mxCell>
      </root>
    </mxGraphModel>
  </diagram>
</mxfile>
